SplineFontDB: 3.0
FontName: Babacar
FullName: Babacar
FamilyName: Babacar
Weight: Medium
Copyright: Created by Frank ADEBIAYE with FontForge 2.0 (http://fontforge.sf.net)
UComments: "2012-5-12: Created." 
Version: 001.000
ItalicAngle: 0
UnderlinePosition: -100
UnderlineWidth: 50
Ascent: 725
Descent: 275
LayerCount: 2
Layer: 0 0 "Back"  1
Layer: 1 0 "Fore"  0
XUID: [1021 32 261939104 15082840]
FSType: 8
OS2Version: 0
OS2_WeightWidthSlopeOnly: 0
OS2_UseTypoMetrics: 1
CreationTime: 1336826156
ModificationTime: 1336920635
PfmFamily: 17
TTFWeight: 500
TTFWidth: 5
LineGap: 90
VLineGap: 0
OS2TypoAscent: 0
OS2TypoAOffset: 1
OS2TypoDescent: 0
OS2TypoDOffset: 1
OS2TypoLinegap: 90
OS2WinAscent: 0
OS2WinAOffset: 1
OS2WinDescent: 0
OS2WinDOffset: 1
HheadAscent: 0
HheadAOffset: 1
HheadDescent: 0
HheadDOffset: 1
OS2Vendor: 'PfEd'
Lookup: 258 0 0 "kern"  {"kern-1" [150,15,0] "kern-2" [150,15,0] } ['kern' ('DFLT' <'dflt' > 'latn' <'dflt' > ) ]
MarkAttachClasses: 1
DEI: 91125
KernClass2: 6 7 "kern-2" 
 11 quotesingle
 10 quoteright
 7 uniE041
 1 G
 1 T
 11 icircumflex
 1 Y
 49 a b c d e f g h i k l m n o p q r s t u v w x y z
 49 zero one two three four five six seven eight nine
 17 Ccedilla ccedilla
 1 j
 0 {} -52 {} -10 {} 0 {} 0 {} -74 {} -88 {} -10 {} 0 {} 0 {} 0 {} 0 {} 0 {} 0 {} 0 {} 0 {} 0 {} 0 {} 0 {} 0 {} 0 {} -92 {} 0 {} 0 {} 0 {} 0 {} 0 {} 102 {} -58 {} 0 {} 0 {} -110 {} -18 {} 0 {} -83 {} 0 {} 0 {} 0 {} -100 {} 0 {} 0 {} -77 {}

StartChar: zero
Encoding: 48 48 0
Width: 157
VWidth: 0
Flags: W
VStem: 12.1992 30.7783<49.1189 433.058> 114.027 30.7734<105.999 478.76>
LayerCount: 2
Fore
SplineSet
12.1992 411.287 m 1
 33.0859 442.818 99.2891 547.184 129.504 538.73 c 0
 138.801 536.127 144.691 522.834 144.801 493.438 c 2
 144.801 127.51 l 1
 119.789 90.2441 54.6885 -11.4668 26.0557 -0.00195312 c 0
 17.5 3.42383 12.1992 16.9551 12.1992 45.334 c 2
 12.1992 411.287 l 1
114.027 419.562 m 2
 113.816 452.605 104.742 485.041 86.1953 485.01 c 0
 75.1758 484.99 60.8125 473.502 42.9775 443.861 c 1
 42.9775 119.209 l 2
 42.9775 77.877 47.957 56.8965 55.5234 48.7266 c 0
 71.0234 31.9863 97.3828 69.002 114.027 94.9121 c 1
 114.027 419.562 l 2
114.027 419.562 m 0
EndSplineSet
Validated: 33
EndChar

StartChar: one
Encoding: 49 49 1
Width: 56
VWidth: 0
Flags: W
HStem: 0 21G<12.5254 27.9746 27.9746 43.4746>
VStem: 12.5254 30.9492
LayerCount: 2
Fore
SplineSet
27.9746 532.26 m 5
 43.4746 541.01 l 5
 43.4746 0 l 5
 27.9746 8.75 l 5
 12.5254 0 l 5
 12.5254 541.01 l 5
 27.9746 532.26 l 5
27.9746 532.26 m 4
EndSplineSet
Validated: 1
EndChar

StartChar: two
Encoding: 50 50 2
Width: 157
VWidth: 0
Flags: W
HStem: 260.45 13.3594<50.4894 74.4941> 282.95 20G<11.3164 25.437>
VStem: 11.3164 30.7695<105.457 260.45 478.493 494.235> 113.138 30.7783<47.0872 62.5007>
LayerCount: 2
Fore
SplineSet
118.366 0 m 4
 86.2666 0.780273 34.916 92.7002 11.3164 127.87 c 5
 11.3164 302.95 l 5
 39.5576 283.431 60.6162 274.021 76.126 273.81 c 4
 116.856 273.271 119.286 336.16 113.138 445.75 c 5
 99.3076 467.271 78.7764 496.47 63.3262 496.11 c 4
 51.1162 495.83 42.0859 477.08 42.0859 421.421 c 5
 11.3164 495.3 l 5
 15.626 530.31 25.6963 542.47 38.6377 540.87 c 4
 70.8164 536.88 120.736 447.671 143.916 413.15 c 5
 143.916 343.38 154.638 283.04 123.257 261.39 c 4
 108.066 250.9 83.0068 249.49 42.0859 260.45 c 5
 42.0859 95.2705 l 5
 66.8564 56.7197 113.138 -6.44043 113.138 119.57 c 5
 143.916 45.7002 l 5
 139.797 12.3096 130.446 -0.299805 118.366 0 c 4
118.366 0 m 4
EndSplineSet
Validated: 33
EndChar

StartChar: three
Encoding: 51 51 3
Width: 156
VWidth: 0
Flags: W
VStem: 11.6992 30.7812<46.0474 61.8209 271.168 286.666 475.969 491.569> 113.521 30.7793<103.362 433.026>
LayerCount: 2
Fore
SplineSet
37.25 538.469 m 4
 69.3506 537.68 120.699 445.779 144.301 410.619 c 5
 144.301 127.17 l 5
 119.431 90.1191 63.75 -9.91992 32.25 0 c 4
 22.6094 3.03906 15.2305 16.3906 11.6992 45.0195 c 5
 42.4805 118.9 l 5
 42.4805 67.9199 50.0508 47.9004 60.7109 44.6895 c 4
 76.4004 39.959 98.7793 71.6406 113.521 94.5996 c 5
 113.521 238.42 l 5
 99.7598 259.84 79.3506 288.859 63.9307 288.789 c 4
 51.6094 288.719 42.4805 270.07 42.4805 214.09 c 5
 11.6992 287.969 l 5
 15.4609 318.469 23.5898 331.629 34.1807 333.459 c 4
 55.8008 337.17 87.6807 293.58 113.521 253.891 c 5
 113.521 443.219 l 5
 99.4102 465.189 78.3115 495.129 62.7705 493.52 c 4
 51.041 492.311 42.4805 473.1 42.4805 418.891 c 5
 11.6992 492.77 l 5
 15.8203 526.16 25.1699 538.76 37.25 538.469 c 4
37.25 538.469 m 4
EndSplineSet
Validated: 33
EndChar

StartChar: four
Encoding: 52 52 4
Width: 158
VWidth: 0
Flags: W
HStem: 0 21G<114.609 145.391>
VStem: 12.6406 30.7695<173.187 505.421> 114.461 30.9297<0 501.03>
LayerCount: 2
Fore
SplineSet
43.3906 538.001 m 5
 43.4102 244.28 l 6
 43.4102 201.211 48.8203 180.24 56.9199 172.83 c 4
 72.5293 158.561 98.1602 194.6 114.461 219.971 c 5
 114.609 501.03 l 5
 145.391 533.601 l 5
 145.391 0 l 5
 114.609 0 l 5
 114.609 204.721 l 5
 87.1895 162.6 47.1309 115.91 26.3301 126.061 c 4
 17.9004 130.17 12.6406 143.59 12.6406 170.4 c 6
 12.6094 505.421 l 5
 43.3906 538.001 l 5
43.3906 538.001 m 4
EndSplineSet
Validated: 33
EndChar

StartChar: five
Encoding: 53 53 5
Width: 157
VWidth: 0
Flags: W
HStem: 282.939 20G<131.918 145.685>
VStem: 13.084 30.7793<47.0116 62.4919> 114.914 30.7705<105.46 260.439 478.492 494.102>
LayerCount: 2
Fore
SplineSet
38.6328 0 m 4
 26.5527 -0.300781 17.2031 12.2988 13.084 45.6895 c 5
 43.8633 119.57 l 5
 43.8633 74.0996 49.8828 53.2598 58.7539 47.0098 c 4
 74.4629 35.9395 99.084 70.6289 114.914 95.2695 c 5
 114.914 260.439 l 5
 80.6045 251.25 57.4434 250.77 41.9023 257.029 c 4
 0.613281 273.66 13.084 337.93 13.084 413.15 c 5
 37.7422 449.879 92.6641 548.5 124.303 540.549 c 4
 134.354 538.02 142.053 524.74 145.685 495.299 c 5
 114.914 421.42 l 5
 114.914 471.9 107.482 492.029 96.9824 495.539 c 4
 81.2832 500.789 58.7031 468.859 43.8633 445.75 c 5
 37.6523 335.109 40.1934 272.061 82.0527 273.85 c 4
 97.4434 274.5 118.152 283.92 145.685 302.939 c 5
 145.685 127.869 l 5
 122.084 92.709 70.7324 0.779297 38.6328 0 c 4
38.6328 0 m 4
EndSplineSet
Validated: 33
EndChar

StartChar: six
Encoding: 54 54 6
Width: 156
VWidth: 0
Flags: W
HStem: -0.000976562 57.3105<48.3748 65.7589> 273.13 44.8994<85.5193 108.589>
VStem: 11.6934 30.7832<63.8179 436.015> 113.523 30.7832<100.324 270.878 478.219 493.981>
LayerCount: 2
Fore
SplineSet
30.0742 -0.000976562 m 4
 18.9043 0.329102 11.6934 12.6689 11.6934 44.2197 c 5
 11.8242 44.5293 l 5
 11.6934 44.5293 l 5
 11.6934 412.859 l 5
 35.9766 449.039 89.6035 545.22 121.443 540.56 c 4
 132.217 538.989 140.494 525.88 144.307 495.019 c 5
 113.523 421.14 l 5
 113.523 473.89 105.414 493.499 94.1641 495.63 c 4
 78.5449 498.599 56.875 467.88 42.4766 445.47 c 5
 42.4766 238.249 l 5
 67.125 276.099 97.2441 317.499 118.744 318.029 c 4
 130.824 318.319 140.186 305.72 144.307 272.329 c 5
 144.227 272.13 l 5
 144.307 272.13 l 5
 144.307 120.699 l 5
 122.023 90.0498 60.9434 -0.901367 30.0742 -0.000976562 c 4
113.523 93.7998 m 5
 113.523 198.449 l 6
 113.523 215.979 112.854 273.96 91.3242 273.13 c 4
 75.9941 272.289 56.0156 243.839 42.4766 222.749 c 5
 42.4766 118.099 l 6
 42.4766 75.1494 57.2832 57.0596 72.1367 57.3096 c 4
 84.7734 57.5186 99.6855 71.0293 113.523 93.7998 c 5
113.523 93.7998 m 4
EndSplineSet
Validated: 33
EndChar

StartChar: seven
Encoding: 55 55 7
Width: 157
VWidth: 0
Flags: W
HStem: 0 21G<23.2116 42.0889> 291.141 20G<11.3193 24.5093>
VStem: 11.3193 30.7695<32.5996 268.641 486.675 502.328>
LayerCount: 2
Fore
SplineSet
11.3193 32.5996 m 5
 11.3193 311.141 l 5
 37.6992 292.9 57.8105 283.5 72.9795 282.16 c 4
 116.729 278.32 119.439 341.59 113.141 453.939 c 5
 99.459 475.23 79.2207 504.01 63.8389 504.301 c 4
 51.3691 504.531 42.0889 486.031 42.0889 429.611 c 5
 11.3193 503.48 l 5
 15.2695 535.57 24.0605 548.471 35.459 549.16 c 4
 67.4395 551.131 119.959 457.02 143.909 421.34 c 5
 143.909 347.451 155.949 284.141 117.249 266.15 c 4
 101.721 258.93 78.0195 259.01 42.0889 268.641 c 5
 42.0889 0 l 5
 11.3193 32.5996 l 5
11.3193 32.5996 m 4
EndSplineSet
Validated: 33
EndChar

StartChar: eight
Encoding: 56 56 8
Width: 156
VWidth: 0
Flags: W
VStem: 11.7002 30.7793<44.8059 179.333 251.654 413.01> 113.521 30.7793<105.449 236.29 308.228 492.919>
LayerCount: 2
Fore
SplineSet
37.249 0 m 4
 25.1689 -0.291016 15.8193 12.3086 11.7002 45.709 c 5
 11.7002 155.5 l 5
 19.749 167.5 31.0303 186.1 43.6816 205.43 c 5
 41.46 204.66 39.3193 204.229 37.249 204.18 c 4
 25.1689 203.879 15.8193 216.49 11.7002 249.879 c 5
 11.7715 250.08 l 5
 11.7002 250.08 l 5
 11.7002 413.01 l 5
 42.4795 459.879 l 6
 68.0908 499.219 99.6299 542.4 121.239 539.549 c 4
 132.11 538.119 140.47 525.039 144.3 493.979 c 5
 144.182 493.68 l 5
 144.3 493.68 l 5
 144.3 332.029 l 5
 136.261 320.049 124.979 301.469 112.352 282.16 c 5
 127.479 287.369 139.479 276.75 144.3 237.68 c 5
 144.3 127.859 l 5
 120.7 92.6895 69.3516 0.798828 37.249 0 c 4
113.521 95.2793 m 5
 113.521 163.799 l 6
 113.521 289.82 67.2393 226.66 42.4795 188.109 c 5
 42.4795 119.58 l 6
 41.6406 13.709 71.6689 30.5 113.521 95.2793 c 5
113.521 299.459 m 5
 113.521 420.109 l 6
 113.521 474.75 104.819 493.82 92.9502 494.75 c 4
 77.4316 495.969 56.499 466.24 42.4795 444.41 c 5
 42.4795 323.75 l 6
 42.9316 226.379 69.96 232.029 113.521 299.459 c 5
113.521 299.459 m 4
EndSplineSet
Validated: 33
EndChar

StartChar: nine
Encoding: 57 57 9
Width: 156
VWidth: 0
Flags: W
HStem: 222.539 44.9004<47.4141 70.479> 483.26 57.3008<90.2378 107.631>
VStem: 11.7002 30.7793<46.5815 62.3505 269.688 440.239> 113.53 30.7695<104.547 476.749>
LayerCount: 2
Fore
SplineSet
125.929 540.561 m 4
 137.089 540.23 144.3 527.891 144.3 496.34 c 5
 144.179 496.039 l 5
 144.3 496.039 l 5
 144.3 127.699 l 5
 120.03 91.5293 66.3994 -4.65039 34.5498 0 c 4
 23.7803 1.58008 15.5088 14.6797 11.7002 45.5508 c 5
 42.4795 119.42 l 5
 42.4795 66.6699 50.5889 47.0703 61.8291 44.9297 c 4
 77.46 41.959 99.1299 72.6797 113.53 95.0996 c 5
 113.53 302.311 l 5
 88.8799 264.459 58.749 223.07 37.249 222.539 c 4
 25.1787 222.24 15.8193 234.84 11.7002 268.24 c 5
 11.7803 268.439 l 5
 11.7002 268.439 l 5
 11.7002 419.859 l 5
 33.9697 450.52 95.0498 541.471 125.929 540.561 c 4
42.4795 446.76 m 5
 42.4795 342.109 l 6
 42.4795 324.58 43.1494 266.6 64.6787 267.439 c 4
 79.999 268.27 99.9795 296.73 113.53 317.811 c 5
 113.53 422.459 l 6
 113.53 465.41 98.7197 483.51 83.8701 483.26 c 4
 71.2295 483.039 56.3105 469.539 42.4795 446.76 c 5
42.4795 446.76 m 4
EndSplineSet
Validated: 33
EndChar

StartChar: colon
Encoding: 58 58 10
Width: 55
VWidth: 0
Flags: W
HStem: 0 21G<12.1094 42.8906> 315.446 20G<23.996 42.8906>
VStem: 12.1094 30.7812<0 45.8643 257 302.864>
LayerCount: 2
Fore
SplineSet
12.1094 302.864 m 5
 42.8906 335.446 l 5
 42.8906 257 l 5
 12.1094 257 l 5
 12.1094 302.864 l 5
12.1094 302.864 m 4
12.1094 45.8643 m 1
 42.8906 78.4463 l 1
 42.8906 0 l 1
 12.1094 0 l 1
 12.1094 45.8643 l 1
EndSplineSet
Validated: 1
EndChar

StartChar: semicolon
Encoding: 59 59 11
Width: 126
VWidth: 0
Flags: W
HStem: 315.446 20G<94.9101 113.805>
VStem: 12.0879 30.75<-94.4134 -78.5867> 83.1348 30.7773<-83.5915 0 257 302.864>
LayerCount: 2
Fore
SplineSet
113.912 32.5781 m 1
 113.912 -61.3467 l 1
 75.4082 -120.469 23.5332 -188.222 12.0879 -95.3984 c 1
 42.8379 -21.5469 l 1
 42.8379 -103.777 62.5605 -105.441 83.1348 -85.9717 c 1
 83.1348 0 l 1
 113.912 32.5781 l 1
113.912 32.5781 m 0
83.0234 302.864 m 1
 113.805 335.446 l 1
 113.805 257 l 1
 83.0234 257 l 1
 83.0234 302.864 l 1
83.0234 302.864 m 0
EndSplineSet
Validated: 33
EndChar

StartChar: question
Encoding: 63 63 12
Width: 156
VWidth: 0
Flags: W
HStem: 0 21G<11.4473 42.2207>
VStem: 11.334 30.7734<0 45.8633 128.601 268.638 486.684 502.461> 114.322 30.3438<293.419 443.137>
LayerCount: 2
Fore
SplineSet
11.4473 45.8633 m 5
 42.2207 78.4453 l 5
 42.2207 0 l 5
 11.4473 0 l 5
 11.4473 45.8633 l 5
11.4473 45.8633 m 4
11.334 128.601 m 5
 11.334 311.138 l 5
 90.4199 256.478 114.322 281.107 114.322 364.838 c 6
 114.322 451.107 l 5
 99.3955 474.338 75.4951 509.337 59.7793 503.647 c 4
 49.416 499.897 42.1074 479.688 42.1074 429.618 c 5
 11.334 503.487 l 5
 14.6426 530.318 21.3271 543.729 30.0918 547.809 c 4
 61.2246 562.318 119.318 459.107 144.666 421.338 c 5
 144.666 328.058 l 6
 144.666 275.418 125.631 246.258 42.1074 268.638 c 5
 42.1074 96 l 5
 11.334 128.601 l 5
11.334 128.601 m 4
EndSplineSet
Validated: 33
EndChar

StartChar: at
Encoding: 64 64 13
Width: 348
VWidth: 0
Flags: W
HStem: 386.02 44.8701<176.725 199.302> 508.67 51.6299<182.564 287.434>
VStem: 11.6953 30.7812<-50.1905 444.064> 102.125 30.7793<142.528 325.456> 203.773 30.7812<95.083 384.041> 305.523 30.7812<37.3163 482.81>
LayerCount: 2
Fore
SplineSet
182.924 386.02 m 4
 162.543 386.02 146.484 359.15 132.904 335.62 c 5
 132.904 214.97 l 6
 132.904 89.25 178.963 151.82 203.773 190.39 c 5
 203.943 311.32 l 6
 203.943 366.64 195.023 385.52 182.924 386.02 c 4
215.174 508.67 m 4
 153.924 507.82 77.9043 478.6 42.4766 449.07 c 5
 42.4766 0 l 6
 42.4766 -142.561 271.227 -41.8105 305.193 -8.61035 c 5
 273.004 1.43945 226.043 85.0703 203.773 118.25 c 5
 203.773 174.92 l 5
 165.293 115.85 102.125 48.3496 102.125 141.1 c 6
 102.125 303.05 l 5
 125.727 338.21 177.074 430.1 209.174 430.89 c 4
 221.254 431.189 234.727 418.59 234.727 385.199 c 6
 234.555 85.6699 l 5
 247.963 64.79 267.686 36.7197 282.943 35.3701 c 4
 295.213 34.2793 304.596 50.4492 305.523 101.47 c 6
 305.523 440.77 l 5
 304.346 490.6 266.096 508.62 218.074 508.67 c 4
 217.104 508.67 216.154 508.67 215.174 508.67 c 4
279.754 560.3 m 4
 313.383 560.3 336.305 547.4 336.305 514.64 c 6
 336.305 24.2998 l 6
 336.305 -74.7598 11.6953 -145.301 11.6953 -73.8799 c 6
 11.6953 416.47 l 6
 11.6953 462.59 186.754 560.3 279.754 560.3 c 4
EndSplineSet
Validated: 33
EndChar

StartChar: A
Encoding: 65 65 14
Width: 158
VWidth: 0
Flags: W
HStem: 0 21G<12.6992 43.5234 114.523 145.301> 494.652 44.8984<87.3021 109.881>
VStem: 12.6992 30.8242<0 233.111 271.194 434.109> 114.523 30.7773<0 492.698>
LayerCount: 2
Fore
SplineSet
119.75 539.551 m 0
 131.828 539.848 141.184 527.242 145.301 493.852 c 1
 145.301 0 l 1
 114.523 0 l 1
 114.523 185.102 l 1
 89.7344 223.668 43.5234 286.5 43.5234 160.652 c 2
 43.5234 0 l 1
 12.6992 0 l 1
 12.6992 411.699 l 1
 36.3008 446.867 87.6523 538.762 119.75 539.551 c 0
93.5 494.676 m 0
 93.1094 494.691 92.7227 494.676 92.3242 494.652 c 0
 77 493.816 57.0703 465.359 43.5234 444.277 c 1
 43.5234 279.375 l 1
 64.4883 273.305 91.7969 235.465 114.523 200.574 c 1
 114.523 419.977 l 2
 114.523 475.289 105.602 494.18 93.5 494.676 c 0
93.5 494.676 m 0
EndSplineSet
Validated: 33
EndChar

StartChar: B
Encoding: 66 66 15
Width: 156
VWidth: 0
Flags: W
HStem: 520.254 20G<11.6992 42.4775>
VStem: 11.6992 30.7783<44.802 179.33 251.651 540.254> 113.529 30.7715<105.442 236.286 308.221 492.586>
LayerCount: 2
Fore
SplineSet
37.25 0 m 0
 25.1719 -0.296875 15.8223 12.3076 11.6992 45.7031 c 1
 11.6992 155.5 l 1
 19.7539 167.5 31.0312 186.095 43.6758 205.427 c 1
 41.4609 204.66 39.3223 204.226 37.25 204.177 c 0
 25.1719 203.879 15.8223 216.483 11.6992 249.879 c 1
 11.6992 540.254 l 1
 42.4775 540.254 l 1
 42.4775 459.879 l 1
 80.9775 519.004 132.853 586.802 144.301 493.976 c 1
 144.301 332.026 l 1
 136.258 320.043 124.98 301.461 112.353 282.151 c 1
 127.486 287.371 139.48 276.75 144.301 237.677 c 1
 144.301 127.851 l 1
 120.699 92.6865 69.3486 0.792969 37.25 0 c 0
113.529 95.2764 m 1
 113.529 163.802 l 2
 113.529 289.812 67.2422 226.656 42.4775 188.101 c 1
 42.4775 119.578 l 2
 41.6416 13.707 71.668 30.4922 113.529 95.2764 c 1
113.529 299.453 m 1
 113.529 420.101 l 2
 113.529 546.113 67.2422 482.957 42.4775 444.401 c 1
 42.4775 323.754 l 2
 42.9307 226.375 69.9609 232.026 113.529 299.453 c 1
113.529 299.453 m 0
EndSplineSet
Validated: 33
EndChar

StartChar: C
Encoding: 67 67 16
Width: 156
VWidth: 0
Flags: W
VStem: 11.7012 30.7744<103.705 434.706> 113.525 30.7734<46.1604 61.8745 477.643 493.297>
LayerCount: 2
Fore
SplineSet
118.748 540.146 m 4
 130.83 540.444 140.183 527.839 144.299 494.448 c 5
 113.525 420.569 l 5
 113.525 473.956 105.217 493.39 93.7598 495.124 c 4
 78.1699 497.487 56.748 467.093 42.4756 444.87 c 5
 42.4756 94.6201 l 5
 56.5215 72.7529 77.4941 42.9717 93.0186 44.2959 c 4
 104.857 45.3037 113.525 64.417 113.525 118.948 c 5
 144.299 45.0693 l 5
 139.697 7.74121 128.553 -3.61426 114.369 -0.000976562 c 4
 82.1504 8.19824 34.2559 93.6162 11.7012 127.222 c 5
 11.7012 412.296 l 5
 35.3027 447.464 86.6543 539.358 118.748 540.146 c 4
118.748 540.146 m 4
EndSplineSet
Validated: 33
EndChar

StartChar: D
Encoding: 68 68 17
Width: 158
VWidth: 0
Flags: W
HStem: 0 21G<114.552 145.5>
VStem: 12.5 30.7783<48.5251 403.498> 114.326 31.1738<0 449.518 495.204 540.901>
LayerCount: 2
Fore
SplineSet
114.552 540.901 m 1
 145.5 540.901 l 1
 145.5 0 l 1
 114.552 0 l 1
 114.552 84.5508 l 1
 85 42.4404 46.7461 -5.68457 26.5 2.125 c 0
 17.8604 5.46094 12.5 18.9834 12.5 47.5264 c 2
 12.5 381.478 l 1
 30.3447 408.414 81.2549 488.474 114.552 505.978 c 1
 114.552 540.901 l 1
86.7012 455.199 m 0
 75.6582 455.319 61.2197 443.871 43.2783 414.051 c 1
 43.2783 121.401 l 2
 43.2783 72.0557 50.3711 51.7197 60.4961 47.5508 c 0
 76.2275 41.082 99.2588 73.6455 114.326 97.1025 c 1
 114.326 389.75 l 2
 114.119 422.672 105.11 455 86.7012 455.199 c 0
86.7012 455.199 m 0
EndSplineSet
Validated: 33
EndChar

StartChar: E
Encoding: 69 69 18
Width: 156
VWidth: 0
Flags: W
HStem: 493.973 44.8906<86.3027 108.883>
VStem: 11.7012 30.7744<104.216 433.422> 113.525 30.7734<46.7411 62.2231 271.559 287.139 476.36 491.997>
LayerCount: 2
Fore
SplineSet
118.748 538.863 m 0
 130.83 539.16 140.183 526.555 144.299 493.164 c 1
 113.525 419.289 l 1
 113.525 474.609 104.604 493.477 92.498 493.973 c 0
 77.0332 494.605 56.3691 465.242 42.4756 443.613 c 1
 42.4756 254.289 l 1
 69.0186 295.043 101.912 339.914 123.541 333.449 c 0
 133.287 330.535 140.744 317.199 144.299 288.363 c 1
 113.525 214.488 l 1
 113.525 262.402 106.834 282.973 97.1738 287.941 c 0
 81.4365 296.043 57.8223 262.707 42.4756 238.812 c 1
 42.4756 94.9961 l 1
 56.0293 73.8906 76.0332 45.418 91.3652 44.6289 c 0
 104.041 43.9766 113.525 62.2578 113.525 119.297 c 1
 144.299 45.418 l 1
 140.58 15.25 132.584 2.04688 122.166 0 c 0
 90.4199 -6.24219 36.1582 91.1289 11.7012 127.57 c 1
 11.7012 411.012 l 1
 35.3027 446.18 86.6543 538.074 118.748 538.863 c 0
118.748 538.863 m 0
EndSplineSet
Validated: 33
EndChar

StartChar: F
Encoding: 70 70 19
Width: 157
VWidth: 0
Flags: W
HStem: 0.000976562 21G<12.2012 42.9756>
VStem: 12.2012 30.7744<0.000976562 432.136> 114.025 30.7734<475.072 490.684>
LayerCount: 2
Fore
SplineSet
119.252 537.574 m 4
 131.33 537.871 140.683 525.27 144.799 491.876 c 5
 114.025 418.001 l 5
 114.025 477.755 103.619 494.978 90.0332 492.462 c 4
 74.9707 489.669 55.998 462.599 42.9756 442.325 c 5
 42.9756 253.001 l 5
 81.4795 312.122 133.354 379.897 144.799 287.075 c 5
 114.025 213.2 l 5
 114.025 265.505 106.053 285.224 94.9512 287.638 c 4
 79.3115 291.04 57.4629 260.079 42.9756 237.526 c 5
 42.9756 0.000976562 l 5
 12.2012 0.000976562 l 5
 12.2012 409.728 l 5
 35.8027 444.892 87.1543 536.785 119.252 537.574 c 4
119.252 537.574 m 4
EndSplineSet
Validated: 33
EndChar

StartChar: G
Encoding: 71 71 20
Width: 257
VWidth: 0
Flags: W
VStem: 11.2871 30.7773<11.6516 26.5387 238.213 467.161> 113.115 31.2969<68.3314 143.679 180.435 435.95> 214.939 30.7734<477.639 493.188>
LayerCount: 2
Fore
SplineSet
220.615 540.166 m 4
 232.467 540.127 241.646 527.408 245.713 494.443 c 5
 214.939 420.568 l 5
 214.939 472.679 207.021 492.443 195.987 494.975 c 4
 180.338 498.568 158.412 467.502 143.889 444.893 c 5
 144.412 92.166 l 5
 119.521 55.0801 63.7598 -45.1143 32.2803 -34.9746 c 4
 22.6777 -31.8809 15.334 -18.5254 11.8145 10.0176 c 5
 42.5879 83.8926 l 5
 42.5879 28.8496 51.4199 9.90039 63.4277 9.22852 c 4
 78.916 8.36133 99.6895 37.877 113.639 59.5928 c 5
 113.639 134.518 l 5
 81.4238 143.179 33.7715 228.143 11.2871 261.643 c 5
 11.2871 468.393 l 5
 23.459 567.076 81.3301 484.222 120.24 423.244 c 5
 146.064 463.693 191.463 540.265 220.615 540.166 c 4
62.9629 469.193 m 4
 50.9238 468.576 42.0645 449.646 42.0645 394.518 c 6
 42.0645 229.068 l 5
 55.6074 207.982 75.5879 179.529 90.9121 178.693 c 4
 103.612 178.002 113.115 196.268 113.115 253.369 c 6
 113.115 418.818 l 5
 99.1816 440.507 78.4443 469.982 62.9629 469.193 c 4
62.9629 469.193 m 4
EndSplineSet
Validated: 33
EndChar

StartChar: H
Encoding: 72 72 21
Width: 158
VWidth: 0
Flags: W
HStem: 0.000976562 21G<12.6992 43.5234 114.523 145.301> 519.361 20.2383G<12.6992 43.3179 114.501 145.301>
VStem: 12.6992 30.8242<0.000976562 233.256 271.194 539.6> 114.523 30.7773<0.000976562 539.361>
LayerCount: 2
Fore
SplineSet
114.5 539.361 m 5
 145.301 539.361 l 5
 145.228 539.361 l 5
 145.301 539.361 l 5
 145.301 0.000976562 l 5
 114.523 0.000976562 l 5
 114.523 185.101 l 5
 99.6416 208.257 77.0352 240.161 61.3486 234.722 c 4
 50.9023 231.101 43.5234 210.94 43.5234 160.651 c 6
 43.5234 0.000976562 l 5
 12.6992 0.000976562 l 5
 12.6992 539.6 l 5
 43.3008 539.6 l 5
 43.5234 279.376 l 5
 64.4883 273.304 91.7969 235.464 114.523 200.573 c 5
 114.5 539.361 l 5
114.5 539.361 m 4
EndSplineSet
Validated: 37
EndChar

StartChar: I
Encoding: 73 73 22
Width: 56
VWidth: 0
Flags: W
HStem: -0.000976562 21G<12.6133 43.3867> 519.448 20G<24.4969 43.3867>
VStem: 12.6133 30.7734<-0.000976562 506.866>
LayerCount: 2
Fore
SplineSet
12.6133 506.866 m 1
 43.3867 539.448 l 1
 43.3867 -0.000976562 l 1
 12.6133 -0.000976562 l 1
 12.6133 506.866 l 1
12.6133 506.866 m 0
EndSplineSet
Validated: 1
EndChar

StartChar: J
Encoding: 74 74 23
Width: 156
VWidth: 0
Flags: W
HStem: 520.188 20G<113.525 144.299>
VStem: 11.7012 30.7744<46.1545 61.7891> 113.525 30.7734<104.185 540.188>
LayerCount: 2
Fore
SplineSet
144.299 127.142 m 5
 120.201 91.2354 67.1777 -3.80762 35.252 -0.643555 c 4
 24.1436 0.458008 15.5879 13.4541 11.7012 44.9854 c 5
 42.4756 118.86 l 5
 42.4756 67.4111 50.1895 47.4971 61.0059 44.5635 c 4
 76.6826 40.3174 98.8691 71.7432 113.525 94.5547 c 5
 113.525 540.188 l 5
 144.299 540.188 l 5
 144.299 127.142 l 5
144.299 127.142 m 4
EndSplineSet
Validated: 33
EndChar

StartChar: K
Encoding: 75 75 24
Width: 156
VWidth: 0
Flags: W
HStem: 0 21G<11.8008 42.5742 113.074 144.199> 520.16 19.9609G<11.9437 42.4042 113.776 144.199>
VStem: 11.9492 30.7773<0 148.43 185.563 540.16> 113.776 30.4229<0 90.1829 251.319 540.121>
LayerCount: 2
Fore
SplineSet
11.9492 540.16 m 5
 42.375 540.16 l 5
 42.7266 299.676 l 5
 57.9102 276.039 81.1836 243.152 96.918 250.285 c 4
 106.848 254.785 113.776 275.223 113.776 323.977 c 6
 113.776 540.121 l 5
 144.199 540.121 l 5
 144.199 250.102 l 6
 144.199 224.445 139.723 211.051 131.926 206.344 c 4
 111.444 193.988 70.4688 241.566 42.5742 284.426 c 5
 42.5742 193.875 l 5
 74.7656 183.66 121.965 100.184 144.199 67.0508 c 5
 144.199 0 l 5
 113.074 0 l 5
 113.074 99.625 l 5
 98.1797 122.816 75.5039 154.895 59.7891 149.367 c 4
 51.0469 146.293 44.4609 131.566 42.5742 97.1758 c 5
 42.5742 0 l 5
 11.8008 0 l 5
 11.9492 540.16 l 5
 11.9961 540.16 l 5
 11.9492 540.16 l 5
11.9492 540.16 m 4
EndSplineSet
Validated: 37
EndChar

StartChar: L
Encoding: 76 76 25
Width: 156
VWidth: 0
Flags: W
VStem: 11.6992 30.7744<104.898 540.852> 113.523 30.7773<46.711 62.4506>
LayerCount: 2
Fore
SplineSet
11.6992 127.801 m 5
 11.6992 540.852 l 5
 42.4736 540.852 l 5
 42.4736 95.2188 l 5
 57.5781 71.707 80.6807 39.0508 96.4141 45.7188 c 4
 106.478 49.9883 113.523 70.3555 113.523 119.523 c 5
 144.301 45.6484 l 5
 140.388 13.9414 131.758 0.972656 120.56 0 c 4
 88.6133 -2.77344 35.75 91.9688 11.6992 127.801 c 5
11.6992 127.801 m 4
EndSplineSet
Validated: 33
EndChar

StartChar: M
Encoding: 77 77 26
Width: 259
VWidth: 0
Flags: W
HStem: -0.000976562 21G<12.2871 43.0615 114.111 144.885 215.938 246.713>
VStem: 12.2871 30.7744<-0.000976562 451.943> 114.111 30.7734<-0.000976562 492.2> 215.938 30.7744<-0.000976562 487.046>
LayerCount: 2
Fore
SplineSet
12.2871 -0.000976562 m 5
 12.2871 412.374 l 6
 12.2871 448.354 93.1465 552.276 128.58 538.271 c 4
 138.521 534.343 144.885 521.128 144.885 494.526 c 5
 144.814 494.323 l 5
 144.885 494.323 l 5
 144.885 460.448 l 5
 171.438 506.438 201.322 537.026 221.814 539.39 c 4
 236.764 541.116 246.713 527.823 246.713 494.526 c 5
 246.662 494.323 l 5
 246.713 494.323 l 5
 246.713 -0.000976562 l 5
 215.938 -0.000976562 l 5
 215.938 420.651 l 5
 217.568 465.688 209.396 486.503 196.08 488.78 c 4
 182.654 491.077 163.994 474.526 144.885 444.948 c 5
 144.885 -0.000976562 l 5
 114.111 -0.000976562 l 5
 114.111 420.651 l 6
 114.111 470.347 106.701 491.628 94.8506 493.991 c 4
 81.7012 496.612 63.0801 475.938 43.0615 444.948 c 5
 43.0615 -0.000976562 l 5
 12.2871 -0.000976562 l 5
12.2871 -0.000976562 m 4
EndSplineSet
Validated: 33
EndChar

StartChar: N
Encoding: 78 78 27
Width: 158
VWidth: 0
Flags: W
HStem: 0 21G<12.6992 43.4775 114.527 145.301> 519.403 20G<12.6992 43.4775>
VStem: 12.6992 30.7783<0 539.403> 114.527 30.7734<0 492.413>
LayerCount: 2
Fore
SplineSet
145.301 0 m 5
 114.527 0 l 5
 114.527 419.828 l 6
 114.527 476.926 105.023 495.196 92.3242 494.505 c 4
 77 493.669 57.0205 465.211 43.4775 444.129 c 5
 43.4775 0 l 5
 12.6992 0 l 5
 12.6992 539.403 l 5
 43.4775 539.403 l 5
 43.4775 459.602 l 5
 68.1289 497.458 98.25 538.876 119.75 539.403 c 4
 131.832 539.7 141.185 527.095 145.301 493.704 c 5
 145.23 493.505 l 5
 145.301 493.505 l 5
 145.301 0 l 5
145.301 0 m 4
EndSplineSet
Validated: 33
EndChar

StartChar: O
Encoding: 79 79 28
Width: 157
VWidth: 0
Flags: W
VStem: 12.1992 30.7783<49.1189 433.058> 114.027 30.7734<105.999 478.76>
LayerCount: 2
Fore
SplineSet
12.1992 411.287 m 1
 33.0859 442.818 99.2891 547.184 129.504 538.73 c 0
 138.801 536.127 144.691 522.834 144.801 493.438 c 2
 144.801 127.51 l 1
 119.789 90.2441 54.6885 -11.4668 26.0557 -0.00195312 c 0
 17.5 3.42383 12.1992 16.9551 12.1992 45.334 c 2
 12.1992 411.287 l 1
114.027 419.562 m 2
 113.816 452.605 104.742 485.041 86.1953 485.01 c 0
 75.1758 484.99 60.8125 473.502 42.9775 443.861 c 1
 42.9775 119.209 l 2
 42.9775 77.877 47.957 56.8965 55.5234 48.7266 c 0
 71.0234 31.9863 97.3828 69.002 114.027 94.9121 c 1
 114.027 419.562 l 2
114.027 419.562 m 0
EndSplineSet
Validated: 33
EndChar

StartChar: P
Encoding: 80 80 29
Width: 258
VWidth: 0
Flags: W
VStem: 11.7129 30.7773<-80.8881 -65.3463> 113.537 30.9258<-22.9623 489.229> 215.514 30.7734<113.414 432.715>
LayerCount: 2
Fore
SplineSet
113.688 493.949 m 5
 113.688 528.602 122.186 540.035 135.021 537.695 c 4
 166.365 531.984 223.592 444.195 246.287 411.801 c 5
 246.287 112.551 l 5
 246.162 112.551 l 5
 246.287 112.25 l 5
 242.881 84.6094 235.885 71.2109 226.725 67.5859 c 4
 205.088 59.0234 171.373 104.996 144.312 146.578 c 5
 144.312 0 l 5
 120.209 -35.9141 67.1621 -130.996 35.2441 -127.777 c 4
 24.1426 -126.66 15.5996 -113.656 11.7129 -82.1484 c 5
 42.4902 -8.27344 l 5
 42.4902 -64.3672 51.6582 -82.9844 64.0205 -82.9688 c 4
 79.4316 -82.9492 99.7949 -53.9922 113.537 -32.5977 c 5
 113.688 493.75 l 5
 113.736 493.75 l 5
 113.688 493.949 l 5
215.514 444.375 m 5
 193.385 478.629 175.51 495.078 163.225 491.164 c 4
 151.318 487.367 144.662 464.449 144.463 420.078 c 6
 144.463 161.828 l 5
 158.744 139.594 180.182 109.18 195.771 111.578 c 4
 207.217 113.336 215.514 132.781 215.514 186.125 c 6
 215.514 444.375 l 5
215.514 444.375 m 4
EndSplineSet
Validated: 33
EndChar

StartChar: Q
Encoding: 81 81 30
Width: 258
VWidth: 0
Flags: W
VStem: 11.7129 30.7734<113.479 433.063> 113.537 30.9258<-21.6631 489.166> 215.508 30.7793<-80.9247 -65.3474>
LayerCount: 2
Fore
SplineSet
144.311 493.949 m 1
 144.264 493.75 l 1
 144.311 493.75 l 1
 144.463 -32.5957 l 1
 159.963 -56.7246 183.889 -90.4844 199.623 -81.4746 c 0
 209.033 -76.0898 215.508 -55.4219 215.508 -8.27344 c 1
 246.287 -82.1484 l 1
 242.916 -109.488 236.037 -122.893 227.021 -126.695 c 0
 195.779 -139.867 138.899 -37.5664 113.686 0 c 1
 113.686 146.578 l 1
 87.2705 105.988 54.5176 61.2148 32.8438 67.0684 c 0
 22.916 69.7461 15.3135 83.0508 11.7129 112.25 c 1
 11.8379 112.551 l 1
 11.7129 112.551 l 1
 11.7129 411.801 l 1
 34.7285 444.656 93.2676 534.492 124.299 537.891 c 0
 136.396 539.215 144.311 527.404 144.311 493.949 c 1
42.4863 444.375 m 1
 42.4863 186.125 l 2
 42.4863 134.832 50.1543 114.883 60.9219 111.861 c 0
 76.6035 107.457 98.8535 138.965 113.537 161.828 c 1
 113.537 420.078 l 2
 113.301 472.621 104.008 495.078 87.6719 491.328 c 0
 75.9746 488.641 60.666 472.516 42.4863 444.375 c 1
42.4863 444.375 m 0
EndSplineSet
Validated: 33
EndChar

StartChar: R
Encoding: 82 82 31
Width: 157
VWidth: 0
Flags: W
HStem: 0 21.6133G<12.127 42.9004 113.4 144.174> 492.188 46.25<47.7797 63.7306>
VStem: 12.127 30.7734<0 148.029 185.876 489.569> 114.1 30.7734<0.613281 88.28 193.699 434.039>
LayerCount: 2
Fore
SplineSet
30.4004 538.438 m 0
 60.8809 538.679 121.381 445.797 144.873 412.262 c 1
 144.873 192.711 l 1
 141.174 162.719 133.256 149.496 122.928 147.332 c 0
 101.256 142.789 68.9863 186.957 42.9004 227.039 c 1
 42.9004 194.188 l 1
 75.0918 183.973 121.938 100.492 144.174 67.3633 c 1
 144.174 0.613281 l 1
 113.4 0.613281 l 1
 113.4 99.9375 l 1
 97.6152 124.512 73.084 159.074 57.373 148.273 c 0
 50.0098 143.207 44.584 128.18 42.9004 97.4883 c 1
 42.9004 0 l 1
 12.127 0 l 1
 12.2754 494.21 l 1
 12.3223 494.21 l 1
 12.2754 494.409 l 1
 12.2754 526.089 19.373 538.347 30.4004 538.438 c 0
65.9746 492.188 m 0
 51.4668 492.667 43.2705 469.848 43.0488 420.539 c 2
 43.0488 242.289 l 1
 57.2285 220.215 78.459 190.082 94.0176 191.992 c 0
 105.639 193.414 114.1 212.715 114.1 266.586 c 2
 114.1 444.836 l 1
 94.3574 475.398 77.998 491.788 65.9746 492.188 c 0
65.9746 492.188 m 0
EndSplineSet
Validated: 33
EndChar

StartChar: S
Encoding: 83 83 32
Width: 157
VWidth: 0
Flags: W
HStem: 495.945 44.9062<85.9187 108.559>
VStem: 11.3154 30.7744<46.5613 62.3545 280.402 435.389> 113.141 30.7764<478.35 494.163>
LayerCount: 2
Fore
SplineSet
118.366 540.852 m 0
 130.444 541.148 139.797 528.547 143.917 495.152 c 1
 113.141 421.277 l 1
 113.141 478.25 103.68 496.555 91.0225 495.945 c 0
 75.6875 495.207 55.6592 466.699 42.0898 445.578 c 1
 42.0898 280.402 l 1
 89.2266 293.031 115.315 289.23 129.521 274.07 c 0
 153.12 248.883 143.917 192.34 143.917 127.703 c 1
 119.655 91.5586 66.0811 -4.51953 34.2334 0 c 0
 23.4336 1.53125 15.1279 14.6289 11.3154 45.5508 c 1
 42.0898 119.426 l 1
 42.0898 67.5391 49.9404 47.7188 60.9014 45.0508 c 0
 76.5625 41.2422 98.5732 72.4258 113.141 95.1016 c 1
 119.167 202.598 116.944 265.16 78.4219 267 c 0
 62.7188 267.746 40.9834 258.406 11.3154 237.902 c 1
 11.3154 412.977 l 1
 34.917 448.145 86.2695 540.062 118.366 540.852 c 0
118.366 540.852 m 0
EndSplineSet
Validated: 33
EndChar

StartChar: T
Encoding: 84 84 33
Width: 258
VWidth: 0
Flags: W
HStem: 0 21G<113.525 144.476>
VStem: 113.525 30.9502<0 435.352 444.102 444.102> 215.525 30.7734<476.872 492.468>
LayerCount: 2
Fore
SplineSet
11.7012 493.676 m 5
 11.7012 519.25 16.3965 532.488 24.002 537.098 c 4
 48.7871 552.129 104.451 475.484 128.976 435.352 c 5
 154.619 475.973 192.537 535.711 218.779 539.234 c 4
 231.808 540.98 241.959 528.871 246.299 493.676 c 5
 215.525 419.801 l 5
 215.525 478.332 205.537 496.051 192.361 494.379 c 4
 177.17 492.449 157.736 464.746 144.476 444.102 c 5
 144.476 0 l 5
 113.525 0 l 5
 113.525 444.102 l 5
 97.791 468.598 73.373 503.02 57.6543 492.559 c 4
 48.6309 486.555 42.4756 465.758 42.4756 419.801 c 5
 11.7012 493.676 l 5
11.7012 493.676 m 4
EndSplineSet
Validated: 33
EndChar

StartChar: U
Encoding: 85 85 34
Width: 158
VWidth: 0
Flags: W
HStem: 0 21G<114.523 145.301> 519.398 20G<12.6992 43.4775 114.523 145.301>
VStem: 12.6992 30.7783<46.9902 539.398> 114.523 30.7773<0 539.398>
LayerCount: 2
Fore
SplineSet
12.6992 539.398 m 5
 43.4775 539.398 l 5
 43.4775 119.574 l 6
 43.4775 62.4727 52.9775 44.207 65.6758 44.8984 c 4
 81 45.7344 100.98 74.1875 114.523 95.2734 c 5
 114.523 539.398 l 5
 145.301 539.398 l 5
 145.301 0 l 5
 114.523 0 l 5
 114.523 79.7969 l 5
 89.875 41.9453 59.75 0.527344 38.25 0 c 4
 26.1719 -0.300781 16.8203 12.3047 12.6992 45.6992 c 5
 12.6992 539.398 l 5
12.6992 539.398 m 4
EndSplineSet
Validated: 33
EndChar

StartChar: V
Encoding: 86 86 35
Width: 259
VWidth: 0
Flags: W
HStem: 518.597 20G<216.002 246.775>
VStem: 12.2246 30.7773<476.448 492.151> 114.178 30.7734<105.438 433.507> 216.002 30.7734<46.9896 538.597>
LayerCount: 2
Fore
SplineSet
37.7754 538.949 m 0
 69.873 538.16 121.225 446.265 144.826 411.097 c 1
 144.951 95.2725 l 1
 158.494 74.1865 178.475 45.7344 193.799 44.8975 c 0
 206.498 44.207 216.002 62.4717 216.002 119.574 c 2
 216.002 538.597 l 1
 246.775 538.597 l 1
 246.775 45.8975 l 1
 246.705 45.8975 l 1
 246.775 45.6992 l 1
 242.658 12.3037 233.303 -0.296875 221.225 0 c 0
 189.131 0.789062 137.779 92.6826 114.178 127.847 c 1
 114.053 443.672 l 1
 98.7715 467.461 75.3027 500.604 59.5645 492.926 c 0
 49.791 488.16 43.002 467.644 43.002 419.375 c 1
 12.2246 493.25 l 1
 16.3457 526.64 25.6973 539.246 37.7754 538.949 c 0
37.7754 538.949 m 0
EndSplineSet
Validated: 33
EndChar

StartChar: W
Encoding: 87 87 36
Width: 461
VWidth: 0
Flags: W
HStem: 0 44.8906<290.142 312.355>
VStem: 11.2754 30.7734<469.594 485.253> 113.1 30.7773<48.3151 436.852 476.674 492.368> 317.123 30.7773<46.9645 436.852 476.674 492.342> 418.951 30.7734<469.594 485.166>
LayerCount: 2
Fore
SplineSet
137.623 539.176 m 0
 163.943 540.16 203.885 477.203 230.525 435 c 1
 258.869 479.898 302.252 548.316 328.264 538.184 c 0
 337.459 534.602 344.482 521.199 347.9 493.477 c 1
 317.123 419.602 l 1
 317.123 471.137 309.381 491.035 298.537 493.918 c 0
 282.865 498.082 260.713 466.711 246.076 443.926 c 1
 246.076 95.2734 l 1
 259.814 73.8867 280.174 44.9336 295.58 44.8906 c 0
 307.947 44.8633 317.123 63.4648 317.123 119.574 c 2
 317.123 404.25 l 1
 343.014 442.824 402.291 549.656 432.92 529.633 c 0
 440.725 524.527 446.666 511.195 449.725 486.398 c 1
 418.951 412.523 l 1
 418.951 464.688 411.018 484.441 399.967 486.941 c 0
 384.318 490.48 362.412 459.445 347.9 436.852 c 1
 347.9 45.6992 l 1
 343.783 12.3086 334.428 -0.296875 322.35 0 c 0
 295.967 0.648438 256.795 62.5195 230.502 104.176 c 1
 204.201 62.5195 165.029 0.648438 138.65 0 c 0
 126.572 -0.296875 117.217 12.3086 113.1 45.6992 c 1
 113.1 436.852 l 1
 98.1113 460.184 75.2441 492.516 59.5215 486.48 c 0
 49.2637 482.547 42.0488 462.277 42.0488 412.523 c 1
 11.2754 486.398 l 1
 14.7207 514.352 21.8379 527.738 31.1465 531.188 c 0
 62.5176 542.797 118.826 441.574 143.877 404.25 c 1
 143.877 119.574 l 2
 143.877 76.1836 149.361 55.2227 157.572 47.9648 c 0
 173.197 34.1406 198.686 69.9961 214.924 95.2734 c 1
 214.924 443.926 l 1
 199.795 467.48 176.635 500.207 160.9 493.375 c 0
 150.881 489.023 143.877 468.629 143.877 419.602 c 1
 113.1 493.477 l 1
 117.1 525.914 126.045 538.742 137.623 539.176 c 0
137.623 539.176 m 0
EndSplineSet
Validated: 33
EndChar

StartChar: X
Encoding: 88 88 37
Width: 258
VWidth: 0
Flags: W
VStem: 11.7012 30.7744<46.84 62.5029 214.234 228.893 478.173 493.841> 113.523 30.9521<95.2734 436.648 445.398 445.398> 215.523 30.7754<46.9807 62.5024 327.126 342.89 478.173 493.819>
LayerCount: 2
Fore
SplineSet
221.023 540.699 m 0
 232.971 540.801 242.213 528.121 246.299 494.977 c 1
 215.523 421.102 l 1
 215.523 468.438 208.994 489.078 199.523 494.359 c 0
 183.787 503.133 159.938 469.473 144.476 445.398 c 1
 144.476 309.852 l 1
 170.683 350.094 203.08 394.344 224.713 389.234 c 0
 234.865 386.836 242.644 373.574 246.299 343.93 c 1
 215.523 270.055 l 1
 215.523 321.883 207.691 341.711 196.752 344.41 c 0
 181.092 348.273 159.053 317.051 144.476 294.352 c 1
 144.476 95.2734 l 1
 159.01 72.6484 180.959 41.5469 196.611 45.1836 c 0
 207.627 47.7461 215.523 67.5195 215.523 119.574 c 1
 246.299 45.6992 l 1
 242.537 15.1953 234.408 2.03125 223.826 0.203125 c 0
 197.604 -4.32031 156.312 60.7148 128.976 104.023 c 1
 102.334 61.8242 62.4863 -0.984375 36.2012 0 c 0
 24.6191 0.433594 15.7012 13.2617 11.7012 45.6992 c 1
 42.4756 119.574 l 1
 42.4756 68.9297 49.9512 48.8398 60.502 45.4297 c 0
 76.2051 40.3555 98.7129 72.2148 113.523 95.2734 c 1
 113.523 246.078 l 1
 85.3164 202.777 49.9551 154.898 28.5723 168.898 c 0
 20.7705 174.004 14.8301 187.34 11.7734 212.129 c 1
 42.5488 286.004 l 1
 42.5488 241.602 48.2949 220.684 56.8223 213.906 c 0
 72.4707 201.465 97.4805 236.617 113.523 261.578 c 1
 113.523 445.398 l 1
 98.0723 469.453 74.248 503.082 58.5098 494.379 c 0
 49.0205 489.129 42.4756 468.496 42.4756 421.102 c 1
 11.7012 494.977 l 1
 15.7012 527.414 24.6191 540.242 36.2012 540.676 c 0
 62.4863 541.66 102.334 478.852 128.976 436.648 c 1
 155.361 478.445 194.74 540.48 221.023 540.699 c 0
221.023 540.699 m 0
EndSplineSet
Validated: 33
EndChar

StartChar: Y
Encoding: 89 89 38
Width: 258
VWidth: 0
Flags: W
HStem: 303.109 21G<34.2315 42.5635>
VStem: 11.7871 30.7764<360.182 375.872> 113.614 30.7744<-88.5019 -72.9892 89.2862 318.271 477.653 493.298> 215.463 30.75<-31.5072 434.997>
LayerCount: 2
Fore
SplineSet
138.139 540.156 m 4
 170.153 541.359 222.356 447.852 246.213 412.309 c 5
 246.213 -7.61621 l 5
 221.271 -44.7773 165.342 -145.305 133.896 -134.719 c 4
 124.385 -131.52 117.11 -118.152 113.614 -89.793 c 5
 144.389 -15.918 l 5
 144.389 -67.0342 152.01 -87.0234 162.721 -90.1523 c 4
 178.416 -94.7373 200.744 -63.1328 215.463 -40.2188 c 5
 215.463 122.355 l 5
 190.813 84.5088 160.662 43.1133 139.162 42.582 c 4
 127.084 42.2852 117.731 54.8906 113.614 88.2812 c 5
 113.614 327.434 l 5
 98.8135 350.473 76.3301 382.289 60.6309 377.273 c 4
 50.0566 373.898 42.5635 353.816 42.5635 303.109 c 5
 11.7871 376.984 l 5
 15.4756 406.867 23.3535 420.105 33.627 422.345 c 4
 65.3301 429.25 119.854 331.388 144.389 294.832 c 5
 144.389 162.156 l 6
 144.389 111.984 151.729 91.8018 162.131 88.1133 c 4
 177.85 82.5391 200.557 114.652 215.463 137.855 c 5
 215.463 444.906 l 5
 200.467 468.25 177.575 500.605 161.846 494.531 c 4
 151.596 490.57 144.389 470.298 144.389 420.582 c 5
 113.614 494.457 l 5
 117.614 526.895 126.557 539.723 138.139 540.156 c 4
138.139 540.156 m 4
EndSplineSet
Validated: 33
EndChar

StartChar: Z
Encoding: 90 90 39
Width: 157
VWidth: 0
Flags: W
HStem: 282.949 20G<11.3145 24.9805>
VStem: 11.3145 30.7754<105.464 260.449 478.498 494.149> 113.141 30.7773<46.7704 62.5014>
LayerCount: 2
Fore
SplineSet
118.364 0 m 4
 86.2686 0.789062 34.917 92.7109 11.3145 127.875 c 5
 11.3145 302.949 l 5
 38.6465 284.062 59.2451 274.648 74.5977 273.867 c 4
 116.797 271.719 119.36 334.805 113.141 445.75 c 5
 98.6758 468.273 76.8613 499.184 61.2266 495.875 c 4
 50.0938 493.52 42.0898 473.828 42.0898 421.426 c 5
 11.3145 495.301 l 5
 15.0381 525.492 23.042 538.691 33.4688 540.727 c 4
 65.2188 546.922 119.461 449.586 143.918 413.152 c 5
 143.918 340.766 155.461 278.531 119.551 259.117 c 4
 104.09 250.762 79.8398 250.336 42.0898 260.449 c 5
 42.0898 95.2773 l 5
 57.1934 71.7617 80.3047 39.0938 96.0342 45.7773 c 4
 106.098 50.0508 113.141 70.4219 113.141 119.574 c 5
 143.918 45.6992 l 5
 139.797 12.3086 130.442 -0.296875 118.364 0 c 4
118.364 0 m 4
EndSplineSet
Validated: 33
EndChar

StartChar: bracketleft
Encoding: 91 91 40
Width: 157
VWidth: 0
Flags: W
VStem: 12.1992 30.7744<-22.1373 557.891> 114.023 30.7773<-81.174 -65.3453 600.827 616.364>
LayerCount: 2
Fore
SplineSet
119.25 663.33 m 4
 131.328 663.33 140.681 651.021 144.801 617.63 c 5
 114.023 543.75 l 5
 114.023 594.94 106.389 614.921 95.6562 618 c 4
 79.9688 622.511 57.6807 590.94 42.9736 568.061 c 5
 42.9736 -32.5977 l 5
 57.8672 -55.7842 80.543 -87.8584 96.2539 -82.3398 c 4
 106.668 -78.6836 114.023 -58.5078 114.023 -8.27246 c 5
 144.801 -82.1475 l 5
 140.566 -116.477 130.801 -128.836 118.23 -127.797 c 4
 86.0781 -125.137 35.5557 -34.7969 12.1992 0 c 5
 12.1992 535.48 l 5
 35.8008 570.65 87.1523 662.54 119.25 663.33 c 4
EndSplineSet
Validated: 33
EndChar

StartChar: backslash
Encoding: 92 92 41
Width: 320
VWidth: 0
Flags: W
LayerCount: 2
Fore
SplineSet
290.855 0 m 5
 308.654 0.171875 l 5
 38.1348 468.695 l 5
 29.0957 453.371 l 5
 11.3457 453.223 l 5
 281.846 -15.3047 l 5
 290.855 0 l 5
EndSplineSet
Validated: 9
EndChar

StartChar: bracketright
Encoding: 93 93 42
Width: 157
VWidth: 0
Flags: W
VStem: 12.1992 30.7744<-80.8648 -65.3447 600.825 616.364> 114.023 30.7773<-22.1373 557.891>
LayerCount: 2
Fore
SplineSet
37.75 663.33 m 4
 69.8438 662.54 121.194 570.65 144.801 535.48 c 5
 144.801 0 l 5
 121.444 -34.7969 70.9219 -125.137 38.7666 -127.797 c 4
 26.1943 -128.84 16.4346 -116.477 12.1992 -82.1484 c 5
 42.9736 -8.27344 l 5
 42.9736 -58.5078 50.3281 -78.6836 60.7461 -82.3398 c 4
 76.457 -87.8594 99.1328 -55.7852 114.023 -32.5977 c 5
 114.023 568.061 l 5
 99.3193 590.939 77.0264 622.51 61.3438 618 c 4
 50.6123 614.92 42.9736 594.939 42.9736 543.75 c 5
 12.1992 617.63 l 5
 16.3164 651.02 25.6719 663.33 37.75 663.33 c 4
EndSplineSet
Validated: 33
EndChar

StartChar: asciicircum
Encoding: 94 94 43
Width: 231
VWidth: 0
Flags: W
VStem: 13.6738 30.7773<595.126 610.544> 186.549 30.7773<595.126 610.544>
LayerCount: 2
Fore
SplineSet
44.4512 667.617 m 1
 44.4512 541.605 90.7354 604.738 115.504 643.295 c 1
 140.268 604.738 186.549 541.605 186.549 667.617 c 1
 217.326 593.742 l 1
 205.879 500.92 154.004 568.695 115.504 627.816 c 1
 77 568.695 25.125 500.92 13.6738 593.742 c 1
 44.4512 667.617 l 1
44.4512 667.617 m 0
EndSplineSet
Validated: 33
EndChar

StartChar: grave
Encoding: 96 96 44
Width: 129
VWidth: 0
Flags: W
HStem: 540.16 21G<84.6406 92.9716>
LayerCount: 2
Fore
SplineSet
13.5898 564.488 m 5
 13.5898 579.958 l 5
 52.0898 639.078 103.971 706.858 115.41 614.028 c 5
 84.6406 540.16 l 5
 84.6406 666.168 38.3584 603.038 13.5898 564.488 c 5
EndSplineSet
Validated: 33
EndChar

StartChar: a
Encoding: 97 97 45
Width: 157
VWidth: 0
Flags: W
HStem: 0 21G<114.029 144.799> 290.426 44.8477<86.8044 110.781>
VStem: 12.2012 30.7773<46.5128 229.859> 114.029 30.7695<0 289.359>
LayerCount: 2
Fore
SplineSet
119.248 335.273 m 0
 131.326 335.575 140.686 322.969 144.799 289.575 c 1
 144.799 0 l 1
 114.029 0 l 1
 114.029 79.5752 l 1
 88.0645 39.707 50.8184 -3.78516 29.3105 0.356445 c 0
 18.916 2.36035 12.2012 15.4727 12.2012 45.4766 c 2
 12.2012 207.45 l 1
 35.8027 242.618 87.1582 334.489 119.248 335.273 c 0
92.998 290.426 m 0
 76.5762 290.008 55.5293 261.766 42.9785 240.023 c 1
 42.9785 119.348 l 2
 42.9785 65.6328 51.3848 46.293 62.9551 44.7656 c 0
 78.5293 42.7148 99.8184 72.9297 114.029 95.0508 c 1
 114.029 215.727 l 2
 114.029 271.039 109.424 290.84 92.998 290.426 c 0
92.998 290.426 m 0
EndSplineSet
Validated: 33
EndChar

StartChar: b
Encoding: 98 98 46
Width: 157
VWidth: 0
Flags: W
HStem: 0 44.8701<47.6129 70.1893> 516.85 20G<24.0813 42.9717>
VStem: 12.1992 30.7725<46.8492 504.27> 114.021 30.7793<105.438 288.616>
LayerCount: 2
Fore
SplineSet
42.9717 536.85 m 1
 42.9717 255.7 l 1
 69.2705 296.08 107.15 340.569 128.521 335.09 c 0
 138.439 332.55 144.801 319.25 144.801 289.8 c 1
 144.67 289.5 l 1
 144.801 289.5 l 1
 144.801 127.85 l 1
 121.189 92.6797 69.8398 0.780273 37.7402 0 c 0
 25.6699 -0.299805 16.3203 12.2998 12.1992 45.7002 c 1
 12.2402 45.8896 l 1
 12.1992 45.8896 l 1
 12.1992 504.27 l 1
 42.9717 536.85 l 1
92.9902 290.59 m 0
 72.6094 290.399 53.6807 258.77 42.9717 240.22 c 1
 42.9717 119.569 l 2
 42.9717 64.2598 51.8916 45.3701 63.9902 44.8701 c 0
 84.3809 45.0303 103.609 77.2295 114.021 95.2695 c 1
 114.021 215.92 l 2
 114.021 271.229 105.101 290.1 92.9902 290.59 c 0
92.9902 290.59 m 0
EndSplineSet
Validated: 33
EndChar

StartChar: c
Encoding: 99 99 47
Width: 156
VWidth: 0
Flags: W
HStem: 289.887 44.9004<86.3053 108.895>
VStem: 11.7002 30.7793<104.715 229.345> 113.53 30.7695<47.1312 62.7147 272.279 287.895>
LayerCount: 2
Fore
SplineSet
118.751 334.787 m 0
 130.831 335.087 140.182 322.478 144.3 289.087 c 1
 113.53 215.207 l 1
 113.53 270.467 104.62 289.357 92.54 289.887 c 0
 77.0693 290.557 56.3799 261.157 42.4795 239.518 c 1
 42.4795 95.457 l 1
 56.3994 73.7871 77.1299 44.3369 92.6016 45.1074 c 0
 104.659 45.707 113.53 64.627 113.53 119.787 c 1
 144.3 45.9072 l 1
 140.581 15.7275 132.581 2.52734 122.159 0.487305 c 0
 90.4092 -5.72266 36.1592 91.627 11.7002 128.067 c 1
 11.7002 206.938 l 1
 35.2998 242.098 86.6592 333.997 118.751 334.787 c 0
118.751 334.787 m 0
EndSplineSet
Validated: 33
EndChar

StartChar: d
Encoding: 100 100 48
Width: 157
VWidth: 0
Flags: W
HStem: 0 21G<114.051 145> 518.824 20G<126.106 145>
VStem: 12 30.7773<48.5851 240.497> 114.051 30.9492<0 285.832 332.203 506.25>
LayerCount: 2
Fore
SplineSet
145 538.824 m 1
 145 0 l 1
 114.051 0 l 1
 114.051 84.5508 l 1
 86.2773 44.9756 50.8203 0.078125 29.8516 1.30078 c 0
 18.9805 1.93262 12 14.9648 12 47.5273 c 1
 12.125 47.8242 l 1
 12 47.8242 l 1
 12 218.476 l 5
 29.8477 245.414 80.7539 325.476 114.051 342.976 c 5
 114.227 506.25 l 1
 145 538.824 l 1
86.2031 292.199 m 4
 75.1602 292.32 60.7188 280.875 42.7773 251.051 c 5
 42.7773 121.402 l 2
 42.7773 70.582 50.293 50.5156 60.9023 47.1992 c 0
 76.5977 42.3076 99.0469 74.0938 113.828 97.1006 c 1
 113.828 226.75 l 6
 113.617 259.672 104.613 292.004 86.2031 292.199 c 4
86.2031 292.199 m 4
EndSplineSet
EndChar

StartChar: e
Encoding: 101 101 49
Width: 156
VWidth: 0
Flags: W
VStem: 11.6953 30.7793<104.991 251.311> 113.525 30.7793<46.9385 62.4729 184.748 200.434 238.089 243.597>
LayerCount: 2
Fore
SplineSet
92.625 311.87 m 0
 77.1445 312.671 56.4043 283.19 42.4746 261.5 c 1
 42.4746 167.47 l 1
 65.1543 202.3 92.4844 240.12 113.445 246.351 c 1
 112.506 294.41 103.965 311.29 92.625 311.87 c 0
118.744 356.75 m 0
 130.824 356.75 140.176 344.431 144.305 311.04 c 1
 117.676 247.171 l 1
 130.275 248.25 140.055 235.921 144.305 201.55 c 1
 113.525 127.671 l 1
 113.525 182.12 104.885 201.261 93.0742 202.32 c 0
 77.5449 203.72 56.5352 173.891 42.4746 152 c 1
 42.4746 95.25 l 1
 57.1758 72.3506 79.4746 40.79 95.1543 45.2998 c 0
 105.885 48.3906 113.525 68.3604 113.525 119.55 c 1
 144.305 45.6709 l 1
 140.355 13.7305 131.625 0.799805 120.305 0 c 0
 88.334 -2.25 35.6855 92.0908 11.6953 127.82 c 1
 11.6953 228.9 l 1
 35.3047 264.07 86.6543 355.96 118.744 356.75 c 0
EndSplineSet
Validated: 33
EndChar

StartChar: f
Encoding: 102 102 50
Width: 157
VWidth: 0
Flags: W
HStem: 0 21G<12.2002 42.9697> 492.69 44.8799<86.801 109.313>
VStem: 12.2002 30.7695<0 432.13> 114.021 30.7793<270.268 285.966 475.07 490.838>
LayerCount: 2
Fore
SplineSet
119.25 537.57 m 4
 131.32 537.869 140.682 525.26 144.8 491.87 c 5
 114.021 418 l 5
 114.021 473.73 104.97 492.46 92.7197 492.69 c 4
 77.29 492.97 56.7803 463.82 42.9697 442.32 c 5
 42.9697 253 l 5
 69.29 293.42 101.87 337.88 123.5 332.31 c 4
 133.511 329.72 141.182 316.431 144.8 287.07 c 5
 114.021 213.19 l 5
 114.021 260.66 107.45 281.29 97.9404 286.5 c 4
 82.2002 295.13 58.4102 261.55 42.9697 237.521 c 5
 42.9697 0 l 5
 12.2002 0 l 5
 12.2002 409.72 l 5
 35.7998 444.89 87.1504 536.779 119.25 537.57 c 4
119.25 537.57 m 4
EndSplineSet
Validated: 33
EndChar

StartChar: g
Encoding: 103 103 51
Width: 157
VWidth: 0
Flags: W
HStem: -0.5 44.9004<47.9085 70.9709> 290.1 43.4297<91.2449 109.408>
VStem: 12.2002 30.7695<-81.0201 -65.3449 46.6647 233.206> 114.021 30.7793<-22.8794 288.068>
LayerCount: 2
Fore
SplineSet
126.419 333.529 m 4
 137.589 333.199 144.8 320.85 144.8 289.301 c 6
 144.8 0 l 5
 120.771 -35.8008 67.9697 -130.41 36.0215 -127.801 c 4
 24.7803 -126.891 16.1201 -113.939 12.2002 -82.1504 c 5
 42.9697 -8.2793 l 5
 42.9697 -60.75 50.999 -80.4199 62.1494 -82.7305 c 4
 77.79 -85.9707 99.5693 -55.0996 114.021 -32.5996 c 5
 114.021 79.2793 l 5
 89.3701 41.4199 59.2393 0.0292969 37.749 -0.5 c 4
 25.6689 -0.800781 16.3105 11.8105 12.2002 45.1992 c 5
 12.2715 45.4004 l 5
 12.2002 45.4004 l 5
 12.2002 212.83 l 5
 34.4697 243.48 95.5498 334.43 126.419 333.529 c 4
93.1201 290.1 m 4
 73.0889 290.119 53.9092 258.67 42.9697 239.721 c 5
 42.9697 119.08 l 6
 42.9697 101.93 43.6494 43.5605 65.1689 44.4004 c 4
 80.499 45.2305 100.479 73.6895 114.021 94.7793 c 5
 114.021 215.42 l 6
 114.021 270.561 105.159 289.48 93.1201 290.1 c 4
93.1201 290.1 m 4
EndSplineSet
Validated: 33
EndChar

StartChar: h
Encoding: 104 104 52
Width: 158
VWidth: 0
Flags: W
HStem: 0.000976562 21G<12.7002 43.4795 114.53 145.3> 517.421 20G<24.5793 43.4795>
VStem: 12.7002 30.7793<0.000976562 504.851> 114.53 30.7695<0.000976562 286.808>
LayerCount: 2
Fore
SplineSet
43.4795 537.421 m 5
 43.4795 254.05 l 5
 68.1201 291.899 98.2588 333.271 119.749 333.8 c 4
 131.829 334.101 141.179 321.501 145.3 288.101 c 5
 145.229 287.899 l 5
 145.3 287.899 l 5
 145.3 0.000976562 l 5
 114.53 0.000976562 l 5
 114.53 214.229 l 6
 114.53 271.331 105.03 289.591 92.3291 288.899 c 4
 76.999 288.069 57.0215 259.61 43.4795 238.53 c 5
 43.4795 0.000976562 l 5
 12.7002 0.000976562 l 5
 12.7002 504.851 l 5
 43.4795 537.421 l 5
43.4795 537.421 m 4
EndSplineSet
Validated: 33
EndChar

StartChar: i
Encoding: 105 105 53
Width: 56
VWidth: 0
Flags: W
HStem: 0 21G<12.6094 43.3906> 314.45 20G<24.5011 43.3906> 340.13 21G<12.6094 43.3906>
VStem: 12.6094 30.7812<0 301.859 340.13 385.991>
LayerCount: 2
Fore
SplineSet
12.6094 385.991 m 5
 43.3906 418.581 l 5
 43.3906 340.13 l 5
 12.6094 340.13 l 5
 12.6094 385.991 l 5
12.6094 385.991 m 4
12.6094 301.859 m 5
 43.3906 334.45 l 5
 43.3906 0 l 5
 12.6094 0 l 5
 12.6094 301.859 l 5
12.6094 301.859 m 4
EndSplineSet
Validated: 1
EndChar

StartChar: j
Encoding: 106 106 54
Width: 157
VWidth: 0
Flags: W
HStem: 314.431 20G<125.901 144.795> 340.13 21G<114.025 144.805>
VStem: 12.1953 30.7793<-81.0602 -65.3602> 114.025 30.7695<-21.8574 301.86 340.13 385.99>
LayerCount: 2
Fore
SplineSet
114.025 385.99 m 1
 144.805 418.58 l 1
 144.805 340.13 l 1
 114.025 340.13 l 1
 114.025 385.99 l 1
114.025 385.99 m 0
144.795 334.431 m 1
 144.795 0.00976562 l 1
 119.385 -37.8604 61.7754 -141.54 30.6953 -126.34 c 0
 22.0645 -122.11 15.4746 -108.729 12.1953 -82.1602 c 1
 42.9746 -8.29004 l 1
 42.9746 -58.2402 50.2441 -78.4502 60.5742 -82.2598 c 0
 76.2949 -88.0693 99.0742 -55.8604 114.025 -32.5898 c 1
 114.025 301.86 l 1
 144.795 334.431 l 1
144.795 334.431 m 0
EndSplineSet
Validated: 33
EndChar

StartChar: k
Encoding: 107 107 55
Width: 157
VWidth: 0
Flags: W
HStem: 0 21G<12.125 42.8945> 516.851 20G<24.0003 42.8945>
VStem: 12.125 30.7695<0 504.28> 114.095 30.7803<0 175.62>
LayerCount: 2
Fore
SplineSet
42.8945 536.851 m 5
 42.8945 259.4 l 5
 68.2451 298.32 99.3848 340.99 120.975 339.13 c 4
 132.175 338.16 140.815 325.19 144.725 293.47 c 5
 118.775 231.2 l 5
 134.275 229.96 144.725 213.16 144.725 185.33 c 6
 144.875 -32.5801 l 5
 114.095 0 l 5
 114.095 91.9102 119.785 162.59 100.785 174.601 c 4
 90.4453 181.13 72.7852 170.271 42.8945 135.95 c 5
 42.8945 0 l 5
 12.125 0 l 5
 12.125 504.28 l 5
 42.8945 536.851 l 5
91.7549 294.28 m 4
 76.4248 293.45 56.4453 265.01 42.8945 243.92 c 5
 42.8945 151.45 l 5
 65.5752 186.26 92.8652 224.07 113.825 230.33 c 5
 112.686 279.01 103.615 294.92 91.7549 294.28 c 4
91.7549 294.28 m 4
EndSplineSet
Validated: 33
EndChar

StartChar: l
Encoding: 108 108 56
Width: 157
VWidth: 0
Flags: W
HStem: 516.851 20G<24.0793 42.9785>
VStem: 12.2002 30.75<-23.3084 504.28> 114.03 30.7695<-80.9213 -65.3646>
LayerCount: 2
Fore
SplineSet
42.9795 536.851 m 1
 42.9502 -32.5996 l 1
 57.4697 -55.2002 79.3906 -86.25 95.0498 -82.7002 c 0
 106.102 -80.1904 114.03 -60.4404 114.03 -8.2998 c 1
 144.8 -82.1699 l 1
 140.12 -120.16 128.659 -131.25 114.12 -127.04 c 0
 81.9092 -117.71 34.5791 -33.3496 12.2002 0 c 1
 12.2002 504.28 l 1
 42.9795 536.851 l 1
42.9795 536.851 m 0
EndSplineSet
Validated: 33
EndChar

StartChar: m
Encoding: 109 109 57
Width: 260
VWidth: 0
Flags: W
HStem: 0 21G<12.7246 43.5059 114.555 145.335 216.506 247.275> 313.819 20G<26.6797 51.5449>
VStem: 12.7246 30.7812<0 286.827> 114.555 30.7695<0 229.85 238.55 238.55> 216.506 30.7695<0 286.827>
LayerCount: 2
Fore
SplineSet
12.7246 288.12 m 2
 12.7246 301.18 14.9844 333.819 38.375 333.819 c 0
 64.7148 333.02 103.734 271.45 130.006 229.85 c 1
 156.295 271.5 195.385 333.17 221.725 333.819 c 0
 233.805 334.12 247.275 321.54 247.275 288.12 c 2
 247.275 0 l 1
 216.506 0 l 1
 216.506 214.25 l 2
 216.506 271.34 206.994 289.61 194.305 288.92 c 0
 178.975 288.08 158.994 259.63 145.455 238.55 c 1
 145.324 0 l 1
 114.555 0 l 1
 114.555 238.55 l 1
 101.006 259.63 81.0254 288.08 65.7051 288.92 c 0
 53.0059 289.61 43.5059 271.34 43.5059 214.25 c 2
 43.5059 0 l 1
 12.7246 0 l 1
 12.7246 288.12 l 2
12.7246 288.12 m 0
EndSplineSet
Validated: 33
EndChar

StartChar: n
Encoding: 110 110 58
Width: 157
VWidth: 0
Flags: W
HStem: 0 21G<12.2002 42.9795 114.028 144.8>
VStem: 12.2002 30.7793<0 228.371> 114.028 30.7715<0 286.822>
LayerCount: 2
Fore
SplineSet
119.249 333.811 m 4
 131.329 334.11 144.8 320.54 144.8 288.11 c 6
 144.8 0 l 5
 114.028 0 l 5
 114.028 214.24 l 6
 114.028 271.341 104.528 289.61 91.8291 288.91 c 4
 76.499 288.08 56.5195 259.63 42.9795 238.54 c 5
 42.9795 0 l 5
 12.2002 0 l 5
 12.2002 205.96 l 5
 35.8105 241.13 87.1592 333.021 119.249 333.811 c 4
119.249 333.811 m 4
EndSplineSet
Validated: 33
EndChar

StartChar: o
Encoding: 111 111 59
Width: 156
VWidth: 0
Flags: W
VStem: 11.6992 30.7734<48.3923 229.576> 113.523 30.7773<106.691 276.007>
LayerCount: 2
Fore
SplineSet
11.6992 209.082 m 1
 39.0156 250.324 143.844 416.125 144.301 291.23 c 1
 144.227 291.031 l 1
 144.301 291.031 l 1
 144.301 129.176 l 1
 111.812 80.7812 11.6992 -76.3438 11.6992 47 c 1
 11.8242 47.3008 l 1
 11.6992 47.3008 l 1
 11.6992 209.082 l 1
113.523 217.355 m 2
 113.188 270.035 90.3281 321.18 42.4727 241.656 c 1
 42.4727 120.875 l 2
 42.4727 -5.13281 88.7578 58.0195 113.523 96.582 c 1
 113.523 217.355 l 2
113.523 217.355 m 0
EndSplineSet
Validated: 33
EndChar

StartChar: p
Encoding: 112 112 60
Width: 157
VWidth: 0
Flags: W
HStem: -201.359 21G<24.0744 42.9746> 290.59 44.9004<27.3408 70.6596>
VStem: 12.1953 30.7793<-168.789 288.988> 114.025 30.7793<47.0012 230.051>
LayerCount: 2
Fore
SplineSet
12.1953 289.79 m 2
 12.1953 297.101 16.9258 335.49 37.7559 335.49 c 0
 69.8457 334.7 121.195 242.811 144.805 207.641 c 1
 144.805 45.6904 l 2
 144.805 13.7598 131.926 0.520508 120.406 0 c 0
 98.8457 -0.969727 68.0645 41.25 42.9746 79.79 c 1
 42.9746 -201.359 l 1
 12.1953 -168.789 l 1
 12.1953 289.79 l 2
65.1758 290.59 m 0
 39.8848 290.59 43.1445 243.53 42.9746 215.91 c 2
 42.9746 95.2705 l 1
 56.5254 74.1807 76.5059 45.75 91.8262 44.9102 c 0
 104.525 44.2207 114.025 62.4707 114.025 119.57 c 2
 114.025 240.211 l 1
 100.484 261.301 80.5059 289.75 65.1758 290.59 c 0
65.1758 290.59 m 0
EndSplineSet
Validated: 33
EndChar

StartChar: q
Encoding: 113 113 61
Width: 157
VWidth: 0
Flags: W
HStem: 290.59 44.9004<86.3404 129.659>
VStem: 12.1953 30.7793<47.0012 119.57 207.641 230.051> 114.025 30.7793<79.79 95.2705 215.91 288.988>
LayerCount: 2
Fore
SplineSet
144.805 289.79 m 2
 144.805 297.101 140.074 335.49 119.244 335.49 c 0
 87.1543 334.7 35.8047 242.811 12.1953 207.641 c 1
 12.1953 45.6904 l 2
 12.1953 13.7598 25.0742 0.520508 36.5938 0 c 0
 58.1543 -0.969727 88.9355 41.25 114.025 79.79 c 1
 114.025 -201.359 l 1
 144.805 -168.789 l 1
 144.805 289.79 l 2
91.8242 290.59 m 0
 117.115 290.59 113.855 243.53 114.025 215.91 c 2
 114.025 95.2705 l 1
 100.475 74.1807 80.4941 45.75 65.1738 44.9102 c 0
 52.4746 44.2207 42.9746 62.4707 42.9746 119.57 c 2
 42.9746 240.211 l 1
 56.5156 261.301 76.4941 289.75 91.8242 290.59 c 0
91.8242 290.59 m 0
EndSplineSet
Validated: 41
EndChar

StartChar: r
Encoding: 114 114 62
Width: 156
VWidth: 0
Flags: W
HStem: 0 21G<11.7002 42.4795> 289.5 44.8906<86.2634 108.79>
VStem: 11.7002 30.7793<0 228.931> 113.53 30.7695<271.882 287.362>
LayerCount: 2
Fore
SplineSet
11.7002 206.529 m 1
 35.29 241.689 86.6006 333.51 118.71 334.391 c 0
 130.811 334.721 140.181 322.119 144.3 288.689 c 1
 113.53 214.811 l 1
 113.53 270.73 104.409 289.4 92.1104 289.5 c 0
 76.6895 289.619 56.25 260.561 42.4795 239.119 c 1
 42.4795 0 l 1
 11.7002 0 l 1
 11.7002 206.529 l 1
11.7002 206.529 m 0
EndSplineSet
Validated: 33
EndChar

StartChar: s
Encoding: 115 115 63
Width: 157
VWidth: 0
Flags: W
VStem: 11.3154 30.7715<0.84317 16.4168 178.461 240.649> 113.137 30.7793<58.7498 178.539 283.608 299.02>
LayerCount: 2
Fore
SplineSet
118.366 346.11 m 4
 130.446 346.41 139.797 333.801 143.916 300.41 c 5
 113.137 226.53 l 5
 113.137 352.551 66.8564 289.391 42.0869 250.83 c 5
 42.0869 178.461 l 5
 96.3965 193.011 122.767 196.24 135.206 186.83 c 4
 151.517 174.511 143.916 140.48 143.916 81.7607 c 5
 119.767 45.7803 66.5654 -49.5791 34.6768 -46 c 4
 23.6562 -44.7598 15.1768 -31.7295 11.3154 -0.389648 c 5
 42.0869 73.4902 l 5
 42.0869 23.1104 49.4854 2.96094 59.9463 -0.609375 c 4
 75.6562 -5.97949 98.2764 26.0205 113.137 49.1602 c 5
 118.156 138.58 117.456 177.351 94.9062 179.5 c 4
 79.2969 180.98 53.2168 164.921 11.3154 135.961 c 5
 11.3154 218.24 l 5
 34.916 253.4 86.2666 345.32 118.366 346.11 c 4
118.366 346.11 m 4
EndSplineSet
Validated: 33
EndChar

StartChar: t
Encoding: 116 116 64
Width: 156
VWidth: 0
Flags: W
VStem: 11.7051 30.7695<103.879 471.67> 113.525 30.7695<45.9793 61.6557 304.523 320.166>
LayerCount: 2
Fore
SplineSet
42.4746 504.25 m 1
 42.4746 287.25 l 1
 68.7148 327.54 101.154 371.84 122.785 366.61 c 0
 132.904 364.17 140.654 350.89 144.295 321.33 c 1
 113.525 247.45 l 1
 113.525 301.771 104.926 320.94 93.1543 322.09 c 0
 77.625 323.601 56.5645 293.71 42.4746 271.771 c 1
 42.4746 94.4004 l 5
 56.5449 72.4902 77.5742 42.6396 93.0957 44.0801 c 4
 104.896 45.1699 113.525 64.3203 113.525 118.72 c 5
 144.295 44.8506 l 5
 140.475 13.8799 132.154 0.790039 121.336 -0.709961 c 4
 89.4746 -5.12012 35.9453 90.8701 11.7051 127 c 5
 11.7051 471.67 l 1
 42.4746 504.25 l 1
42.4746 504.25 m 0
EndSplineSet
Validated: 33
EndChar

StartChar: u
Encoding: 117 117 65
Width: 158
VWidth: 0
Flags: W
HStem: 0 21G<114.529 145.301> 313.83 20G<12.6992 43.4805 114.529 145.301>
VStem: 12.6992 30.7812<46.9931 333.83> 114.529 30.7715<0 333.83>
LayerCount: 2
Fore
SplineSet
12.6992 333.83 m 1
 43.4805 333.83 l 1
 43.4805 119.58 l 2
 43.4805 62.4805 52.9805 44.21 65.6807 44.9004 c 0
 81 45.7402 100.99 74.2002 114.529 95.2803 c 1
 114.529 333.83 l 1
 145.301 333.83 l 1
 145.301 0 l 1
 114.529 0 l 1
 114.529 79.7998 l 1
 89.8789 41.9502 59.75 0.530273 38.25 0 c 0
 26.1699 -0.290039 12.6992 12.8701 12.6992 45.7002 c 2
 12.6992 333.83 l 1
12.6992 333.83 m 0
EndSplineSet
Validated: 33
EndChar

StartChar: v
Encoding: 118 118 66
Width: 157
VWidth: 0
Flags: W
HStem: 313.81 20G<12.2051 42.9766 114.025 144.795>
VStem: 12.2051 30.7715<46.9931 333.81> 114.025 30.7695<105.439 333.81>
LayerCount: 2
Fore
SplineSet
37.7451 0 m 4
 25.6758 -0.299805 16.3154 12.3096 12.2051 45.7002 c 5
 12.2754 45.9004 l 5
 12.2051 45.9004 l 5
 12.2051 333.81 l 5
 42.9766 333.81 l 5
 42.9766 119.58 l 6
 42.9766 62.4805 52.4766 44.21 65.1758 44.9004 c 4
 80.5059 45.7305 100.477 74.1895 114.025 95.2793 c 5
 114.025 333.81 l 5
 144.795 333.81 l 5
 144.795 127.85 l 5
 121.195 92.6797 69.8457 0.790039 37.7451 0 c 4
37.7451 0 m 4
EndSplineSet
Validated: 33
EndChar

StartChar: w
Encoding: 119 119 67
Width: 260
VWidth: 0
Flags: W
HStem: 0 21G<26.6797 51.5449> 313.82 20G<12.7256 43.4941 114.545 145.334 216.494 247.275>
VStem: 12.7256 30.7686<46.9925 333.82> 114.545 30.7793<103.971 333.82> 216.494 30.7812<46.9925 333.82>
LayerCount: 2
Fore
SplineSet
12.7256 45.7012 m 6
 12.7256 333.82 l 5
 43.4941 333.82 l 5
 43.4941 119.57 l 6
 43.4941 62.4707 53.0059 44.2109 65.6953 44.9004 c 4
 81.0254 45.7402 101.006 74.1914 114.545 95.2715 c 5
 114.545 333.82 l 5
 145.324 333.82 l 5
 145.445 95.2715 l 5
 158.994 74.1914 178.975 45.7402 194.295 44.9004 c 4
 206.994 44.2109 216.494 62.4707 216.494 119.57 c 6
 216.494 333.82 l 5
 247.275 333.82 l 5
 247.275 45.7012 l 6
 247.275 12.2812 233.805 -0.298828 221.725 0 c 4
 195.385 0.640625 156.295 62.3203 129.994 103.971 c 5
 103.734 62.3711 64.7148 0.800781 38.375 0 c 4
 14.9844 0 12.7256 32.6406 12.7256 45.7012 c 6
12.7256 45.7012 m 4
EndSplineSet
Validated: 33
EndChar

StartChar: x
Encoding: 120 120 68
Width: 257
VWidth: 0
Flags: W
HStem: 148.131 30.9492<62.1396 113.11 143.89 194.86> 289.6 44.9297<187.47 210.186>
VStem: 11.29 30.7803<46.8168 62.5026 272.001 287.695> 113.11 30.7793<95.2812 148.131 179.08 230.631 239.23 239.23> 214.94 30.7695<46.9902 62.5085>
LayerCount: 2
Fore
SplineSet
220.74 334.529 m 4
 237.91 334.32 245.71 304.15 245.71 288.801 c 5
 214.94 214.93 l 5
 214.94 270.93 205.79 289.57 193.46 289.6 c 4
 178.05 289.66 157.65 260.65 143.89 239.23 c 5
 143.89 179.08 l 5
 203.61 179.08 l 5
 194.86 163.631 l 5
 203.61 148.131 l 5
 143.89 148.131 l 5
 143.89 95.2812 l 5
 157.65 73.8613 178.05 44.8301 193.46 44.8809 c 4
 205.79 44.9199 214.94 63.5801 214.94 119.58 c 5
 245.71 45.7012 l 5
 241.95 15.1816 233.83 2.02148 223.24 0.201172 c 4
 197.06 -4.2793 155.851 60.5801 128.511 103.881 c 5
 101.87 61.6816 62.0703 -0.978516 35.8203 0 c 4
 24.2305 0.441406 15.29 13.2715 11.29 45.7012 c 5
 42.0703 119.58 l 5
 42.0703 69.7305 49.3203 49.4805 59.6104 45.6016 c 4
 75.3301 39.6914 98.1504 71.9805 113.11 95.2812 c 5
 113.11 148.131 l 5
 53.3896 148.131 l 5
 62.1396 163.631 l 5
 53.3896 179.08 l 5
 113.11 179.08 l 5
 113.11 239.23 l 5
 98.1504 262.529 75.3301 294.82 59.6104 288.91 c 4
 49.3203 285.029 42.0703 264.779 42.0703 214.93 c 5
 11.29 288.801 l 5
 15.29 321.24 24.2305 334.07 35.8203 334.5 c 4
 62.0703 335.49 101.87 272.83 128.511 230.631 c 5
 154.99 272.57 194.49 334.77 220.74 334.529 c 4
220.74 334.529 m 4
EndSplineSet
Validated: 33
EndChar

StartChar: y
Encoding: 121 121 69
Width: 158
VWidth: 0
Flags: W
HStem: 314.58 19.9297G<12.7002 43.4805 114.55 145.3>
VStem: 12.7002 30.7803<-131.231 -115.571 49.802 334.51> 114.55 30.75<-72.9772 334.58>
LayerCount: 2
Fore
SplineSet
114.55 334.58 m 1
 145.3 334.58 l 1
 145.3 -50.2002 l 1
 121.36 -85.8604 68.8916 -179.89 36.9004 -178.05 c 0
 25.4805 -177.4 16.6709 -164.521 12.7002 -132.37 c 1
 43.4805 -58.5 l 1
 43.4805 -112.9 52.1104 -132.04 63.9102 -133.13 c 0
 79.4404 -134.57 100.48 -104.71 114.55 -82.7998 c 1
 114.55 79.7803 l 1
 89.9004 41.9199 59.75 0.530273 38.25 0 c 0
 26.1709 -0.299805 16.8203 12.3096 12.7002 45.7002 c 1
 12.7002 334.51 l 1
 43.4805 334.51 l 1
 43.4805 119.58 l 2
 43.4805 78.7598 48.3408 57.79 55.75 49.3994 c 0
 71.2197 31.8994 97.8115 69.21 114.55 95.2803 c 1
 114.55 334.58 l 1
114.55 334.58 m 0
EndSplineSet
Validated: 33
EndChar

StartChar: z
Encoding: 122 122 70
Width: 157
VWidth: 0
Flags: W
VStem: 13.083 30.7783<59.1395 178.933 283.998 299.411> 114.913 30.7695<1.23282 16.8077 178.851 241.04>
LayerCount: 2
Fore
SplineSet
38.6328 346.5 m 4
 70.7314 345.721 122.083 253.791 145.683 218.631 c 5
 145.683 136.351 l 5
 103.779 165.311 77.7021 181.37 62.0928 179.89 c 4
 39.542 177.749 38.8428 138.971 43.8613 49.5508 c 5
 58.7227 26.4102 81.3428 -5.58984 97.0527 -0.219727 c 4
 107.513 3.35059 114.913 23.5 114.913 73.8809 c 5
 145.683 0 l 5
 141.819 -31.3398 133.343 -44.3691 122.333 -45.6094 c 4
 90.4229 -49.1895 37.2314 46.1699 13.083 82.1504 c 5
 13.083 140.87 5.49219 174.9 21.792 187.229 c 4
 34.2314 196.64 60.6025 193.399 114.913 178.851 c 5
 114.913 251.23 l 5
 90.1426 289.781 43.8613 352.941 43.8613 226.92 c 5
 13.083 300.801 l 5
 17.2021 334.201 26.5527 346.801 38.6328 346.5 c 4
38.6328 346.5 m 4
EndSplineSet
Validated: 33
EndChar

StartChar: braceleft
Encoding: 123 123 71
Width: 195
VWidth: 0
Flags: W
HStem: -32 31.1758<144.699 183.471> 334.801 31.2266<144.779 183.471>
VStem: 11.5293 30.7715<129.402 185.602> 114.551 68.9199<-32 -0.824219 334.801 365.949> 114.631 30.1484<-0.824219 129.315 186.391 334.801>
LayerCount: 2
Fore
SplineSet
114.631 366.027 m 5xe8
 183.471 365.949 l 5
 183.471 334.801 l 5xf0
 144.779 334.801 l 5
 144.779 233.875 l 2xe8
 144.779 201.738 144.891 182.656 131.23 175.352 c 0
 118.18 168.371 92.5801 172.129 42.3008 185.602 c 1
 42.3008 129.402 l 1
 100.221 144.921 125.391 147.606 136.33 135.774 c 0
 145.141 126.242 144.699 107.281 144.699 78.0781 c 2
 144.699 -0.824219 l 1
 183.471 -0.824219 l 1
 183.471 -32 l 1
 114.551 -32 l 1
 114.551 79.4766 l 2xf0
 114.551 111.156 109.949 127.039 97.7793 130.027 c 0
 82.6504 133.735 55.8301 117.516 11.5293 86.8994 c 1
 11.5293 228.102 l 1
 55.8906 197.45 82.041 181.266 96.9004 185.027 c 0
 110.449 188.453 114.631 208.45 114.631 249.25 c 2
 114.631 366.027 l 5xe8
EndSplineSet
Validated: 33
EndChar

StartChar: bar
Encoding: 124 124 72
Width: 56
VWidth: 0
Flags: W
HStem: 0 21G<12.5234 27.9766 27.9766 43.4766>
VStem: 12.5234 30.9531
LayerCount: 2
Fore
SplineSet
12.5234 0 m 5
 12.5234 214.228 l 5
 27.9766 205.478 l 5
 43.4766 214.228 l 5
 43.4766 0 l 5
 27.9766 8.75 l 5
 12.5234 0 l 5
12.5234 275.379 m 5
 12.5234 553.604 l 5
 27.9766 544.854 l 5
 43.4766 553.604 l 5
 43.4766 275.379 l 5
 27.9766 284.125 l 5
 12.5234 275.379 l 5
EndSplineSet
Validated: 1
EndChar

StartChar: braceright
Encoding: 125 125 73
Width: 195
VWidth: 0
Flags: W
VStem: 50.2207 30.1484<78.0781 129.315 186.391 249.25>
LayerCount: 2
Fore
SplineSet
80.3691 366.027 m 5
 11.5293 365.949 l 5
 11.5293 334.801 l 5
 50.2207 334.801 l 5
 50.2207 233.875 l 2
 50.2207 201.738 50.1094 182.656 63.7695 175.352 c 0
 76.8203 168.371 102.42 172.129 152.699 185.602 c 1
 152.699 129.402 l 1
 94.7793 144.921 69.6094 147.606 58.6699 135.774 c 0
 49.8594 126.242 50.3008 107.281 50.3008 78.0781 c 2
 50.3008 -0.824219 l 1
 11.5293 -0.824219 l 1
 11.5293 -32 l 1
 80.4492 -32 l 1
 80.4492 79.4766 l 2
 80.4492 111.156 85.0508 127.039 97.2207 130.027 c 0
 112.35 133.735 139.17 117.516 183.471 86.8994 c 1
 183.471 228.102 l 1
 139.109 197.45 112.959 181.266 98.0996 185.027 c 0
 84.5508 188.453 80.3691 208.45 80.3691 249.25 c 2
 80.3691 366.027 l 5
EndSplineSet
Validated: 41
EndChar

StartChar: asciitilde
Encoding: 126 126 74
Width: 257
VWidth: 0
Flags: W
HStem: 240.621 222.707 343.777 21G<214.859 223.196>
VStem: 11.3594 30.7812<289.214 302.756> 214.859 30.7812<400.833 416.63>
LayerCount: 2
Fore
SplineSet
220.09 463.328 m 4xb0
 232.17 463.328 241.521 451.018 245.641 417.627 c 5
 214.859 343.777 l 5x70
 214.859 394.816 207.271 414.807 196.59 417.977 c 4
 180.898 422.646 158.551 391.018 143.818 368.078 c 4
 119.238 331.467 64.6699 233.363 33.0293 240.621 c 4
 22.8398 242.961 15.0293 256.215 11.3594 285.957 c 5
 42.1406 359.828 l 5
 42.1406 317.637 47.3301 296.646 55.1602 288.838 c 4
 70.7207 273.328 96.7207 309.838 113.189 335.477 c 4
 136.789 370.646 187.988 462.537 220.09 463.328 c 4xb0
EndSplineSet
Validated: 33
EndChar

StartChar: cent
Encoding: 162 162 75
Width: 156
VWidth: 0
Flags: W
HStem: 516.354 20G<67.5806 86.4697>
VStem: 11.7002 30.7695<107.123 396.665> 55.7002 30.7695<0 23.875 49.1025 454.674 479.924 503.774> 113.53 30.7695<49.8596 65.6072 438.169 453.921>
LayerCount: 2
Fore
SplineSet
86.4697 536.354 m 1
 86.4697 479.924 l 1
 98.1016 492.254 109.271 500.444 118.75 500.674 c 0
 130.82 500.975 140.182 488.364 144.3 454.975 c 1
 113.53 381.104 l 1
 113.53 445.264 101.521 460.385 86.4697 454.674 c 1
 86.4697 49.1025 l 1
 101.521 43.4023 113.53 58.5117 113.53 122.676 c 1
 144.3 48.8008 l 1
 136.95 -10.8047 112.92 -4.15137 86.4697 23.875 c 1
 86.4697 -32.5742 l 1
 55.7002 0 l 1
 55.7002 63.1523 l 1
 38.2998 88.293 22.2305 115.262 11.7002 130.949 c 1
 11.7002 372.824 l 1
 22.2305 388.524 38.29 415.504 55.7002 440.654 c 1
 55.7002 503.774 l 1
 86.4697 536.354 l 1
55.7002 424.874 m 1
 50.9316 418.344 46.4199 411.555 42.4697 405.404 c 1
 42.4697 98.3525 l 1
 46.4199 92.1992 50.9316 85.4346 55.7002 78.8994 c 1
 55.7002 424.874 l 1
55.7002 424.874 m 0
EndSplineSet
Validated: 33
EndChar

StartChar: copyright
Encoding: 169 169 76
Width: 349
VWidth: 0
Flags: W
HStem: 427.645 44.8945<182.802 205.312>
VStem: 12.1992 30.7744<23.5818 517.656> 108.199 30.7744<220.787 367.098> 210.023 30.7773<162.512 178.264 410.038 425.806> 306.023 30.7773<72.7413 556.5>
LayerCount: 2
Fore
SplineSet
215.25 472.539 m 4
 227.328 472.836 236.681 460.23 240.801 426.841 c 5
 210.023 352.961 l 5
 210.023 408.727 200.961 427.445 188.711 427.645 c 4
 173.273 427.895 152.781 398.759 138.974 377.263 c 5
 138.974 211.013 l 5
 152.797 189.496 173.316 160.324 188.758 160.648 c 4
 200.984 160.902 210.023 179.648 210.023 235.341 c 5
 240.801 161.461 l 5
 236.855 129.496 228.117 116.578 216.781 115.793 c 4
 184.812 113.578 132.181 207.884 108.199 243.613 c 5
 108.199 344.688 l 5
 131.801 379.855 183.152 471.75 215.25 472.539 c 4
215.25 472.539 m 4
12.1992 490.348 m 6
 12.1992 553.156 336.801 711.824 336.801 588.523 c 6
 336.801 98.1768 l 6
 336.801 42.3242 12.1992 -126.32 12.1992 0 c 6
 12.1992 490.348 l 6
306.023 514.648 m 5
 303.32 628.555 106.949 576.273 42.9736 522.949 c 5
 42.9736 73.875 l 6
 42.9736 -69.1094 273.121 32.6719 306.023 65.5742 c 5
 306.023 514.648 l 5
306.023 514.648 m 4
EndSplineSet
Validated: 33
EndChar

StartChar: guillemotleft
Encoding: 171 171 77
Width: 309
VWidth: 0
Flags: W
HStem: 107.514 314.799
VStem: 11.4746 30.7812<236.809 293.014> 114.506 30.1602<140.109 236.524 293.776 389.713> 164.274 30.7803<236.809 293.014> 267.305 30.1602<140.109 236.524 293.776 389.713>
LayerCount: 2
Fore
SplineSet
114.565 422.312 m 5
 144.725 389.713 l 5
 144.725 341.285 l 6
 144.725 278.459 145.186 265.432 42.2559 293.014 c 5
 42.2559 236.809 l 5
 146.836 264.834 144.666 250.938 144.666 185.488 c 6
 144.666 140.109 l 5
 114.506 107.514 l 5
 114.506 186.877 l 6
 114.506 257.898 91.4551 249.578 11.4746 194.312 c 5
 11.4746 335.514 l 5
 96.2744 276.91 114.565 271.117 114.565 356.674 c 6
 114.565 422.312 l 5
267.375 422.312 m 5
 297.525 389.713 l 5
 297.525 341.285 l 6
 297.525 278.459 297.986 265.432 195.055 293.014 c 5
 195.055 236.809 l 5
 299.635 264.834 297.465 250.938 297.465 185.488 c 6
 297.465 140.109 l 5
 267.305 107.514 l 5
 267.305 186.877 l 6
 267.305 257.898 244.256 249.578 164.274 194.312 c 5
 164.274 335.514 l 5
 249.075 276.91 267.375 271.117 267.375 356.674 c 6
 267.375 422.312 l 5
EndSplineSet
Validated: 33
EndChar

StartChar: registered
Encoding: 174 174 78
Width: 349
VWidth: 0
Flags: W
HStem: 426.363 46.25<143.78 159.73>
VStem: 12.1992 30.7783<23.5818 517.656> 108.125 30.7773<115.684 236.392 273.653 423.745> 209.398 30.7773<115.684 178.269 287.188 368.215> 306.023 30.7773<72.7407 556.5>
LayerCount: 2
Fore
SplineSet
126.398 472.613 m 4
 156.883 472.859 217.379 379.973 240.875 346.438 c 5
 240.875 287.188 l 5
 240.75 287.188 l 5
 240.875 286.887 l 5
 237.297 257.875 229.771 244.555 219.935 241.752 c 4
 198.267 235.586 165.396 280.508 138.902 321.215 c 5
 138.902 281.965 l 5
 171.09 271.75 217.938 188.27 240.176 155.137 c 5
 240.176 115.684 l 5
 209.398 115.684 l 5
 209.398 187.715 l 5
 195.535 209.297 174.931 238.582 159.478 238.078 c 4
 149.082 237.738 141.021 223.934 138.902 185.262 c 5
 138.902 115.684 l 5
 108.125 115.684 l 5
 108.273 428.387 l 5
 108.324 428.387 l 5
 108.273 428.59 l 5
 108.273 460.266 115.375 472.523 126.398 472.613 c 4
161.978 426.363 m 4
 147.465 426.844 139.271 404.023 139.051 354.715 c 6
 139.051 336.465 l 5
 153.75 313.582 176.027 276.398 191.711 276.293 c 4
 202.453 276.219 210.103 293.539 210.103 344.762 c 6
 210.103 379.016 l 5
 187.246 409.289 173.996 425.965 161.978 426.363 c 4
161.978 426.363 m 4
12.1992 490.348 m 6
 12.1992 553.156 336.801 711.824 336.801 588.523 c 6
 336.801 98.1758 l 6
 336.801 42.3242 12.1992 -126.32 12.1992 0 c 6
 12.1992 490.348 l 6
306.023 514.648 m 5
 303.32 628.555 106.949 576.273 42.9775 522.949 c 5
 42.9775 73.875 l 6
 42.9736 -69.1094 273.125 32.6719 306.023 65.5742 c 5
 306.023 514.648 l 5
306.023 514.648 m 4
EndSplineSet
Validated: 33
EndChar

StartChar: degree
Encoding: 176 176 79
Width: 125
VWidth: 0
Flags: W
HStem: 495.279 44.875<54.5734 93.9302>
VStem: 11.7646 30.6006<332.666 481.788> 82.6348 30.7803<343.213 493.323>
LayerCount: 2
Fore
SplineSet
60.835 495.279 m 4
 55.1553 495.279 48.7949 491.111 42.3652 485.029 c 5
 42.3652 402.654 l 6
 42.7646 322.943 62.2754 321.463 82.6348 340.729 c 5
 82.6348 424.33 l 6
 82.2246 477.904 73.0635 495.279 60.835 495.279 c 4
87.915 540.154 m 4
 99.9453 540.154 109.265 527.854 113.385 494.627 c 5
 113.415 365.354 l 5
 75.0947 306.51 23.5352 239.135 11.7646 330.029 c 5
 11.585 460.404 l 5
 36.2549 498.279 66.415 539.682 87.915 540.154 c 4
EndSplineSet
Validated: 33
EndChar

StartChar: acute
Encoding: 180 180 80
Width: 129
VWidth: 0
Flags: W
LayerCount: 2
Fore
SplineSet
13.5898 636.549 m 1
 38.3496 597.988 84.6406 534.859 84.6406 660.869 c 1
 115.41 586.998 l 1
 103.97 494.176 52.0898 561.949 13.5898 621.068 c 1
 13.5898 636.549 l 1
EndSplineSet
Validated: 33
EndChar

StartChar: paragraph
Encoding: 182 182 81
Width: 257
VWidth: 0
Flags: W
VStem: 11.2754 132.6<114.684 208.211 242.311 470.993> 113.125 30.75<0.436025 242.311> 214.945 30.7793<58.6003 534.51>
LayerCount: 2
Fore
SplineSet
214.795 534.51 m 5x60
 245.574 567.111 l 5
 245.725 80.0234 l 5
 220.795 42.8711 156.006 -58.1484 127.244 -47.4453 c 4
 118.535 -44.207 113.125 -30.7568 113.125 -2.17969 c 6x60
 113.096 242.311 l 5
 74.5957 183.184 11.2754 114.684 11.2754 208.211 c 6
 11.2754 438.82 l 5xa0
 34.875 473.99 86.2246 565.881 118.324 566.67 c 4
 130.404 566.971 139.756 554.371 143.875 520.971 c 5
 143.875 520.77 l 5
 143.875 71.75 l 6
 143.875 24.0156 150.545 4.15625 160.135 0 c 4
 175.875 -6.82031 199.564 28.5898 214.945 52.5391 c 5
 214.795 534.51 l 5x60
EndSplineSet
Validated: 33
EndChar

StartChar: guillemotright
Encoding: 187 187 82
Width: 309
VWidth: 0
Flags: W
VStem: 11.5352 30.1602<185.488 236.524 293.776 356.674> 164.335 30.1602<185.488 236.524 293.776 356.674>
LayerCount: 2
Fore
SplineSet
194.435 422.312 m 5
 164.275 389.713 l 5
 164.275 341.285 l 6
 164.275 278.459 163.814 265.432 266.745 293.014 c 5
 266.745 236.809 l 5
 162.165 264.834 164.335 250.938 164.335 185.488 c 6
 164.335 140.109 l 5
 194.495 107.514 l 5
 194.495 186.877 l 6
 194.495 257.898 217.546 249.578 297.525 194.312 c 5
 297.525 335.514 l 5
 212.726 276.91 194.435 271.117 194.435 356.674 c 6
 194.435 422.312 l 5
41.626 422.312 m 5
 11.4756 389.713 l 5
 11.4756 341.285 l 6
 11.4756 278.459 11.0146 265.432 113.945 293.014 c 5
 113.945 236.809 l 5
 9.36523 264.834 11.5352 250.938 11.5352 185.488 c 6
 11.5352 140.109 l 5
 41.6953 107.514 l 5
 41.6953 186.877 l 6
 41.6953 257.898 64.7441 249.578 144.726 194.312 c 5
 144.726 335.514 l 5
 59.9248 276.91 41.626 271.117 41.626 356.674 c 6
 41.626 422.312 l 5
EndSplineSet
Validated: 41
EndChar

StartChar: Agrave
Encoding: 192 192 83
Width: 158
VWidth: 0
Flags: W
HStem: 0 21G<12.6992 43.5234 114.523 145.301> 494.652 44.8984<87.3013 109.881>
VStem: 12.6992 30.8242<0 233.111 271.194 434.109> 114.523 30.7773<0 492.698>
LayerCount: 2
Fore
SplineSet
129.91 650.644 m 5
 129.91 635.168 l 5
 91.4062 576.047 39.5312 508.273 28.0859 601.094 c 5
 58.8594 674.969 l 5
 58.8594 548.957 105.145 612.09 129.91 650.644 c 5
129.91 650.644 m 4
119.75 539.551 m 4
 131.828 539.848 141.184 527.238 145.301 493.851 c 5
 145.227 493.652 l 5
 145.301 493.652 l 5
 145.301 0 l 5
 114.523 0 l 5
 114.523 185.101 l 5
 89.7344 223.668 43.5234 286.5 43.5234 160.652 c 6
 43.5234 0 l 5
 12.6992 0 l 5
 12.6992 411.699 l 5
 36.2969 446.867 87.6523 538.762 119.75 539.551 c 4
93.5 494.676 m 4
 93.1094 494.691 92.7227 494.676 92.3242 494.652 c 4
 77 493.816 57.0703 465.359 43.5234 444.277 c 5
 43.5234 279.375 l 5
 64.4883 273.305 91.793 235.461 114.523 200.574 c 5
 114.523 419.976 l 6
 114.523 475.289 105.602 494.18 93.5 494.676 c 4
93.5 494.676 m 4
EndSplineSet
Validated: 33
EndChar

StartChar: Aacute
Encoding: 193 193 84
Width: 158
VWidth: 0
Flags: W
HStem: 0 21G<12.6992 43.5234 114.523 145.301> 494.652 44.8984<87.3013 109.881>
VStem: 12.6992 30.8242<0 233.111 271.194 434.109> 114.523 30.7773<0 492.698>
LayerCount: 2
Fore
SplineSet
129.91 650.644 m 5
 129.91 635.168 l 5
 91.4062 576.047 39.5312 508.273 28.0869 601.094 c 5
 58.8594 674.969 l 5
 58.8594 548.957 105.145 612.09 129.91 650.644 c 5
129.91 650.644 m 4
119.75 539.551 m 4
 131.828 539.848 141.184 527.238 145.301 493.851 c 5
 145.227 493.652 l 5
 145.301 493.652 l 5
 145.301 0 l 5
 114.523 0 l 5
 114.523 185.101 l 5
 89.7344 223.668 43.5234 286.5 43.5234 160.652 c 6
 43.5234 0 l 5
 12.6992 0 l 5
 12.6992 411.699 l 5
 36.2969 446.867 87.6523 538.762 119.75 539.551 c 4
93.5 494.676 m 4
 93.1094 494.691 92.7227 494.676 92.3242 494.652 c 4
 77 493.816 57.0703 465.359 43.5234 444.277 c 5
 43.5234 279.375 l 5
 64.4883 273.305 91.793 235.461 114.523 200.574 c 5
 114.523 419.976 l 6
 114.523 475.289 105.602 494.18 93.5 494.676 c 4
93.5 494.676 m 4
EndSplineSet
Validated: 33
EndChar

StartChar: Egrave
Encoding: 200 200 85
Width: 156
VWidth: 0
Flags: W
HStem: 493.972 44.8906<86.3027 108.883>
VStem: 11.7012 30.7734<104.215 433.421> 113.525 30.7734<46.7401 62.2229 271.558 287.138 476.36 491.996>
LayerCount: 2
Fore
SplineSet
128.912 649.464 m 5
 128.912 633.987 l 5
 90.4082 574.866 38.5332 507.093 27.0879 599.914 c 5
 57.8613 673.789 l 5
 57.8613 547.776 104.146 610.909 128.912 649.464 c 5
128.912 649.464 m 4
118.748 538.862 m 4
 130.83 539.159 140.182 526.554 144.299 493.164 c 5
 113.525 419.289 l 5
 113.525 474.608 104.604 493.476 92.498 493.972 c 4
 77.0332 494.604 56.3691 465.241 42.4746 443.612 c 5
 42.4746 254.289 l 5
 69.0176 295.043 101.912 339.914 123.541 333.448 c 4
 133.287 330.534 140.744 317.198 144.299 288.362 c 5
 113.525 214.487 l 5
 113.525 262.401 106.834 282.972 97.1738 287.94 c 4
 81.4355 296.043 57.8223 262.707 42.4746 238.812 c 5
 42.4746 94.9961 l 5
 56.0293 73.8896 76.0332 45.418 91.3652 44.6279 c 4
 104.041 43.9756 113.525 62.2568 113.525 119.296 c 5
 144.299 45.418 l 5
 140.58 15.25 132.584 2.0459 122.166 0 c 4
 90.4199 -6.24316 36.1582 91.1279 11.7012 127.569 c 5
 11.7012 411.011 l 5
 35.3027 446.179 86.6543 538.073 118.748 538.862 c 4
118.748 538.862 m 4
EndSplineSet
Validated: 33
EndChar

StartChar: Eacute
Encoding: 201 201 86
Width: 156
VWidth: 0
Flags: W
HStem: 493.972 44.8916<86.3027 108.883>
VStem: 11.7012 30.7734<104.215 433.421> 113.525 30.7734<46.7401 62.2229 271.559 287.138 476.36 491.996>
LayerCount: 2
Fore
SplineSet
27.0879 649.464 m 5
 51.8535 610.91 98.1387 547.777 98.1387 673.789 c 5
 128.912 599.914 l 5
 117.467 507.093 65.5918 574.867 27.0879 633.988 c 5
 27.0879 649.464 l 5
27.0879 649.464 m 4
118.748 538.863 m 4
 130.83 539.16 140.182 526.554 144.299 493.164 c 5
 113.525 419.289 l 5
 113.525 474.609 104.604 493.477 92.498 493.972 c 4
 77.0332 494.605 56.3691 465.242 42.4746 443.613 c 5
 42.4746 254.289 l 5
 69.0176 295.043 101.912 339.914 123.541 333.449 c 4
 133.287 330.535 140.744 317.199 144.299 288.363 c 5
 113.525 214.488 l 5
 113.525 262.401 106.834 282.972 97.1738 287.941 c 4
 81.4355 296.043 57.8223 262.707 42.4746 238.812 c 5
 42.4746 94.9961 l 5
 56.0293 73.8896 76.0332 45.418 91.3652 44.6279 c 4
 104.041 43.9756 113.525 62.2568 113.525 119.296 c 5
 144.299 45.418 l 5
 140.58 15.25 132.584 2.0459 122.166 0 c 4
 90.4199 -6.24316 36.1582 91.1279 11.7012 127.57 c 5
 11.7012 411.011 l 5
 35.3027 446.179 86.6543 538.074 118.748 538.863 c 4
118.748 538.863 m 4
EndSplineSet
Validated: 33
EndChar

StartChar: Igrave
Encoding: 204 204 87
Width: 125
VWidth: 0
Flags: W
HStem: 0 21G<47.1113 77.8848> 519.449 20G<58.9949 77.8848>
VStem: 47.1113 30.7734<0 506.867>
LayerCount: 2
Fore
SplineSet
47.1113 506.867 m 5
 77.8848 539.449 l 5
 77.8848 0 l 5
 47.1113 0 l 5
 47.1113 506.867 l 5
47.1113 506.867 m 4
113.412 649.464 m 5
 113.412 633.988 l 5
 74.9082 574.867 23.0332 507.093 11.5879 599.914 c 5
 42.3574 673.789 l 5
 42.3574 547.777 88.6475 610.91 113.412 649.464 c 5
113.412 649.464 m 4
EndSplineSet
Validated: 33
EndChar

StartChar: Iacute
Encoding: 205 205 88
Width: 125
VWidth: 0
Flags: W
HStem: 0 21G<47.1152 77.8887> 519.449 20G<58.9989 77.8887>
VStem: 47.1152 30.7734<0 506.867>
LayerCount: 2
Fore
SplineSet
11.5879 649.464 m 5
 36.3535 610.91 82.6387 547.777 82.6387 673.789 c 5
 113.412 599.914 l 5
 101.967 507.093 50.0918 574.867 11.5879 633.988 c 5
 11.5879 649.464 l 5
11.5879 649.464 m 4
47.1152 506.867 m 5
 77.8887 539.449 l 5
 77.8887 0 l 5
 47.1152 0 l 5
 47.1152 506.867 l 5
47.1152 506.867 m 4
EndSplineSet
Validated: 33
EndChar

StartChar: Ograve
Encoding: 210 210 89
Width: 157
VWidth: 0
Flags: W
VStem: 12.1992 30.7773<49.119 433.059> 114.027 30.7734<106.001 478.761>
LayerCount: 2
Fore
SplineSet
129.414 650.531 m 5
 129.414 635.055 l 5
 90.9062 575.934 39.0312 508.16 27.5859 600.98 c 5
 58.3594 674.855 l 5
 58.3594 548.844 104.648 611.977 129.414 650.531 c 5
129.414 650.531 m 4
12.1992 411.289 m 5
 33.0859 442.82 99.2891 547.184 129.504 538.73 c 4
 138.801 536.129 144.691 522.836 144.801 493.438 c 6
 144.801 127.512 l 5
 119.789 90.2461 54.6875 -11.4648 26.0547 0 c 4
 17.5 3.42578 12.1992 16.957 12.1992 45.3359 c 6
 12.1992 411.289 l 5
114.027 419.562 m 6
 113.816 452.605 104.742 485.043 86.1953 485.012 c 4
 75.1758 484.992 60.8125 473.504 42.9766 443.863 c 5
 42.9766 119.211 l 6
 42.9766 77.8789 47.957 56.8984 55.5234 48.7266 c 4
 71.0234 31.9883 97.3828 69.0039 114.027 94.9141 c 5
 114.027 419.562 l 6
114.027 419.562 m 4
EndSplineSet
Validated: 33
EndChar

StartChar: Oacute
Encoding: 211 211 90
Width: 157
VWidth: 0
Flags: W
VStem: 12.1992 30.7773<49.119 433.059> 114.027 30.7734<106.001 478.761>
LayerCount: 2
Fore
SplineSet
27.5859 650.531 m 5
 52.3516 611.977 98.6406 548.844 98.6406 674.855 c 5
 129.414 600.98 l 5
 117.969 508.16 66.0938 575.934 27.5859 635.055 c 5
 27.5859 650.531 l 5
27.5859 650.531 m 4
12.1992 411.289 m 5
 33.0859 442.82 99.2891 547.184 129.504 538.73 c 4
 138.801 536.129 144.691 522.836 144.801 493.438 c 6
 144.801 127.512 l 5
 119.789 90.2461 54.6875 -11.4648 26.0547 0 c 4
 17.5 3.42578 12.1992 16.957 12.1992 45.3359 c 6
 12.1992 411.289 l 5
114.027 419.562 m 6
 113.816 452.605 104.742 485.043 86.1953 485.012 c 4
 75.1758 484.992 60.8125 473.504 42.9766 443.863 c 5
 42.9766 119.211 l 6
 42.9766 77.8789 47.957 56.8984 55.5234 48.7266 c 4
 71.0234 31.9883 97.3828 69.0039 114.027 94.9141 c 5
 114.027 419.562 l 6
114.027 419.562 m 4
EndSplineSet
Validated: 33
EndChar

StartChar: Thorn
Encoding: 222 222 91
Width: 158
VWidth: 0
Flags: W
VStem: 12.3242 30.75<115.426 158.655 391.288 426.801>
LayerCount: 2
Fore
SplineSet
12.3008 553.148 m 5
 12.3242 0 l 5
 43.0742 0 l 5
 43.0742 115.426 l 5
 46.2725 179.535 68.1904 170.141 145.699 116.574 c 5
 145.699 433.773 l 5
 71.6211 382.582 46.3906 371.684 43.0742 426.801 c 5
 43.0742 520.574 l 5
 12.3008 553.148 l 5
114.926 391.273 m 5
 114.926 159.074 l 5
 80.957 168.176 58.2539 172.848 43.0742 172.773 c 5
 43.0742 377.574 l 5
 58.25 377.5 80.9404 382.168 114.926 391.273 c 5
114.926 391.273 m 4
EndSplineSet
Validated: 41
EndChar

StartChar: germandbls
Encoding: 223 223 92
Width: 258
VWidth: 0
Flags: W
VStem: 11.4004 30.7734<-48.1858 -32.773> 113.252 30.6992<-30.1892 117.303 130.074 186.222 199.04 363.78 401.882 443.559> 216.177 30.4229<10.6255 129.786 186.717 304.003 486.986 501.005>
LayerCount: 2
Fore
SplineSet
27.4434 -19.5156 m 5,0,-1
220.127 549 m 4,1,-1
 232.205 549.301 241.561 536.695 245.677 503.301 c 5,4,-1
 214.9 429.422 l 5,5,-1
 214.9 555.438 168.643 492.305 143.877 453.75 c 5,8,-1
 143.9 409.949 l 5,9,-1
 176.162 400.52 223.939 316.265 246.303 282.949 c 5,12,-1
 246.303 238.199 l 6,13,-1
 246.303 172.215 248.811 158.129 143.951 186.222 c 5,16,-1
 143.975 130.074 l 5,17,-1
 238.729 155.453 246.6 146.344 246.6 95.6758 c 6,20,-1
 246.6 33.3467 l 5,21,-1
 222.72 -2.24219 169.955 -95.9258 137.701 -94.5 c 4,24,-1
 126.088 -93.9883 113.127 -81.1445 113.127 -48.8008 c 5,27,-1
 143.9 25.0742 l 5,28,-1
 143.9 -20.6719 150.166 -41.4883 159.326 -47.6016 c 4,31,-1
 175.4 -58.332 200.404 -23.8086 216.177 0.75 c 5,34,-1
 216.177 77.8984 l 6,35,-1
 216.177 120.816 208.498 135.894 185.975 129.847 c 4,38,-1
 175.459 127.023 161.697 119.601 143.975 108.25 c 5,41,-1
 144.002 32.5742 l 5,42,-1
 111.518 -15.8242 26.4629 -171.695 11.4004 -49.5781 c 5,45,-1
 42.1738 24.3008 l 5,46,-1
 42.1738 -101.715 88.4863 -38.5547 113.252 0 c 5,49,-1
 113.076 421.148 l 5,50,-1
 136.677 456.316 188.025 548.215 220.127 549 c 4,1,-1
165.65 365.898 m 4,53,-1
 165.146 365.895 164.646 365.871 164.15 365.801 c 4,56,-1
 152.811 364.215 144.436 345.972 143.927 296.148 c 6,59,-1
 143.951 208.074 l 5,60,-1
 161.6 196.762 175.615 189.316 186.4 186.449 c 4,63,-1
 207.049 180.957 215.9 192.188 215.9 224.972 c 6,66,-1
 215.9 315.551 l 5,67,-1
 202.104 337.023 181.338 366.113 165.65 365.898 c 4,53,-1
165.65 365.898 m 4,70,-1
EndSplineSet
Validated: 33
EndChar

StartChar: agrave
Encoding: 224 224 93
Width: 157
VWidth: 0
Flags: W
HStem: 0 21G<114.026 144.801> 290.426 44.8477<86.8045 110.78>
VStem: 12.1992 30.7773<46.5128 229.859> 114.026 30.7744<0 289.359>
LayerCount: 2
Fore
SplineSet
119.25 335.273 m 4
 131.328 335.575 140.684 322.969 144.801 289.575 c 5
 144.801 0 l 5
 114.026 0 l 5
 114.026 79.5752 l 5
 88.0615 39.707 50.8154 -3.78516 29.3086 0.356445 c 4
 18.918 2.36035 12.1992 15.4727 12.1992 45.4766 c 6
 12.1992 207.45 l 5
 35.8047 242.618 87.1562 334.489 119.25 335.273 c 4
93 290.426 m 4
 76.5781 290.008 55.5264 261.766 42.9766 240.023 c 5
 42.9766 119.348 l 6
 42.9766 65.6328 51.3867 46.293 62.957 44.7656 c 4
 78.5264 42.7148 99.8154 72.9297 114.026 95.0508 c 5
 114.026 215.727 l 6
 114.026 271.039 109.426 290.84 93 290.426 c 4
93 290.426 m 4
129.414 447.148 m 5
 129.414 431.668 l 5
 90.9062 372.547 39.0312 304.778 27.5898 397.598 c 5
 58.3584 471.473 l 5
 58.3584 345.461 104.647 408.59 129.414 447.148 c 5
129.414 447.148 m 4
EndSplineSet
Validated: 33
EndChar

StartChar: aacute
Encoding: 225 225 94
Width: 157
VWidth: 0
Flags: W
HStem: 0 21G<114.026 144.801> 290.426 44.8477<86.8043 110.78>
VStem: 12.1992 30.7764<46.5128 229.858> 114.026 30.7744<0 289.359>
LayerCount: 2
Fore
SplineSet
27.5859 446.934 m 5
 52.3506 408.375 98.6396 345.246 98.6396 471.258 c 5
 129.414 397.383 l 5
 117.969 304.562 66.0938 372.332 27.5859 431.453 c 5
 27.5859 446.934 l 5
27.5859 446.934 m 4
119.25 335.273 m 4
 131.328 335.574 140.683 322.969 144.801 289.574 c 5
 144.801 0 l 5
 114.026 0 l 5
 114.026 79.5742 l 5
 88.0615 39.707 50.8154 -3.78516 29.3076 0.355469 c 4
 18.918 2.36035 12.1992 15.4727 12.1992 45.4766 c 6
 12.1992 207.449 l 5
 35.8037 242.617 87.1562 334.489 119.25 335.273 c 4
93 290.426 m 4
 76.5781 290.008 55.5264 261.766 42.9756 240.023 c 5
 42.9756 119.348 l 6
 42.9756 65.6328 51.3867 46.293 62.957 44.7656 c 4
 78.5264 42.7148 99.8154 72.9297 114.026 95.0508 c 5
 114.026 215.727 l 6
 114.026 271.039 109.426 290.84 93 290.426 c 4
93 290.426 m 4
EndSplineSet
Validated: 33
EndChar

StartChar: oe
Encoding: 339 339 95
Width: 257
VWidth: 0
Flags: W
HStem: 282.898 54.1992<90.5855 106.562> 291.875 44.8477<187.292 210.25>
VStem: 11.3125 30.7773<48.4888 232.212> 113.141 30.7734<85.3579 276.53> 214.891 30.7969<26.9109 42.4399 164.732 180.413 218.072 223.577>
LayerCount: 2
Fore
SplineSet
124.863 337.098 m 4xb8
 136.305 337.165 143.794 324.5 143.914 291.324 c 6
 143.914 257.051 l 5
 168.551 294.871 198.66 336.195 220.141 336.723 c 4x78
 232.219 337.02 241.566 324.418 245.688 291.023 c 5
 219.062 227.148 l 5
 231.66 228.23 241.445 215.902 245.688 181.523 c 5
 214.891 107.648 l 5
 214.891 162.098 206.251 181.238 194.438 182.301 c 4
 178.93 183.691 157.977 153.938 143.914 132.051 c 5
 143.863 75.2227 l 5
 158.566 52.3281 180.855 20.7578 196.539 25.2734 c 4
 207.27 28.3594 214.891 48.3359 214.891 99.5234 c 5
 245.688 25.6484 l 5
 241.751 -6.29688 233.012 -19.1992 221.688 -20 c 4
 192.914 -22.0312 147.441 54.0586 121.141 95.375 c 5
 79.0195 33.9062 11.3125 -54.3516 11.3125 47.0977 c 5
 11.4414 47.3984 l 5
 11.3125 47.3984 l 5
 11.3125 209.176 l 5
 31.376 239.461 93.2344 336.922 124.863 337.098 c 4xb8
193.266 291.875 m 4
 177.887 291.738 157.626 262.891 143.914 241.551 c 5
 143.914 147.523 l 5
 166.587 182.333 193.891 220.098 214.84 226.324 c 5
 213.895 274.383 205.359 291.262 194.016 291.848 c 4
 193.773 291.859 193.508 291.875 193.266 291.875 c 4
85.4883 282.898 m 4xb8
 74.4453 283.02 60.0352 271.57 42.0898 241.75 c 5
 42.0898 120.973 l 6
 42.0898 -5.03516 88.376 58.1133 113.141 96.6758 c 5
 113.141 217.449 l 6
 112.93 250.371 103.898 282.699 85.4883 282.898 c 4xb8
85.4883 282.898 m 4
EndSplineSet
Validated: 33
EndChar

StartChar: uni0181
Encoding: 385 385 96
Width: 227
VWidth: 0
Flags: W
VStem: 11.6748 30.75<558.316 574.135> 82.7256 30.7793<44.7995 179.329 251.646 562.456> 184.556 30.7695<105.439 236.382 308.219 492.682>
LayerCount: 2
Fore
SplineSet
162.325 238.47 m 4
 146.995 237.64 127.046 209.18 113.505 188.1 c 5
 113.505 119.574 l 6
 112.665 13.7031 142.694 30.4922 184.556 95.2744 c 5
 184.556 163.8 l 6
 184.556 220.9 175.024 239.17 162.325 238.47 c 4
162.325 494.77 m 4
 146.995 493.939 127.046 465.49 113.505 444.4 c 5
 113.505 323.75 l 6
 113.956 226.37 140.984 232.02 184.556 299.45 c 5
 184.556 420.1 l 6
 184.556 477.2 175.024 495.47 162.325 494.77 c 4
37.2061 620.82 m 4
 58.6943 620.35 88.835 578.95 113.505 541.07 c 5
 113.505 459.88 l 5
 152.005 519 203.876 586.8 215.325 493.97 c 5
 215.325 493.68 l 5
 215.325 332.02 l 5
 207.286 320.04 196.005 301.46 183.376 282.15 c 5
 198.516 287.37 210.505 276.75 215.325 237.68 c 5
 215.325 127.848 l 5
 191.726 92.6836 140.376 0.789062 108.274 0 c 4
 96.1943 -0.296875 86.8447 12.3047 82.7256 45.6992 c 5
 82.7256 155.5 l 5
 90.7744 167.5 102.056 186.09 114.706 205.43 c 5
 112.484 204.66 110.345 204.22 108.274 204.18 c 4
 96.1943 203.88 86.8447 216.48 82.7256 249.88 c 5
 82.7256 250.07 l 5
 82.7256 565.7 l 5
 62.1455 585.16 42.4248 583.5 42.4248 501.27 c 5
 11.6748 575.13 l 5
 15.7959 608.49 25.1455 620.82 37.2061 620.82 c 4
EndSplineSet
Validated: 33
EndChar

StartChar: uni0190
Encoding: 400 400 97
Width: 156
VWidth: 0
Flags: W
VStem: 11.4375 30.1602<103.478 223.013 280.266 398.612> 113.848 30.7734<45.7058 61.2535 223.301 279.5 441.547 456.792>
LayerCount: 2
Fore
SplineSet
119.074 504.074 m 4
 131.152 504.371 140.504 491.742 144.621 458.352 c 5
 113.848 384.477 l 5
 113.848 436.695 105.684 456.434 94.3555 458.898 c 4
 78.3516 462.383 56.0352 431.379 41.5312 408.801 c 5
 41.5312 343.16 l 6
 41.5312 257.609 59.8242 263.398 144.621 322 c 5
 144.621 180.801 l 5
 64.6523 236.066 41.5977 244.387 41.5977 173.367 c 6
 41.5977 94 l 5
 56.125 71.3906 78.4609 40.3242 94.4531 43.918 c 4
 105.727 46.4531 113.848 66.2188 113.848 118.324 c 5
 144.621 44.4492 l 5
 140.805 13.4883 132.449 0.394531 121.574 -1.10938 c 4
 89.5547 -5.54297 35.6875 90.4688 11.4375 126.602 c 5
 11.4375 171.977 l 6
 11.4375 237.43 9.26953 251.32 113.848 223.301 c 5
 113.848 279.5 l 5
 10.9141 251.922 11.3789 264.949 11.3789 327.777 c 6
 11.3789 376.199 l 5
 34.9844 411.367 86.9766 503.289 119.074 504.074 c 4
119.074 504.074 m 4
EndSplineSet
Validated: 33
EndChar

StartChar: florin
Encoding: 402 402 98
Width: 257
VWidth: 0
Flags: W
VStem: 11.3594 30.7812<-81.1227 -65.3357> 113.189 30.7695<-23.1338 398.397> 214.859 30.7812<236.539 252.218 441.342 457.049>
LayerCount: 2
Fore
SplineSet
220.09 503.84 m 0
 232.17 503.84 241.52 491.53 245.641 458.141 c 1
 214.859 384.27 l 1
 214.859 437.8 206.51 457.2 195 458.84 c 0
 179.42 461.07 158.061 430.77 143.811 408.59 c 1
 143.811 219.27 l 1
 169.41 258.57 200.91 301.689 222.52 298.92 c 0
 233.42 297.53 241.799 284.46 245.641 253.34 c 1
 214.859 179.46 l 1
 214.859 229.28 207.629 249.53 197.359 253.439 c 0
 181.641 259.4 158.789 227.1 143.811 203.79 c 1
 143.959 0 l 1
 119.709 -36.1504 66.1289 -132.2 34.2793 -127.689 c 0
 23.4805 -126.16 15.1797 -113.061 11.3594 -82.1299 c 1
 42.1406 -8.28027 l 1
 42.1406 -60.1797 49.9902 -79.9697 60.959 -82.6299 c 0
 76.6191 -86.4199 98.6289 -55.2305 113.189 -32.5605 c 1
 113.029 375.99 l 1
 136.631 411.15 187.99 503.05 220.09 503.84 c 0
EndSplineSet
Validated: 33
EndChar

StartChar: uni0198
Encoding: 408 408 99
Width: 228
VWidth: 0
Flags: W
HStem: -0.000976562 21G<12.1504 42.9199 113.42 144.201> 520.171 20G<12.3422 42.7498>
VStem: 12.1504 30.7695<-0.000976562 148.36 185.557 540.171> 114.121 30.7793<-0.000976562 87.9637 251.488 576.635> 185.1 30.75<572.481 588.311>
LayerCount: 2
Fore
SplineSet
190.32 635.021 m 0
 202.381 635.021 211.73 622.651 215.85 589.29 c 1
 185.1 515.45 l 1
 185.1 597.671 165.371 599.341 144.801 579.87 c 1
 144.9 250.101 l 2
 144.9 157.061 81.4395 225.241 42.9199 284.421 c 1
 42.9199 193.87 l 1
 75.1113 183.651 121.961 100.179 144.201 67.0459 c 1
 144.201 -0.000976562 l 1
 113.42 -0.000976562 l 1
 113.42 99.624 l 1
 90.2402 135.71 48.1895 193.351 42.9199 97.1709 c 1
 42.9199 -0.000976562 l 1
 12.1504 -0.000976562 l 1
 12.3496 540.171 l 1
 42.7207 540.171 l 1
 43.0703 299.671 l 1
 67.8301 261.12 114.121 197.96 114.121 323.972 c 2
 114.02 555.251 l 1
 138.689 593.12 168.82 634.552 190.32 635.021 c 0
EndSplineSet
Validated: 33
EndChar

StartChar: uni01A5
Encoding: 421 421 100
Width: 258
VWidth: 0
Flags: W
VStem: 11.75 30.7783<77.9023 93.2773 217.918 282.464> 113.653 30.7725<41.0389 117.574 242.22 258.758> 215.477 30.7734<301.039 316.688>
LayerCount: 2
Fore
SplineSet
42.5283 -126.473 m 5
 42.5283 77.9023 l 5
 58.1211 54.0859 103.7 -5.67969 128.274 0 c 4
 137.993 2.24609 144.426 14.7275 144.426 43.6992 c 6
 144.426 268.293 l 5
 159.743 292.133 183.282 325.371 199.02 317.478 c 4
 208.735 312.603 215.477 292.06 215.477 243.965 c 5
 246.25 317.845 l 5
 242.184 350.81 233.028 363.543 221.176 363.543 c 4
 192.028 363.543 146.602 287.095 120.774 246.642 c 5
 93.5156 289.363 50.9727 343.149 27.9463 337.359 c 4
 18.1016 334.888 11.8252 321.535 11.8252 291.793 c 6
 11.75 -159.073 l 5
 42.5283 -126.473 l 5
42.6016 217.918 m 6
 42.8252 254.086 50.2539 286.328 67.375 287.31 c 4
 78.4932 287.941 93.6875 275.406 113.653 242.22 c 5
 113.653 117.574 l 6
 113.489 91.5986 111.879 48.7852 97.5117 40.1289 c 4
 87.1924 33.9141 70.2861 45.3242 42.6016 93.2773 c 5
 42.6016 217.918 l 6
42.6016 217.918 m 4
EndSplineSet
Validated: 41
EndChar

StartChar: quoteleft
Encoding: 8216 8216 101
Width: 125
VWidth: 0
Flags: W
VStem: 11.5879 30.7773<312.422 334.667> 82.6621 30.75<301.601 317.428>
LayerCount: 2
Fore
SplineSet
11.5879 428.592 m 1
 11.5879 334.667 l 1
 50.0918 275.545 101.967 207.792 113.412 300.616 c 1
 82.6621 374.467 l 1
 82.6621 292.237 62.9395 290.573 42.3652 310.042 c 1
 42.3652 396.015 l 1
 11.5879 428.592 l 1
11.5879 428.592 m 0
EndSplineSet
Validated: 41
EndChar

StartChar: quoteright
Encoding: 8217 8217 102
Width: 125
VWidth: 0
Flags: W
VStem: 11.5879 30.75<301.601 317.428> 82.6348 30.7773<312.422 396.015>
LayerCount: 2
Fore
SplineSet
113.412 428.592 m 1
 113.412 334.667 l 1
 74.9082 275.545 23.0332 207.792 11.5879 300.616 c 1
 42.3379 374.467 l 1
 42.3379 292.237 62.0605 290.573 82.6348 310.042 c 1
 82.6348 396.015 l 1
 113.412 428.592 l 1
113.412 428.592 m 0
EndSplineSet
Validated: 33
EndChar

StartChar: uni2460
Encoding: 9312 9312 103
Width: 348
VWidth: 0
Flags: W
VStem: 11.7002 30.7793<-50.2924 443.783> 305.53 30.7695<-1.13667 482.627>
LayerCount: 2
Fore
SplineSet
305.53 440.775 m 1
 302.819 554.682 106.45 502.4 42.4795 449.074 c 1
 42.4795 0 l 2
 42.4795 -142.982 272.62 -41.2012 305.53 -8.30078 c 1
 305.53 440.775 l 1
11.7002 416.475 m 2
 11.7002 479.281 336.3 637.951 336.3 514.65 c 2
 336.3 24.2988 l 2
 336.3 -31.5547 11.7002 -200.193 11.7002 -73.875 c 2
 11.7002 416.475 l 2
173.979 418.029 m 1
 189.479 426.775 l 1
 189.479 13.7715 l 1
 173.979 22.5215 l 1
 158.53 13.7715 l 1
 158.53 426.775 l 1
 173.979 418.029 l 1
EndSplineSet
Validated: 33
EndChar

StartChar: uni2461
Encoding: 9313 9313 104
Width: 348
VWidth: 0
Flags: W
HStem: 280.949 13.375<177.588 201.913> 307.196 21G<131.025 139.355>
VStem: 11.6953 30.7793<-50.2928 443.782> 108.586 30.7695<364.265 379.981> 210.404 30.7812<60.6198 76.2706 294.324 321.311> 305.525 30.7793<-1.13737 482.626>
LayerCount: 2
Fore
SplineSet
305.525 440.774 m 5
 302.814 554.681 106.445 502.399 42.4746 449.074 c 5
 42.4746 0 l 6
 42.4746 -142.983 272.625 -41.2021 305.525 -8.30078 c 5
 305.525 440.774 l 5
11.6953 416.474 m 6
 11.6953 479.281 336.305 637.951 336.305 514.649 c 6
 336.305 24.2979 l 6
 336.305 -31.5547 11.6953 -200.194 11.6953 -73.875 c 6
 11.6953 416.474 l 6
134.135 426.774 m 4
 166.225 425.985 217.586 334.067 241.186 298.899 c 5
 241.186 251.824 l 5
 211.994 271.992 190.494 281.363 174.846 280.949 c 4
 135.586 279.91 133.285 217.254 139.355 109.047 c 5
 154.176 85.9805 176.695 54.0859 192.404 59.2031 c 4
 202.945 62.6377 210.404 82.7314 210.404 133.349 c 5
 241.186 59.4697 l 5
 237.256 27.6025 228.555 14.6641 217.266 13.8096 c 4
 185.314 11.3789 132.586 105.876 108.586 141.646 c 5
 108.586 206.888 99.2051 263.867 123.654 288.696 c 4
 138.006 303.267 164.016 306.759 210.404 294.324 c 5
 210.404 331.5 l 5
 195.795 354.246 173.695 385.56 158.025 381.531 c 4
 147.145 378.731 139.355 358.86 139.355 307.196 c 5
 108.586 381.071 l 5
 112.705 414.463 122.055 426.774 134.135 426.774 c 4
EndSplineSet
Validated: 33
EndChar

StartChar: uni2462
Encoding: 9314 9314 105
Width: 348
VWidth: 0
Flags: W
HStem: 306.293 21G<130.14 138.47> 380.985 44.8818<143.224 165.695>
VStem: 11.7002 30.7695<-50.2928 443.782> 107.7 30.7695<61.6536 77.1902 225.84 241.448 363.362 378.878> 209.521 30.7793<119.102 320.427> 305.521 30.7793<-1.13709 482.626>
LayerCount: 2
Fore
SplineSet
305.521 440.774 m 5
 302.821 554.681 106.45 502.399 42.4697 449.074 c 5
 42.4697 0 l 6
 42.4697 -142.983 272.62 -41.2021 305.521 -8.30078 c 5
 305.521 440.774 l 5
11.7002 416.474 m 6
 11.7002 479.281 336.3 637.951 336.3 514.649 c 6
 336.3 24.2979 l 6
 336.3 -31.5537 11.7002 -200.194 11.7002 -73.875 c 6
 11.7002 416.474 l 6
133.251 425.867 m 4
 165.341 425.078 216.7 333.185 240.3 298.017 c 5
 240.3 142.531 l 5
 215.771 105.989 161.28 8.18457 129.571 15.0166 c 4
 119.28 17.2314 111.393 30.4658 107.7 60.3838 c 5
 138.47 134.259 l 5
 138.47 83.0859 146.11 63.1104 156.831 60.0127 c 4
 172.511 55.4814 194.812 87.0596 209.521 109.957 c 5
 209.521 193.095 l 5
 194.852 215.935 172.62 247.403 156.95 243.056 c 4
 146.161 240.067 138.47 220.129 138.47 168.771 c 5
 107.7 242.646 l 5
 111.571 274.031 120.062 287.056 131.102 288.263 c 4
 152.7 290.617 184.04 247.699 209.521 208.571 c 5
 209.521 330.617 l 5
 195.771 352.031 175.37 381.035 159.95 380.985 c 4
 147.62 380.946 138.47 362.306 138.47 306.293 c 5
 107.7 380.168 l 5
 111.821 413.56 121.171 425.867 133.251 425.867 c 4
EndSplineSet
Validated: 33
EndChar

StartChar: uni2463
Encoding: 9315 9315 106
Width: 348
VWidth: 0
Flags: W
VStem: 11.6895 30.7695<-50.2929 443.782> 107.631 30.75<116.659 393.762> 209.408 31<13.9922 393.981> 305.51 30.8008<-1.13802 482.626>
LayerCount: 2
Fore
SplineSet
305.51 440.774 m 5
 302.811 554.681 106.438 502.399 42.459 449.074 c 5
 42.459 0 l 6
 42.459 -142.983 272.609 -41.2031 305.51 -8.30078 c 5
 305.51 440.774 l 5
11.6895 416.474 m 6
 11.6895 479.281 336.311 637.951 336.311 514.649 c 6
 336.311 24.2969 l 6
 336.311 -31.5547 11.6895 -200.194 11.6895 -73.875 c 6
 11.6895 416.474 l 6
138.381 426.34 m 5
 138.381 189.239 l 6
 138.381 139.012 145.76 118.84 156.168 115.185 c 4
 171.881 109.668 194.561 141.754 209.408 164.942 c 5
 209.609 393.981 l 5
 240.408 426.556 l 5
 240.408 13.9922 l 5
 209.609 13.9922 l 5
 209.609 149.692 l 5
 183.051 108.903 144.658 63.8633 123.359 70.25 c 4
 113.76 73.1328 107.631 86.4531 107.631 115.363 c 6
 107.6 393.762 l 5
 138.381 426.34 l 5
EndSplineSet
Validated: 33
EndChar

StartChar: uni2464
Encoding: 9316 9316 107
Width: 348
VWidth: 0
Flags: W
HStem: 307.196 21G<210.399 218.738>
VStem: 11.7002 30.8008<-50.2929 443.782> 108.602 30.7979<60.657 76.2608> 210.399 30.8008<119.235 146.224 364.282 380.075> 305.501 30.7988<-1.13774 482.626>
LayerCount: 2
Fore
SplineSet
305.501 440.774 m 5
 302.8 554.681 106.501 502.399 42.501 449.074 c 5
 42.501 0 l 6
 42.501 -142.983 272.602 -41.2031 305.501 -8.30078 c 5
 305.501 440.774 l 5
11.7002 416.474 m 6
 11.7002 479.281 336.3 637.951 336.3 514.649 c 6
 336.3 24.2969 l 6
 336.3 -31.5537 11.7002 -200.194 11.7002 -73.875 c 6
 11.7002 416.474 l 6
134.2 13.7705 m 4
 122.102 13.7705 112.7 26.0781 108.602 59.4688 c 5
 139.399 133.349 l 5
 139.399 74.7393 149.399 57.0508 162.602 58.7783 c 4
 177.8 60.7578 197.2 88.4219 210.399 109.047 c 5
 210.399 146.224 l 5
 164.001 133.771 138.001 137.289 123.602 151.91 c 4
 99.2002 176.771 108.602 233.708 108.602 298.899 c 5
 132.7 334.872 185.899 430.235 217.8 426.685 c 4
 228.899 425.457 237.3 412.426 241.2 381.071 c 5
 210.399 307.196 l 5
 210.399 359.125 202.602 378.935 191.602 381.578 c 4
 175.899 385.349 153.899 354.168 139.399 331.5 c 5
 133.501 226.324 135.501 164.181 171.7 159.828 c 4
 187.501 157.918 210.001 167.133 241.2 188.724 c 5
 241.2 141.646 l 5
 217.602 106.481 166.3 14.5596 134.2 13.7705 c 4
EndSplineSet
Validated: 33
EndChar

StartChar: uni2465
Encoding: 9317 9317 108
Width: 348
VWidth: 0
Flags: W
HStem: 233.766 44.8984<181.479 204.552> 307.156 21G<209.5 217.838>
VStem: 11.7002 30.6992<-50.2932 443.781> 107.7 30.6992<55.8695 321.138> 209.5 30.7998<114.13 231.499 364.241 379.734> 305.5 30.7998<-1.13806 482.625>
LayerCount: 2
Fore
SplineSet
305.5 440.773 m 5
 302.8 554.68 106.399 502.398 42.3994 449.074 c 5
 42.3994 0 l 6
 42.3994 -142.984 272.601 -41.2031 305.5 -8.30078 c 5
 305.5 440.773 l 5
11.7002 416.473 m 6
 11.7002 479.281 336.3 637.951 336.3 514.648 c 6
 336.3 24.2969 l 6
 336.3 -31.5547 11.7002 -200.195 11.7002 -73.875 c 6
 11.7002 416.473 l 6
209.5 107.609 m 5
 209.5 159.09 l 6
 209.5 176.219 208.8 234.602 187.3 233.766 c 4
 172 232.93 152 204.477 138.399 183.391 c 5
 138.399 131.91 l 6
 138.399 76.9766 142.5 53.1445 159.3 55.5234 c 4
 176.2 57.8984 201.399 94.1641 209.5 107.609 c 5
126 13.8086 m 4
 114.899 13.8086 107.7 26.4805 107.7 58.0352 c 5
 107.7 58.3359 l 5
 107.7 298.898 l 5
 133.5 337.329 192.399 443.488 223.101 424.484 c 4
 231.101 419.555 237.2 406.195 240.3 381.031 c 5
 209.5 307.156 l 5
 209.5 360.09 201.3 379.648 190 381.672 c 4
 174.399 384.469 152.8 353.858 138.399 331.5 c 5
 138.399 198.891 l 5
 163.101 236.742 193.2 278.137 214.7 278.664 c 4
 226.8 278.961 240.3 265.703 240.3 232.965 c 6
 240.3 134.508 l 5
 218 103.852 156.899 12.9062 126 13.8086 c 4
EndSplineSet
Validated: 33
EndChar

StartChar: uni2466
Encoding: 9318 9318 109
Width: 348
VWidth: 0
Flags: W
HStem: 307.353 21G<129.262 137.601>
VStem: 11.6992 30.8008<-50.2928 443.782> 106.801 30.7998<46.2119 146.375 364.438 380.178> 305.5 30.8008<-1.13709 482.626>
LayerCount: 2
Fore
SplineSet
305.5 440.774 m 5
 302.801 554.681 106.5 502.399 42.5 449.074 c 5
 42.5 0 l 6
 42.5 -142.983 272.601 -41.2021 305.5 -8.30078 c 5
 305.5 440.774 l 5
11.6992 416.474 m 6
 11.6992 479.281 336.301 637.951 336.301 514.649 c 6
 336.301 24.2979 l 6
 336.301 -31.5537 11.6992 -200.194 11.6992 -73.875 c 6
 11.6992 416.474 l 6
106.801 46.2119 m 5
 106.801 188.875 l 5
 138.199 167.211 160.699 158.009 176.5 160.005 c 4
 212.601 164.528 214.5 226.664 208.601 331.677 c 5
 193.601 355.181 170.5 387.817 154.699 381.168 c 4
 144.699 376.91 137.601 356.543 137.601 307.353 c 5
 106.801 381.228 l 5
 110.601 411.591 118.601 424.767 129.199 426.685 c 4
 160.9 432.481 215 335.442 239.4 299.074 c 5
 239.4 222.688 252.301 157.606 208.699 142.22 c 4
 193.101 136.75 170.5 137.56 137.601 146.375 c 5
 137.601 13.6104 l 5
 106.801 46.2119 l 5
EndSplineSet
Validated: 33
EndChar

StartChar: uni2467
Encoding: 9319 9319 110
Width: 348
VWidth: 0
Flags: W
HStem: 378.818 54.5781<179.488 198.851>
VStem: 11.7002 30.6992<-50.2926 443.783> 99.7002 30.7988<216.136 328.663> 115.602 30.7979<54.7612 166.936> 201.602 30.6982<274.427 376.335> 217.399 30.8008<113.678 219.237> 305.499 30.8008<-1.13742 482.627>
LayerCount: 2
Fore
SplineSet
305.499 440.775 m 5xc2
 302.8 554.682 106.399 502.4 42.3994 449.074 c 5
 42.3994 0 l 6
 42.3994 -142.982 272.602 -41.2031 305.499 -8.30078 c 5
 305.499 440.775 l 5xc2
11.7002 416.475 m 6
 11.7002 479.281 336.3 637.951 336.3 514.65 c 6
 336.3 24.2969 l 6
 336.3 -31.5527 11.7002 -200.193 11.7002 -73.875 c 6
 11.7002 416.475 l 6
192.999 220.836 m 4
 181.3 220.836 166.102 209.453 146.399 176.668 c 5
 146.399 127.268 l 6
 146.399 75.6777 155.399 55.5215 164.999 52.9434 c 4
 180.602 48.75 202.8 80.1992 217.399 102.971 c 5
 217.399 171.492 l 6xd6
 217.102 213.199 207.899 220.836 192.999 220.836 c 4
177.102 378.818 m 4
 165.399 378.818 150.2 370.828 130.499 338.043 c 5
 130.499 288.643 l 6
 130.499 237.053 139.499 216.896 149.102 214.318 c 4
 157.8 211.982 168.602 220.721 178.899 232.846 c 4
 179.3 233.34 179.499 233.492 179.602 233.643 c 4
 187.499 243.129 195.3 254.535 201.602 264.346 c 5
 201.602 332.867 l 6xea
 201.399 363.828 192.102 378.818 177.102 378.818 c 4
213.8 433.396 m 4
 214.8 433.396 215.8 433.236 216.8 432.992 c 4
 226.2 430.578 232.2 417.307 232.3 387.617 c 6
 232.3 296.943 l 5xea
 226.7 288.535 218.899 276.771 210.102 263.846 c 5
 218.602 270.082 226.399 273.207 232.602 271.617 c 4
 242.102 269.203 248.102 255.932 248.2 226.242 c 5
 248.2 226.043 l 5
 248.2 135.568 l 5
 222.8 97.7363 156.102 -6.5293 128.2 8.64258 c 4
 120.3 12.8848 115.602 26.457 115.602 53.3965 c 5
 115.602 53.6934 l 5
 115.602 144.096 l 5xd6
 120.499 151.604 128.102 163.285 137.2 176.543 c 5
 127.399 169.443 118.8 166.479 112.3 170.021 c 4
 104.499 174.258 99.7002 187.832 99.7002 214.768 c 5
 99.7002 215.068 l 5
 99.7002 305.471 l 5
 119.899 335.922 182.3 434.314 213.8 433.396 c 4
EndSplineSet
Validated: 33
EndChar

StartChar: uni2468
Encoding: 9320 9320 111
Width: 348
VWidth: 0
Flags: W
HStem: 161.879 44.9004<143.405 166.455>
VStem: 11.7002 30.7998<-50.2932 443.781> 107.7 30.7998<60.4828 76.3016 209.045 326.413> 209.5 30.7998<119.407 384.654> 305.5 30.7998<-1.1375 482.625>
LayerCount: 2
Fore
SplineSet
305.5 440.773 m 5
 302.8 554.68 106.4 502.398 42.5 449.074 c 5
 42.5 0 l 6
 42.5 -142.984 272.601 -41.2031 305.5 -8.30078 c 5
 305.5 440.773 l 5
11.7002 416.473 m 6
 11.7002 479.281 336.3 637.951 336.3 514.648 c 6
 336.3 24.2969 l 6
 336.3 -31.5527 11.7002 -200.195 11.7002 -73.875 c 6
 11.7002 416.473 l 6
138.5 332.934 m 5
 138.5 281.453 l 6
 138.5 264.324 139.101 205.941 160.7 206.779 c 4
 176 207.613 196 236.066 209.5 257.154 c 5
 209.5 308.633 l 6
 209.5 363.566 205.5 387.375 188.601 385 c 4
 171.8 382.621 146.601 346.379 138.5 332.934 c 5
221.9 426.736 m 4
 233.101 426.736 240.3 414.066 240.3 382.508 c 5
 240.3 382.211 l 5
 240.3 141.645 l 5
 214.5 103.217 155.601 -2.94141 124.8 16.0586 c 4
 116.9 20.9902 110.8 34.3516 107.7 59.5117 c 5
 138.5 133.387 l 5
 138.5 80.4531 146.601 60.8945 157.9 58.8711 c 4
 173.601 56.0781 195.2 86.6875 209.5 109.047 c 5
 209.5 241.654 l 5
 184.9 203.801 154.7 162.406 133.2 161.879 c 4
 121.2 161.582 107.7 174.84 107.7 207.578 c 6
 107.7 306.035 l 5
 130 336.691 191 427.637 221.9 426.736 c 4
EndSplineSet
Validated: 33
EndChar

StartChar: uni2474
Encoding: 9332 9332 112
Width: 349
VWidth: 0
Flags: W
VStem: 12.1992 146.822<87.6504 499.566> 189.969 146.832<89.6146 500.65>
LayerCount: 2
Fore
SplineSet
159.021 500.65 m 5
 159.021 87.6504 l 5
 174.469 96.4004 l 5
 189.969 87.6504 l 5
 189.969 500.65 l 5
 174.469 491.9 l 5
 159.021 500.65 l 5
280.271 634.17 m 4
 313.91 634.17 336.801 621.271 336.801 588.521 c 6
 336.801 98.1699 l 6
 336.801 42.3203 12.1992 -126.319 12.1992 0 c 6
 12.1992 490.351 l 6
 12.1992 536.47 187.271 634.17 280.271 634.17 c 4
EndSplineSet
Validated: 33
EndChar

StartChar: uni2475
Encoding: 9333 9333 113
Width: 349
VWidth: 0
Flags: W
HStem: 368.199 87.2207<144.54 190.315>
VStem: 12.2002 96.8691<182.681 368.046> 139.852 71.0479<152.456 202.65 381.07 435.446> 241.669 95.1309<325.699 404.947>
LayerCount: 2
Fore
SplineSet
133.499 500.65 m 4
 121.96 500.15 113.061 487.299 109.069 454.949 c 5
 139.852 381.07 l 5
 139.852 432.74 147.63 452.629 158.521 455.42 c 4
 174.19 459.449 196.28 428.119 210.899 405.379 c 5
 210.899 368.199 l 5
 164.499 380.629 138.499 377.141 124.149 362.57 c 4
 99.7002 337.75 109.069 280.74 109.069 215.5 c 5
 133.079 179.73 185.811 85.2695 217.771 87.6992 c 4
 229.061 88.5488 237.739 101.48 241.669 133.35 c 5
 210.899 207.221 l 5
 210.899 156.609 203.44 136.51 192.899 133.07 c 4
 177.2 127.959 154.659 159.83 139.852 182.9 c 5
 133.78 291.1 136.079 353.789 175.352 354.82 c 4
 190.989 355.23 212.489 345.869 241.669 325.699 c 5
 241.669 372.77 l 5
 218.069 407.939 166.72 499.859 134.62 500.65 c 4
 134.249 500.66 133.499 500.65 133.499 500.65 c 4
280.249 634.17 m 4
 313.891 634.17 336.8 621.27 336.8 588.52 c 6
 336.8 98.1699 l 6
 336.8 42.3203 12.2002 -126.32 12.2002 0 c 6
 12.2002 490.35 l 6
 12.2002 536.471 187.249 634.17 280.249 634.17 c 4
EndSplineSet
Validated: 33
EndChar

StartChar: uni2476
Encoding: 9334 9334 114
Width: 349
VWidth: 0
Flags: W
VStem: 138.97 71.0508<154.121 208.15 242.65 296.817 380.17 434.876> 240.8 96<182.767 404.073>
LayerCount: 2
Fore
SplineSet
132.62 499.75 m 4
 121.09 499.25 112.19 486.4 108.2 454.05 c 5
 138.97 380.17 l 5
 138.97 436.19 148.11 454.83 160.45 454.88 c 4
 175.86 454.92 196.26 425.91 210.021 404.5 c 5
 210.021 282.45 l 5
 184.54 321.58 153.2 364.511 131.601 362.15 c 4
 120.561 360.94 112.07 347.91 108.2 316.521 c 5
 138.97 242.65 l 5
 138.97 294.011 146.66 313.96 157.45 316.95 c 4
 173.12 321.29 195.351 289.811 210.021 266.971 c 5
 210.021 183.851 l 5
 195.311 160.95 173.01 129.37 157.32 133.9 c 4
 146.601 137 138.97 156.98 138.97 208.15 c 5
 108.2 134.271 l 5
 111.891 104.36 119.78 91.1104 130.07 88.9004 c 4
 161.78 82.0703 216.271 179.88 240.8 216.42 c 5
 240.8 371.9 l 5
 217.19 407.07 165.84 498.96 133.75 499.75 c 4
 132.62 499.75 l 4
280.25 634.17 m 4
 313.891 634.17 336.8 621.271 336.8 588.521 c 6
 336.8 98.1699 l 6
 336.8 42.3203 12.2002 -126.319 12.2002 0 c 6
 12.2002 490.351 l 6
 12.2002 536.471 187.25 634.17 280.25 634.17 c 4
EndSplineSet
Validated: 33
EndChar

StartChar: uni2477
Encoding: 9335 9335 115
Width: 349
VWidth: 0
Flags: W
VStem: 12.2002 95.8994<144.242 467.65> 138.87 71.2295<208.632 467.879> 240.87 95.9297<89.6146 500.449>
LayerCount: 2
Fore
SplineSet
240.87 500.449 m 5
 210.1 467.879 l 5
 209.95 238.82 l 5
 195.05 215.641 172.38 183.561 156.669 189.07 c 4
 146.259 192.73 138.87 212.891 138.87 263.119 c 6
 138.87 500.199 l 5
 108.1 467.65 l 5
 108.1 189.25 l 6
 108.1 160.33 114.239 146.98 123.85 144.1 c 4
 145.149 137.709 183.55 182.789 210.1 223.57 c 5
 210.1 87.8789 l 5
 240.87 87.8789 l 5
 240.87 500.449 l 5
280.249 634.17 m 4
 313.88 634.17 336.8 621.27 336.8 588.52 c 6
 336.8 98.1699 l 6
 336.8 42.3203 12.2002 -126.32 12.2002 0 c 6
 12.2002 490.35 l 6
 12.2002 536.471 187.249 634.17 280.249 634.17 c 4
EndSplineSet
Validated: 33
EndChar

StartChar: uni2478
Encoding: 9336 9336 116
Width: 349
VWidth: 0
Flags: W
HStem: 132.65 87.4502<144.492 190.867>
VStem: 12.2002 96.8994<220.304 405.209> 139.88 71.0488<153.277 207.222 381.523 435.349> 241.7 95.0996<183.353 262.601>
LayerCount: 2
Fore
SplineSet
216.8 500.651 m 0
 184.749 501.142 132.87 408.181 109.1 372.771 c 1
 109.1 307.581 99.7295 250.661 124.1 225.8 c 0
 138.438 211.181 164.46 207.651 210.929 220.101 c 1
 210.929 182.901 l 1
 197.679 162.28 178.259 134.63 163.079 132.65 c 0
 149.88 130.92 139.88 148.61 139.88 207.222 c 1
 109.1 133.351 l 1
 113.22 99.96 122.569 87.3604 134.649 87.6504 c 0
 166.749 88.4404 218.1 180.36 241.7 215.53 c 1
 241.7 262.601 l 1
 210.46 241.021 188.02 231.79 172.149 233.7 c 0
 135.979 238.05 133.979 300.2 139.88 405.38 c 1
 154.438 428.05 176.419 459.222 192.079 455.45 c 0
 203.05 452.812 210.929 433.001 210.929 381.071 c 1
 241.7 454.95 l 1
 237.839 486.312 229.339 499.341 218.319 500.571 c 0
 217.819 500.62 217.311 500.651 216.8 500.651 c 0
280.28 634.171 m 0
 313.909 634.171 336.8 621.271 336.8 588.521 c 2
 336.8 98.1699 l 2
 336.8 42.3203 12.2002 -126.319 12.2002 0 c 2
 12.2002 490.351 l 2
 12.2002 536.472 187.28 634.171 280.28 634.171 c 0
EndSplineSet
Validated: 33
EndChar

StartChar: uni2479
Encoding: 9337 9337 117
Width: 349
VWidth: 0
Flags: W
VStem: 12.2051 95.9902<87.8784 405.221> 138.994 71<151.294 287.506 381.07 435.119> 240.795 96<178.866 352.15>
LayerCount: 2
Fore
SplineSet
187.795 307.65 m 4
 209.396 308.48 209.994 250.1 209.994 232.969 c 6
 209.994 181.5 l 5
 201.994 168.049 176.695 131.77 159.896 129.4 c 4
 142.994 127.02 138.994 150.859 138.994 205.799 c 6
 138.994 257.27 l 5
 152.494 278.359 172.494 306.811 187.795 307.65 c 4
215.994 500.619 m 4
 183.896 501.189 131.994 408.199 108.195 372.77 c 5
 108.195 132.219 l 5
 108.195 131.92 l 5
 108.195 100.369 115.396 88.0293 126.596 87.6992 c 4
 157.494 86.7891 218.494 177.74 240.795 208.4 c 5
 240.795 306.85 l 6
 240.795 339.58 227.295 352.84 215.295 352.549 c 4
 193.795 352.02 163.596 310.629 138.994 272.77 c 5
 138.994 405.379 l 5
 153.295 427.73 174.994 458.34 190.596 455.549 c 4
 201.896 453.52 209.994 434 209.994 381.07 c 5
 240.795 454.92 l 5
 237.695 480.08 231.596 493.439 223.695 498.379 c 4
 221.295 499.859 218.695 500.619 215.994 500.619 c 4
280.295 634.17 m 4
 313.896 634.17 336.795 621.27 336.795 588.52 c 6
 336.795 98.1699 l 6
 336.795 42.3203 12.2051 -126.32 12.2051 0 c 6
 12.2051 490.35 l 6
 12.2051 536.469 187.295 634.17 280.295 634.17 c 4
EndSplineSet
Validated: 33
EndChar

StartChar: uni247A
Encoding: 9338 9338 118
Width: 349
VWidth: 0
Flags: W
HStem: 500.82 133.35<132.101 297>
VStem: 12.1992 95.1016<120.101 262.75> 138 71.1006<381.73 435.47> 239.9 96.9004<220.597 405.194>
LayerCount: 2
Fore
SplineSet
132.601 500.82 m 4
 131.601 500.82 130.601 500.75 129.601 500.57 c 4
 119.101 498.66 111 485.46 107.301 455.101 c 5
 138 381.22 l 5
 138 430.42 145.101 450.79 155.199 455.05 c 4
 170.9 461.69 194 429.05 209.101 405.55 c 5
 215 300.54 213 238.4 177 233.88 c 4
 161.101 231.88 138.601 241.08 107.301 262.75 c 5
 107.301 120.101 l 5
 138 87.5 l 5
 138 220.25 l 5
 170.9 211.431 193.601 210.63 209.101 216.101 c 4
 252.699 231.48 239.9 296.561 239.9 372.95 c 5
 216.199 408.181 164.699 500.37 132.601 500.82 c 4
280.199 634.17 m 4
 313.801 634.17 336.801 621.271 336.801 588.521 c 6
 336.801 98.1699 l 6
 336.801 42.3203 12.1992 -126.319 12.1992 0 c 6
 12.1992 490.351 l 6
 12.1992 536.47 187.199 634.17 280.199 634.17 c 4
EndSplineSet
Validated: 33
EndChar

StartChar: uni247B
Encoding: 9339 9339 119
Width: 349
VWidth: 0
Flags: W
HStem: 274.72 20G<187.65 200.95> 337.72 21G<214.851 215.05>
VStem: 12.2002 103.9<82.7261 249.8> 12.2002 88.0996<244.106 412.313> 131 71.1006<308.107 440.61> 146.9 71<146.728 280.23> 232.9 103.899<338.325 507.269> 248.7 88.0996<177.032 345.657>
LayerCount: 2
Fore
SplineSet
193.5 294.72 m 4xc4
 208.4 294.72 217.7 287.08 217.9 245.38 c 6
 217.9 176.851 l 5
 203.3 154.08 181.2 122.63 165.5 126.82 c 4
 155.9 129.4 146.9 149.55 146.9 201.15 c 6
 146.9 250.55 l 5
 166.601 283.33 181.8 294.72 193.5 294.72 c 4xc4
177.601 452.7 m 4
 192.601 452.7 201.9 437.71 202.101 406.75 c 6
 202.101 338.22 l 5
 195.8 328.41 188.101 317.011 180.101 307.521 c 4
 180 307.38 179.9 307.22 179.7 307.07 c 4
 169.101 294.601 158.4 285.86 149.601 288.2 c 4
 140 290.78 131 310.931 131 362.521 c 6
 131 411.891 l 5xc8
 150.8 444.681 165.9 452.7 177.601 452.7 c 4
214.3 507.27 m 4
 182.9 508.189 120.4 409.8 100.3 379.351 c 5
 100.3 288.95 l 5
 100.3 288.65 l 5xd2
 100.3 261.71 105 248.141 112.8 243.9 c 4
 119.4 240.36 128 243.32 137.7 250.42 c 5
 128.7 237.17 121.101 225.48 116.101 217.97 c 5
 116.101 127.57 l 5
 116.101 127.271 l 5
 116.101 100.33 120.9 86.7607 128.7 82.5205 c 4
 156.601 67.3506 223.3 171.62 248.7 209.45 c 5
 248.7 299.92 l 5
 248.7 300.12 l 5xe1
 248.601 329.811 242.601 343.08 233.101 345.5 c 4
 226.9 347.09 219.101 343.96 210.601 337.72 c 5
 219.5 350.65 227.2 362.42 232.9 370.82 c 5
 232.9 461.5 l 6xc2
 232.8 491.189 226.7 504.459 217.3 506.879 c 4
 216.3 507.109 215.4 507.27 214.3 507.27 c 4
280.3 634.17 m 4
 313.9 634.17 336.8 621.27 336.8 588.52 c 6
 336.8 98.1699 l 6xd1
 336.8 42.3203 12.2002 -126.319 12.2002 0 c 6
 12.2002 490.35 l 6
 12.2002 536.469 187.3 634.17 280.3 634.17 c 4
EndSplineSet
Validated: 33
EndChar

StartChar: uni247C
Encoding: 9340 9340 120
Width: 349
VWidth: 0
Flags: W
HStem: 295.52 20G<197.75 210.101> 500.619 133.551<188.071 239.166>
VStem: 12.1992 96<236.146 409.454> 139 71.1006<153.199 207.27 300.786 435.978> 240.801 96<182.606 500.44>
LayerCount: 2
Fore
SplineSet
190.699 459.049 m 4
 206.301 459.76 210.101 435.74 210.101 382.52 c 6
 210.101 331.02 l 5
 196.5 309.939 176.5 281.48 161.199 280.65 c 4
 139.699 279.811 139 338.189 139 355.32 c 6
 139 406.82 l 5
 147.101 420.27 172.301 456.52 189.199 458.9 c 4
 189.699 458.969 190.199 459.049 190.699 459.049 c 4
222.5 500.619 m 4
 191.601 501.529 130.5 410.58 108.199 379.92 c 5
 108.199 281.449 l 6
 108.199 248.709 121.699 235.449 133.801 235.75 c 4
 155.301 236.279 185.4 277.67 210.101 315.52 c 5
 210.101 182.949 l 5
 195.699 160.59 174.101 129.949 158.5 132.75 c 4
 147.199 134.77 139 154.34 139 207.27 c 5
 108.199 133.4 l 5
 111.301 108.24 117.4 94.8789 125.4 89.9492 c 4
 156.101 70.9395 215 177.1 240.801 215.529 c 5
 240.801 456.1 l 5
 240.801 456.4 l 5
 240.801 487.949 233.601 500.619 222.5 500.619 c 4
280.301 634.17 m 4
 314 634.17 336.801 621.27 336.801 588.52 c 6
 336.801 98.1699 l 6
 336.801 42.3203 12.1992 -126.32 12.1992 0 c 6
 12.1992 490.35 l 6
 12.1992 536.469 187.301 634.17 280.301 634.17 c 4
EndSplineSet
Validated: 33
EndChar

StartChar: uni24B6
Encoding: 9398 9398 121
Width: 642
VWidth: 0
Flags: W
HStem: -0.120117 31.1699<144.775 497.225> 278.5 19.9004G<11.6055 33.7803 605.979 630.395> 359.689 44.8906<329.105 367.785> 421.279 31.2207<144.846 497.145>
VStem: 11.6055 30.7695<199.699 255.9> 114.625 30.1504<31.0498 199.589 256.678 421.279> 254.695 30.8301<47.8096 168.921 207.009 299.141> 356.525 30.7695<47.8096 357.71> 497.225 30.1504<31.0498 199.695 256.498 421.279> 599.625 30.7695<199.8 256>
LayerCount: 2
Fore
SplineSet
144.846 421.279 m 5
 144.846 304.18 l 6
 144.846 272.04 144.955 252.939 131.295 245.63 c 4
 118.256 238.65 92.6543 242.43 42.375 255.9 c 5
 42.375 199.699 l 5
 100.285 215.22 125.465 217.88 136.395 206.05 c 4
 145.215 196.52 144.775 177.58 144.775 148.38 c 6
 144.775 31.0498 l 5
 497.225 31.0498 l 5
 497.225 148.48 l 6
 497.225 178.22 496.775 197.32 506.105 206.68 c 4
 517.295 217.91 542.564 215.09 599.625 199.8 c 5
 599.625 256 l 5
 543.295 240.91 517.926 237.97 506.494 248.699 c 4
 497.045 257.58 497.145 275.83 497.145 304.279 c 6
 497.145 421.279 l 5
 144.846 421.279 l 5
114.695 452.5 m 5
 527.295 452.05 l 5
 527.295 319.65 l 6
 527.295 283.369 530.584 263.51 540.846 257.15 c 4
 554.775 248.51 581.564 264.75 630.395 298.5 c 5
 630.395 157.3 l 5
 587.926 186.65 561.516 202.76 546.074 200.779 c 4
 532.445 199.029 527.375 183.18 527.375 149.88 c 6
 527.375 0 l 5
 114.625 -0.120117 l 5
 114.625 149.75 l 6
 114.625 181.43 110.025 197.32 97.8457 200.3 c 4
 82.7246 204.01 55.8945 187.82 11.6055 157.199 c 5
 11.6055 298.4 l 5
 55.9551 267.74 82.1055 251.54 96.9746 255.3 c 4
 110.525 258.73 114.695 278.75 114.695 319.55 c 6
 114.695 452.5 l 5
335.496 359.689 m 4
 315.125 359.689 297.336 329.75 285.525 309.3 c 5
 285.525 215.189 l 5
 306.484 209.119 333.795 171.279 356.525 136.39 c 5
 356.525 284.99 l 6
 356.525 340.3 347.605 359.189 335.496 359.689 c 4
361.746 404.58 m 4
 373.824 404.58 387.295 391.42 387.295 358.88 c 6
 387.295 47.8096 l 5
 356.525 47.8096 l 5
 356.525 120.91 l 5
 331.734 159.48 285.525 222.31 285.525 96.46 c 6
 285.525 47.8096 l 5
 254.695 47.8096 l 5
 254.695 276.73 l 5
 278.295 311.9 329.654 403.79 361.746 404.58 c 4
EndSplineSet
Validated: 33
EndChar

StartChar: uni24B7
Encoding: 9399 9399 122
Width: 642
VWidth: 0
Flags: W
HStem: -0.121094 31.1699<144.77 497.221> 278.5 19.8984G<11.5996 33.7803 605.98 630.4> 421.279 31.2207<144.85 497.15>
VStem: 11.5996 30.7695<199.699 255.898> 114.619 30.1504<31.0488 199.588 256.677 421.279> 254.641 30.7695<94.6583 160.422 182.313 189.955 221.398 372.328> 356.58 30.7793<153.243 232.45 254.685 264.712 287.75 363.109> 497.221 30.1484<31.0488 199.695 256.497 421.279> 599.619 30.7812<199.799 256>
LayerCount: 2
Fore
SplineSet
144.85 421.279 m 5
 144.85 304.18 l 6
 144.85 272.039 144.961 252.939 131.301 245.629 c 4
 118.25 238.648 92.6504 242.43 42.3691 255.898 c 5
 42.3691 199.699 l 5
 100.291 215.219 125.461 217.879 136.4 206.049 c 4
 145.211 196.52 144.77 177.578 144.77 148.379 c 6
 144.77 31.0488 l 5
 497.221 31.0488 l 5
 497.221 148.479 l 6
 497.221 178.219 496.779 197.318 506.1 206.68 c 4
 517.291 217.908 542.561 215.09 599.619 199.799 c 5
 599.619 256 l 5
 543.301 240.908 517.92 237.969 506.5 248.699 c 4
 497.051 257.578 497.15 275.828 497.15 304.279 c 6
 497.15 421.279 l 5
 144.85 421.279 l 5
114.699 452.5 m 5
 527.301 452.049 l 5
 527.301 319.648 l 6
 527.301 283.369 530.59 263.51 540.85 257.148 c 4
 554.779 248.51 581.561 264.75 630.4 298.5 c 5
 630.4 157.299 l 5
 587.92 186.648 561.51 202.76 546.07 200.779 c 4
 532.439 199.029 527.369 183.18 527.369 149.879 c 6
 527.369 0 l 5
 114.619 -0.121094 l 5
 114.619 149.75 l 6
 114.619 181.43 110.029 197.318 97.8496 200.299 c 4
 82.7207 204.01 55.9004 187.818 11.5996 157.199 c 5
 11.5996 298.398 l 5
 55.9609 267.738 82.1094 251.539 96.9707 255.299 c 4
 110.52 258.729 114.699 278.75 114.699 319.549 c 6
 114.699 452.5 l 5
344.461 232.459 m 4
 333.98 232.459 315.949 212.639 285.85 169.959 c 5
 285.85 144.42 l 5
 287.73 112.578 293.76 98 301.811 94.0293 c 4
 317.641 86.2383 341.291 119.439 356.58 143.26 c 5
 356.58 195.898 l 6
 356.43 219.779 353.15 232.459 344.461 232.459 c 4
340.561 363.158 m 4
 329.641 363.158 312.17 346.959 285.5 309.158 c 5
 285.5 290.76 l 6
 285.5 215.398 302.08 211.709 320.689 229.158 c 4
 324.279 233.34 327.85 237.328 331.391 241.01 c 4
 340.49 252.42 349.439 266.529 356.58 277.658 c 5
 356.58 319.109 l 6
 356.41 346.27 352.18 363.158 340.561 363.158 c 4
285.41 404.93 m 5
 285.41 322.18 l 5
 312.471 360.789 347.99 405.578 369.17 404.488 c 4
 380.119 403.93 387.24 391.09 387.359 358.729 c 5
 387.359 358.529 l 5
 387.359 310.26 l 5
 379.23 298.148 366.881 279.229 352.91 259.609 c 5
 372.59 272.209 387.189 265.979 387.359 219.529 c 5
 387.359 219.328 l 5
 387.359 175.859 l 5
 363.619 140.479 303.76 47.0488 273.25 47.4492 c 4
 262.01 47.5996 254.76 60.4785 254.76 93.6797 c 5
 254.76 93.9785 l 5
 254.76 137.379 l 5
 261.84 148.068 274.16 167.139 288.49 187.328 c 5
 269.01 174.949 254.76 181.568 254.76 228.078 c 5
 254.76 228.379 l 5
 254.641 372.328 l 5
 285.41 404.93 l 5
EndSplineSet
Validated: 33
EndChar

StartChar: uni24B8
Encoding: 9400 9400 123
Width: 642
VWidth: 0
Flags: W
HStem: -0.120117 31.1699<144.779 497.23> 278.501 19.8984G<11.5996 33.7803 605.985 630.4> 359.69 44.8887<329.306 351.815> 421.28 31.2207<144.85 497.15>
VStem: 11.5996 30.7715<199.7 255.899> 114.621 30.1582<31.0498 199.589 256.678 421.28> 254.699 30.7812<152.824 299.136> 356.529 30.7715<94.5525 110.307 342.071 357.847> 497.23 30.1406<31.0498 199.696 256.498 421.28> 599.621 30.7793<199.8 256.001>
LayerCount: 2
Fore
SplineSet
144.85 421.28 m 5
 144.85 304.181 l 6
 144.85 272.04 144.961 252.94 131.301 245.63 c 4
 118.26 238.649 92.6602 242.431 42.3711 255.899 c 5
 42.3711 199.7 l 5
 100.291 215.22 125.461 217.88 136.4 206.05 c 4
 145.211 196.521 144.779 177.579 144.779 148.38 c 6
 144.779 31.0498 l 5
 497.23 31.0498 l 5
 497.23 148.479 l 6
 497.23 178.22 496.779 197.319 506.1 206.681 c 4
 517.291 217.909 542.57 215.091 599.621 199.8 c 5
 599.621 256.001 l 5
 543.301 240.909 517.93 237.97 506.5 248.7 c 4
 497.051 257.579 497.15 275.829 497.15 304.28 c 6
 497.15 421.28 l 5
 144.85 421.28 l 5
114.699 452.501 m 5
 527.301 452.05 l 5
 527.301 319.649 l 6
 527.301 283.37 530.59 263.511 540.85 257.149 c 4
 554.779 248.511 581.57 264.751 630.4 298.501 c 5
 630.4 157.3 l 5
 587.93 186.649 561.51 202.761 546.08 200.78 c 4
 532.449 199.03 527.371 183.181 527.371 149.88 c 6
 527.371 0.000976562 l 5
 114.621 -0.120117 l 5
 114.621 149.751 l 6
 114.621 181.431 110.029 197.319 97.8496 200.3 c 4
 82.7305 204.011 55.9004 187.819 11.5996 157.2 c 5
 11.5996 298.399 l 5
 55.9609 267.739 82.1094 251.54 96.9805 255.3 c 4
 110.529 258.729 114.699 278.751 114.699 319.55 c 6
 114.699 452.501 l 5
361.75 404.579 m 4
 373.83 404.579 383.18 392.271 387.301 358.88 c 5
 356.529 284.989 l 5
 356.529 340.761 347.461 359.479 335.211 359.69 c 4
 319.779 359.94 299.279 330.8 285.48 309.3 c 5
 285.48 143.05 l 5
 299.301 121.54 319.82 92.3701 335.26 92.6904 c 4
 347.49 92.9404 356.529 111.69 356.529 167.38 c 5
 387.301 93.501 l 5
 383.359 61.54 374.621 48.6201 363.279 47.8408 c 4
 331.32 45.6201 278.68 139.921 254.699 175.649 c 5
 254.699 276.729 l 5
 278.301 311.89 329.66 403.79 361.75 404.579 c 4
EndSplineSet
Validated: 33
EndChar

StartChar: uni24B9
Encoding: 9401 9401 124
Width: 642
VWidth: 0
Flags: W
HStem: -0.120117 31.1699<144.781 497.201> 278.5 19.8994G<11.5996 33.7803 606 630.4> 421.28 31.2197<144.85 497.201>
VStem: 11.5996 30.7812<199.7 255.899> 114.631 30.1504<31.0498 199.589 256.678 421.28> 254.5 30.8008<96.344 267.232> 356.301 31.1992<47.7393 313.343 358.937 404.64> 497.201 30.1992<31.0498 199.763 256.498 421.28> 599.6 30.8008<199.8 256>
LayerCount: 2
Fore
SplineSet
328.701 318.94 m 4
 317.701 318.94 303.201 307.61 285.301 277.79 c 5
 285.301 169.14 l 6
 285.301 118.319 292.801 98.2705 303.4 94.96 c 4
 319.1 90.0693 341.5 121.829 356.301 144.84 c 5
 356.301 253.489 l 6
 356.1 286.409 347.1 318.94 328.701 318.94 c 4
356.6 404.64 m 5
 387.5 404.64 l 5
 387.5 47.7393 l 5
 356.6 47.7393 l 5
 356.6 132.29 l 5
 328.801 92.71 293.301 47.8291 272.4 49.0498 c 4
 261.5 49.6797 254.5 62.7002 254.5 95.2598 c 5
 254.5 95.5693 l 5
 254.5 245.21 l 5
 272.301 272.149 323.301 352.21 356.6 369.71 c 5
 356.6 404.64 l 5
144.85 421.28 m 5
 144.85 304.18 l 6
 144.85 272.04 144.961 252.94 131.301 245.63 c 4
 118.26 238.649 92.6602 242.43 42.3809 255.899 c 5
 42.3809 199.7 l 5
 100.301 215.22 125.471 217.88 136.41 206.05 c 4
 145.211 196.521 144.781 177.579 144.781 148.38 c 6
 144.781 31.0498 l 5
 497.201 31.0498 l 5
 497.201 148.479 l 6
 497.201 178.22 496.801 197.319 506.1 206.68 c 4
 517.301 217.909 542.6 215.09 599.6 199.8 c 5
 599.6 256 l 5
 543.301 240.909 517.9 237.97 506.5 248.7 c 4
 497.1 257.579 497.201 275.829 497.201 304.28 c 6
 497.201 421.28 l 5
 144.85 421.28 l 5
114.711 452.5 m 5
 527.301 452.05 l 5
 527.301 319.649 l 6
 527.301 283.37 530.6 263.51 540.9 257.149 c 4
 554.801 248.51 581.6 264.75 630.4 298.5 c 5
 630.4 157.3 l 5
 587.9 186.649 561.5 202.76 546.1 200.78 c 4
 532.5 199.03 527.4 183.18 527.4 149.88 c 6
 527.4 0 l 5
 114.631 -0.120117 l 5
 114.631 149.75 l 6
 114.631 181.43 110.031 197.319 97.8496 200.3 c 4
 82.7305 204.01 55.9102 187.819 11.5996 157.2 c 5
 11.5996 298.399 l 5
 55.9609 267.739 82.1211 251.54 96.9805 255.3 c 4
 110.531 258.729 114.711 278.75 114.711 319.55 c 6
 114.711 452.5 l 5
EndSplineSet
Validated: 33
EndChar

StartChar: uni24BA
Encoding: 9402 9402 125
Width: 642
VWidth: 0
Flags: W
HStem: -0.121094 31.1699<144.699 497.199> 278.5 19.8984G<11.5996 33.75 605.95 630.4> 421.279 31.2207<144.801 497.1>
VStem: 11.5996 30.7012<199.699 255.898> 114.6 30.0996<31.0488 199.588 256.677 421.279> 254.699 30.7012<152.815 299.136> 356.5 30.8008<94.7674 110.29 232.589 248.262 285.918 291.433> 497.199 30.1016<31.0488 199.695 256.497 421.279> 599.6 30.8008<199.799 256>
LayerCount: 2
Fore
SplineSet
144.801 421.279 m 5
 144.801 304.18 l 6
 144.801 272.039 144.9 252.939 131.301 245.629 c 4
 118.199 238.648 92.5996 242.43 42.3008 255.898 c 5
 42.3008 199.699 l 5
 100.301 215.219 125.4 217.879 136.4 206.049 c 4
 145.199 196.52 144.699 177.578 144.699 148.379 c 6
 144.699 31.0488 l 5
 497.199 31.0488 l 5
 497.199 148.479 l 6
 497.199 178.219 496.699 197.318 506.1 206.68 c 4
 517.301 217.908 542.5 215.09 599.6 199.799 c 5
 599.6 256 l 5
 543.301 240.908 517.9 237.969 506.5 248.699 c 4
 497 257.578 497.1 275.828 497.1 304.279 c 6
 497.1 421.279 l 5
 144.801 421.279 l 5
114.699 452.5 m 5
 527.301 452.049 l 5
 527.301 319.648 l 6
 527.301 283.369 530.6 263.51 540.801 257.148 c 4
 554.699 248.51 581.5 264.75 630.4 298.5 c 5
 630.4 157.299 l 5
 587.9 186.648 561.5 202.76 546 200.779 c 4
 532.4 199.029 527.301 183.18 527.301 149.879 c 6
 527.301 0 l 5
 114.6 -0.121094 l 5
 114.6 149.75 l 6
 114.6 181.43 110 197.318 97.8008 200.299 c 4
 82.6992 204.01 55.9004 187.818 11.5996 157.199 c 5
 11.5996 298.398 l 5
 55.9004 267.738 82.0996 251.539 96.9004 255.299 c 4
 110.5 258.729 114.699 278.75 114.699 319.549 c 6
 114.699 452.5 l 5
335.6 359.689 m 4
 320.1 360.49 299.4 330.979 285.4 309.299 c 5
 285.4 215.299 l 5
 308.1 250.129 335.5 287.949 356.4 294.18 c 5
 355.5 342.238 346.9 359.109 335.6 359.689 c 4
361.699 404.578 m 4
 373.801 404.578 383.1 392.27 387.301 358.879 c 5
 360.6 295 l 5
 373.199 296.09 383 283.76 387.301 249.379 c 5
 356.5 175.5 l 5
 356.5 229.949 347.9 249.09 336 250.148 c 4
 320.5 251.549 299.5 221.699 285.4 199.799 c 5
 285.4 143.049 l 5
 300.1 120.16 322.4 88.6191 338.1 93.1289 c 4
 348.9 96.2188 356.5 116.189 356.5 167.379 c 5
 387.301 93.5 l 5
 383.301 61.5586 374.6 48.6387 363.301 47.8398 c 4
 331.301 45.5781 278.699 139.908 254.699 175.648 c 5
 254.699 276.729 l 5
 278.301 311.889 329.6 403.789 361.699 404.578 c 4
EndSplineSet
Validated: 33
EndChar

StartChar: uni24BB
Encoding: 9403 9403 126
Width: 642
VWidth: 0
Flags: W
HStem: -0.119141 31.1699<144.775 497.225> 278.5 19.9004G<11.6055 33.7803 605.979 630.395> 421.28 31.2197<144.846 497.145>
VStem: 11.6055 30.7695<199.7 255.9> 114.625 30.1504<31.0508 199.588 256.679 421.28> 254.695 30.7793<47.8008 299.131> 356.525 30.7695<193.265 208.801 342.066 357.599> 497.225 30.1504<31.0508 199.696 256.499 421.28> 599.625 30.7695<199.801 256>
LayerCount: 2
Fore
SplineSet
144.846 421.28 m 5
 144.846 304.18 l 6
 144.846 272.041 144.955 252.94 131.295 245.631 c 4
 118.256 238.65 92.6543 242.43 42.375 255.9 c 5
 42.375 199.7 l 5
 100.285 215.221 125.465 217.881 136.395 206.051 c 4
 145.215 196.521 144.775 177.58 144.775 148.381 c 6
 144.775 31.0508 l 5
 497.225 31.0508 l 5
 497.225 148.48 l 6
 497.225 178.221 496.775 197.32 506.105 206.68 c 4
 517.295 217.91 542.564 215.09 599.625 199.801 c 5
 599.625 256 l 5
 543.295 240.91 517.926 237.971 506.494 248.7 c 4
 497.045 257.58 497.145 275.83 497.145 304.28 c 6
 497.145 421.28 l 5
 144.846 421.28 l 5
114.695 452.5 m 5
 527.295 452.051 l 5
 527.295 319.65 l 6
 527.295 283.371 530.584 263.51 540.846 257.15 c 4
 554.775 248.51 581.564 264.75 630.395 298.5 c 5
 630.395 157.301 l 5
 587.926 186.65 561.516 202.76 546.074 200.78 c 4
 532.445 199.03 527.375 183.18 527.375 149.881 c 6
 527.375 0 l 5
 114.625 -0.119141 l 5
 114.625 149.75 l 6
 114.625 181.43 110.025 197.311 97.8457 200.301 c 4
 82.7246 204.01 55.8945 187.82 11.6055 157.2 c 5
 11.6055 298.4 l 5
 55.9551 267.75 82.1055 251.541 96.9746 255.301 c 4
 110.525 258.73 114.695 278.75 114.695 319.551 c 6
 114.695 452.5 l 5
361.746 404.57 m 4
 373.824 404.57 383.176 392.271 387.295 358.871 c 5
 356.525 285 l 5
 356.525 342.15 347.006 360.4 334.285 359.67 c 4
 318.965 358.801 299.006 330.391 285.475 309.32 c 5
 285.475 176 l 5
 311.225 215.541 342.965 258.95 364.574 255.601 c 4
 375.285 253.94 383.506 240.811 387.295 210.07 c 5
 356.525 136.2 l 5
 356.525 188.25 348.625 208.03 337.615 210.601 c 4
 321.965 214.25 300.006 183.15 285.475 160.53 c 5
 285.475 47.8008 l 5
 254.695 47.8008 l 5
 254.695 276.721 l 5
 278.295 311.891 329.654 403.78 361.746 404.57 c 4
EndSplineSet
Validated: 33
EndChar

StartChar: uni24BC
Encoding: 9404 9404 127
Width: 642
VWidth: 0
Flags: W
HStem: -0.119141 31.1699<144.771 497.221> 278.5 19.9004G<11.6016 33.7812 605.979 630.398> 421.28 31.2197<144.852 497.148>
VStem: 11.6016 30.7676<199.7 255.9> 114.619 30.1514<31.0508 199.588 256.679 421.28> 254.699 30.7715<149.819 196.5 210.319 299.532> 356.521 30.7803<95.2817 210.2 342.479 357.883> 497.221 30.1484<31.0508 199.696 256.499 421.28> 599.619 30.7793<199.801 256>
LayerCount: 2
Fore
SplineSet
144.852 421.28 m 5
 144.852 304.18 l 6
 144.852 272.041 144.961 252.94 131.301 245.631 c 4
 118.252 238.65 92.6484 242.43 42.3691 255.9 c 5
 42.3691 199.7 l 5
 100.291 215.221 125.461 217.881 136.398 206.051 c 4
 145.211 196.521 144.771 177.58 144.771 148.381 c 6
 144.771 31.0508 l 5
 497.221 31.0508 l 5
 497.221 148.48 l 6
 497.221 178.221 496.779 197.32 506.102 206.68 c 4
 517.291 217.91 542.561 215.09 599.619 199.801 c 5
 599.619 256 l 5
 543.301 240.91 517.922 237.971 506.502 248.7 c 4
 497.051 257.58 497.148 275.83 497.148 304.28 c 6
 497.148 421.28 l 5
 144.852 421.28 l 5
114.699 452.5 m 5
 527.301 452.051 l 5
 527.301 319.65 l 6
 527.301 283.371 530.592 263.51 540.852 257.15 c 4
 554.779 248.51 581.561 264.75 630.398 298.5 c 5
 630.398 157.301 l 5
 587.922 186.65 561.512 202.76 546.068 200.78 c 4
 532.439 199.03 527.369 183.18 527.369 149.881 c 6
 527.369 0 l 5
 114.619 -0.119141 l 5
 114.619 149.75 l 6
 114.619 181.43 110.029 197.311 97.8516 200.301 c 4
 82.7207 204.01 55.8984 187.82 11.6016 157.2 c 5
 11.6016 298.4 l 5
 55.9609 267.75 82.1094 251.541 96.9707 255.301 c 4
 110.521 258.73 114.699 278.75 114.699 319.551 c 6
 114.699 452.5 l 5
356.521 210.2 m 5
 323.148 201.25 300.648 196.59 285.471 196.5 c 5
 285.471 143.45 l 5
 310.238 104.891 356.521 41.7598 356.521 167.78 c 6
 356.521 210.2 l 5
361.752 404.971 m 4
 373.832 404.971 383.182 392.67 387.301 359.28 c 5
 356.521 285.4 l 5
 356.521 411.41 310.238 348.25 285.471 309.7 c 5
 285.471 242.621 l 5
 290.811 191.07 314.648 202.49 387.301 252.7 c 5
 387.301 93.9004 l 6
 387.301 -28.3789 287.182 123.69 254.699 172.09 c 5
 254.699 277.121 l 5
 278.301 312.291 329.648 404.19 361.752 404.971 c 4
EndSplineSet
Validated: 33
EndChar

StartChar: uni24BD
Encoding: 9405 9405 128
Width: 642
VWidth: 0
Flags: W
HStem: 0 31.1758<144.775 497.225> 278.625 19.9033G<11.5996 33.7793 605.982 630.4> 421.403 31.2217<144.85 497.15>
VStem: 11.5996 30.7734<199.824 256.028> 114.627 30.1484<31.1758 199.714 256.798 421.403> 254.701 30.8242<47.8008 169.869 207.569 404.824> 356.525 30.7734<47.8008 404.824> 497.225 30.1523<31.1758 199.818 256.624 421.403> 599.623 30.7773<199.926 256.125>
LayerCount: 2
Fore
SplineSet
114.701 452.625 m 5
 527.299 452.176 l 5
 527.299 319.778 l 6
 527.299 283.492 530.592 263.637 540.85 257.278 c 4
 554.779 248.637 581.564 264.875 630.4 298.625 c 5
 630.4 157.426 l 5
 587.928 186.778 561.51 202.883 546.076 200.903 c 4
 532.447 199.149 527.377 183.301 527.377 150 c 6
 527.377 0.125 l 5
 114.627 0 l 5
 114.627 149.875 l 6
 114.627 181.555 110.029 197.442 97.8496 200.426 c 4
 82.7246 204.133 55.9004 187.942 11.5996 157.324 c 5
 11.5996 298.528 l 5
 55.959 267.871 82.1113 251.664 96.9746 255.426 c 4
 110.525 258.855 114.701 278.879 114.701 319.676 c 6
 114.701 452.625 l 5
144.85 421.403 m 5
 144.85 304.301 l 6
 144.85 272.164 144.959 253.059 131.299 245.75 c 4
 118.256 238.774 92.6582 242.555 42.373 256.028 c 5
 42.373 199.824 l 5
 100.291 215.344 125.467 218.004 136.4 206.176 c 4
 145.209 196.645 144.775 177.707 144.775 148.5 c 6
 144.775 31.1758 l 5
 497.225 31.1758 l 5
 497.225 148.602 l 6
 497.225 178.344 496.779 197.446 506.1 206.801 c 4
 517.291 218.031 542.568 215.215 599.623 199.926 c 5
 599.623 256.125 l 5
 543.303 241.035 517.924 238.094 506.502 248.824 c 4
 497.045 257.707 497.15 275.953 497.15 304.403 c 6
 497.15 421.403 l 5
 144.85 421.403 l 5
144.85 421.403 m 4
254.701 404.824 m 5
 285.299 404.824 l 5
 285.525 215.75 l 5
 306.49 209.68 333.799 171.84 356.525 136.949 c 5
 356.502 404.824 l 5
 387.299 404.824 l 5
 387.299 47.8008 l 5
 356.525 47.8008 l 5
 356.525 121.477 l 5
 341.779 144.418 319.447 175.938 303.775 171.227 c 4
 293.104 168.016 285.525 148.012 285.525 97.0283 c 6
 285.525 47.8008 l 5
 254.701 47.8008 l 5
 254.701 404.824 l 5
254.701 404.824 m 4
EndSplineSet
Validated: 33
EndChar

StartChar: uni24BE
Encoding: 9406 9406 129
Width: 642
VWidth: 0
Flags: W
HStem: -0.119141 31.1699<144.781 497.201> 278.5 19.9004G<11.5996 33.7803 606 630.4> 421.281 31.2188<144.85 497.201>
VStem: 11.5996 30.7812<199.701 255.9> 114.631 30.1504<31.0508 199.588 256.679 421.281> 305.6 30.8008<47.2598 372.531> 497.201 30.1992<31.0508 199.763 256.499 421.281> 599.6 30.8008<199.801 256>
LayerCount: 2
Fore
SplineSet
144.85 421.281 m 5
 144.85 304.18 l 6
 144.85 272.041 144.961 252.941 131.301 245.631 c 4
 118.26 238.65 92.6602 242.43 42.3809 255.9 c 5
 42.3809 199.701 l 5
 100.301 215.221 125.471 217.881 136.41 206.051 c 4
 145.211 196.521 144.781 177.58 144.781 148.381 c 6
 144.781 31.0508 l 5
 497.201 31.0508 l 5
 497.201 148.48 l 6
 497.201 178.221 496.801 197.32 506.1 206.68 c 4
 517.301 217.91 542.6 215.09 599.6 199.801 c 5
 599.6 256 l 5
 543.301 240.91 517.9 237.971 506.5 248.701 c 4
 497.1 257.58 497.201 275.83 497.201 304.281 c 6
 497.201 421.281 l 5
 144.85 421.281 l 5
114.711 452.5 m 5
 527.301 452.051 l 5
 527.301 319.65 l 6
 527.301 283.371 530.6 263.51 540.9 257.15 c 4
 554.801 248.51 581.6 264.75 630.4 298.5 c 5
 630.4 157.301 l 5
 587.9 186.65 561.5 202.76 546.1 200.781 c 4
 532.5 199.031 527.4 183.18 527.4 149.881 c 6
 527.4 0 l 5
 114.631 -0.119141 l 5
 114.631 149.75 l 6
 114.631 181.43 110.031 197.311 97.8496 200.301 c 4
 82.7305 204.01 55.9102 187.82 11.5996 157.201 c 5
 11.5996 298.4 l 5
 55.9609 267.75 82.1211 251.541 96.9805 255.301 c 4
 110.531 258.73 114.711 278.75 114.711 319.551 c 6
 114.711 452.5 l 5
305.6 372.531 m 5
 336.4 405.111 l 5
 336.4 47.2598 l 5
 305.6 47.2598 l 5
 305.6 372.531 l 5
EndSplineSet
Validated: 33
EndChar

StartChar: uni24BF
Encoding: 9407 9407 130
Width: 642
VWidth: 0
Flags: W
HStem: -0.121094 31.1699<144.699 497.199> 278.5 19.9004G<11.5996 33.75 605.95 630.4> 421.279 31.2207<144.801 497.1>
VStem: 11.5996 30.7012<199.699 255.9> 114.6 30.0996<31.0488 199.587 256.677 421.279> 254.699 30.7012<95.0961 110.892> 356.5 30.8008<153.533 404.039> 497.199 30.1016<31.0488 199.695 256.498 421.279> 599.6 30.8008<199.799 256>
LayerCount: 2
Fore
SplineSet
144.801 421.279 m 5
 144.801 304.18 l 6
 144.801 272.039 144.9 252.939 131.301 245.629 c 4
 118.199 238.65 92.5996 242.43 42.3008 255.9 c 5
 42.3008 199.699 l 5
 100.301 215.219 125.4 217.879 136.4 206.049 c 4
 145.199 196.52 144.699 177.58 144.699 148.379 c 6
 144.699 31.0488 l 5
 497.199 31.0488 l 5
 497.199 148.48 l 6
 497.199 178.219 496.699 197.32 506.1 206.68 c 4
 517.301 217.91 542.5 215.09 599.6 199.799 c 5
 599.6 256 l 5
 543.301 240.91 517.9 237.969 506.5 248.699 c 4
 497 257.58 497.1 275.83 497.1 304.279 c 6
 497.1 421.279 l 5
 144.801 421.279 l 5
114.699 452.5 m 5
 527.301 452.049 l 5
 527.301 319.65 l 6
 527.301 283.369 530.6 263.51 540.801 257.15 c 4
 554.699 248.51 581.5 264.75 630.4 298.5 c 5
 630.4 157.299 l 5
 587.9 186.65 561.5 202.76 546 200.779 c 4
 532.4 199.029 527.301 183.18 527.301 149.879 c 6
 527.301 0 l 5
 114.6 -0.121094 l 5
 114.6 149.75 l 6
 114.6 181.43 110 197.311 97.8008 200.299 c 4
 82.6992 204.01 55.9004 187.82 11.5996 157.199 c 5
 11.5996 298.4 l 5
 55.9004 267.75 82.0996 251.539 96.9004 255.299 c 4
 110.5 258.73 114.699 278.75 114.699 319.549 c 6
 114.699 452.5 l 5
387.301 176.199 m 5
 363.4 140.689 311.301 47.2891 279.301 48.3496 c 4
 267.6 48.7305 258.699 61.5391 254.699 94.0488 c 5
 285.4 167.92 l 5
 285.4 110.049 295.199 92.0703 308.199 93.2891 c 4
 323.4 94.7305 343.1 122.77 356.5 143.619 c 5
 356.5 404.039 l 5
 387.301 404.039 l 5
 387.301 176.199 l 5
EndSplineSet
Validated: 33
EndChar

StartChar: uni24C0
Encoding: 9408 9408 131
Width: 642
VWidth: 0
Flags: W
HStem: 0 31.1758<144.775 497.225> 278.625 19.8984G<11.5996 33.7793 605.982 630.4> 421.398 31.2266<144.85 497.15>
VStem: 11.5996 30.7734<199.824 256.023> 114.623 30.1523<31.1758 199.714 256.798 421.398> 254.838 30.6992<47.6357 195.94 233.2 404.988> 356.037 31.125<47.6357 137.819 261.89 404.988> 497.225 30.1523<31.1758 199.814 256.624 421.398> 599.623 30.7773<199.926 256.125>
LayerCount: 2
Fore
SplineSet
114.701 452.625 m 5
 527.299 452.176 l 5
 527.299 319.777 l 6
 527.299 283.492 530.588 263.636 540.85 257.277 c 4
 554.779 248.636 581.564 264.875 630.4 298.625 c 5
 630.4 157.426 l 5
 587.924 186.777 561.51 202.883 546.076 200.898 c 4
 532.447 199.148 527.377 183.301 527.377 150 c 6
 527.377 0.125 l 5
 114.623 0 l 5
 114.623 149.875 l 6
 114.623 181.554 110.029 197.438 97.8496 200.426 c 4
 82.7246 204.133 55.9004 187.941 11.5996 157.324 c 5
 11.5996 298.523 l 5
 55.959 267.871 82.1113 251.664 96.9746 255.426 c 4
 110.525 258.855 114.701 278.875 114.701 319.676 c 6
 114.701 452.625 l 5
144.85 421.398 m 5
 144.85 304.301 l 6
 144.85 272.164 144.959 253.059 131.299 245.75 c 4
 118.256 238.77 92.6582 242.551 42.373 256.023 c 5
 42.373 199.824 l 5
 100.287 215.344 125.467 218.004 136.4 206.176 c 4
 145.209 196.645 144.775 177.703 144.775 148.5 c 6
 144.775 31.1758 l 5
 497.225 31.1758 l 5
 497.225 148.602 l 6
 497.225 178.34 496.779 197.445 506.1 206.801 c 4
 517.291 218.031 542.568 215.215 599.623 199.926 c 5
 599.623 256.125 l 5
 543.303 241.035 517.924 238.094 506.502 248.824 c 4
 497.045 257.707 497.15 275.953 497.15 304.398 c 6
 497.15 421.398 l 5
 144.85 421.398 l 5
144.85 421.398 m 4
254.838 404.988 m 5
 285.338 404.988 l 5
 285.686 310.762 l 5
 300.412 287.836 322.725 256.219 338.412 260.836 c 4
 349.107 263.988 356.736 283.977 356.736 335.062 c 6
 356.736 404.988 l 5
 387.162 404.988 l 5
 387.162 261.188 l 6
 387.162 168.156 324.053 236.332 285.537 295.512 c 5
 285.537 241.512 l 5
 317.729 231.297 364.924 147.816 387.162 114.688 c 5
 387.162 47.6357 l 5
 356.037 47.6357 l 5
 356.037 147.262 l 5
 341.365 170.105 319.143 201.559 303.463 197.211 c 4
 294.365 194.691 287.475 180.125 285.537 144.812 c 5
 285.537 47.6357 l 5
 254.838 47.6357 l 5
 254.838 404.988 l 5
254.838 404.988 m 4
EndSplineSet
Validated: 33
EndChar

StartChar: uni24C1
Encoding: 9409 9409 132
Width: 642
VWidth: 0
Flags: W
HStem: -0.121094 31.1709<144.77 497.221> 278.51 19.9004G<11.5996 33.7803 605.98 630.4> 421.279 31.2305<144.85 497.15>
VStem: 11.5996 30.7695<199.709 255.91> 114.619 30.1504<31.0498 199.589 256.677 421.279> 254.699 30.7715<153.85 404.039> 356.52 30.7812<95.2424 110.851> 497.221 30.1484<31.0498 199.695 256.507 421.279> 599.619 30.7812<199.8 256.01>
LayerCount: 2
Fore
SplineSet
144.85 421.279 m 5
 144.85 304.18 l 6
 144.85 272.039 144.961 252.939 131.301 245.629 c 4
 118.25 238.65 92.6504 242.43 42.3691 255.91 c 5
 42.3691 199.709 l 5
 100.291 215.221 125.461 217.891 136.4 206.05 c 4
 145.211 196.52 144.77 177.59 144.77 148.379 c 6
 144.77 31.0498 l 5
 497.221 31.0498 l 5
 497.221 148.479 l 6
 497.221 178.22 496.779 197.329 506.1 206.68 c 4
 517.291 217.92 542.561 215.1 599.619 199.8 c 5
 599.619 256.01 l 5
 543.301 240.92 517.92 237.971 506.5 248.709 c 4
 497.051 257.59 497.15 275.83 497.15 304.279 c 6
 497.15 421.279 l 5
 144.85 421.279 l 5
114.699 452.51 m 5
 527.301 452.051 l 5
 527.301 319.66 l 6
 527.301 283.381 530.59 263.52 540.85 257.16 c 4
 554.779 248.52 581.561 264.76 630.4 298.51 c 5
 630.4 157.3 l 5
 587.92 186.659 561.51 202.76 546.07 200.779 c 4
 532.439 199.029 527.369 183.18 527.369 149.879 c 6
 527.369 0 l 5
 114.619 -0.121094 l 5
 114.619 149.75 l 6
 114.619 181.43 110.029 197.319 97.8496 200.3 c 4
 82.7207 204.01 55.9004 187.819 11.5996 157.209 c 5
 11.5996 298.41 l 5
 55.9609 267.75 82.1094 251.539 96.9707 255.301 c 4
 110.52 258.74 114.699 278.76 114.699 319.551 c 6
 114.699 452.51 l 5
254.699 176.209 m 5
 254.699 404.039 l 5
 285.471 404.039 l 5
 285.471 143.619 l 5
 299.77 121.359 321.25 90.8994 336.85 93.3789 c 4
 348.26 95.209 356.52 114.68 356.52 167.93 c 5
 387.301 94.0498 l 5
 383.16 60.4795 373.73 47.9199 361.551 48.3594 c 4
 329.449 49.5098 278.25 141.109 254.699 176.209 c 5
EndSplineSet
Validated: 33
EndChar

StartChar: uni24C2
Encoding: 9410 9410 133
Width: 642
VWidth: 0
Flags: W
HStem: -0.120117 31.1699<144.779 497.23> 278.51 19.8994G<11.5996 33.7803 605.985 630.4> 421.28 31.2295<144.85 497.15>
VStem: 11.5996 30.7715<199.71 255.909> 114.621 30.1582<31.0498 199.589 256.678 421.28> 203.791 30.7695<47.6094 317.072> 305.609 30.7812<47.6094 357.541> 407.439 30.7715<47.6094 352.172> 497.23 30.1406<31.0498 199.696 256.507 421.28> 599.621 30.7793<199.8 256.01>
LayerCount: 2
Fore
SplineSet
144.85 421.28 m 5
 144.85 304.18 l 6
 144.85 272.04 144.961 252.939 131.301 245.63 c 4
 118.26 238.649 92.6602 242.43 42.3711 255.909 c 5
 42.3711 199.71 l 5
 100.291 215.22 125.461 217.89 136.4 206.05 c 4
 145.211 196.52 144.779 177.59 144.779 148.38 c 6
 144.779 31.0498 l 5
 497.23 31.0498 l 5
 497.23 148.479 l 6
 497.23 178.22 496.779 197.329 506.1 206.68 c 4
 517.291 217.92 542.57 215.1 599.621 199.8 c 5
 599.621 256.01 l 5
 543.301 240.92 517.93 237.97 506.5 248.71 c 4
 497.051 257.59 497.15 275.829 497.15 304.28 c 6
 497.15 421.28 l 5
 144.85 421.28 l 5
114.699 452.51 m 5
 527.301 452.05 l 5
 527.301 319.659 l 6
 527.301 283.38 530.59 263.52 540.85 257.159 c 4
 554.779 248.52 581.57 264.76 630.4 298.51 c 5
 630.4 157.3 l 5
 587.93 186.659 561.51 202.76 546.08 200.78 c 4
 532.449 199.03 527.371 183.18 527.371 149.88 c 6
 527.371 0 l 5
 114.621 -0.120117 l 5
 114.621 149.75 l 6
 114.621 181.43 110.029 197.319 97.8496 200.3 c 4
 82.7305 204.01 55.9004 187.819 11.5996 157.21 c 5
 11.5996 298.409 l 5
 55.9609 267.749 82.1094 251.54 96.9805 255.3 c 4
 110.529 258.739 114.699 278.76 114.699 319.55 c 6
 114.699 452.51 l 5
203.791 47.6094 m 5
 203.791 277.59 l 6
 203.791 312.22 278.711 409.81 315.92 404.569 c 4
 328.211 402.84 336.391 389.89 336.391 359.739 c 5
 336.391 359.54 l 5
 336.391 325.659 l 5
 363.02 371.78 393 402.409 413.49 404.62 c 4
 428.34 406.229 438.211 392.909 438.211 359.739 c 5
 438.211 359.54 l 5
 438.211 47.6094 l 5
 407.439 47.6094 l 5
 407.439 285.86 l 5
 409.061 330.69 400.98 351.52 387.77 353.96 c 4
 374.33 356.45 355.59 339.88 336.391 310.159 c 5
 336.391 47.6094 l 5
 305.609 47.6094 l 5
 305.609 285.86 l 6
 305.609 336.8 297.82 357.89 285.449 359.35 c 4
 272.359 360.89 254.131 340.45 234.561 310.159 c 5
 234.561 47.6094 l 5
 203.791 47.6094 l 5
EndSplineSet
Validated: 33
EndChar

StartChar: uni24C3
Encoding: 9411 9411 134
Width: 642
VWidth: 0
Flags: W
HStem: -0.120117 31.1699<144.781 497.201> 278.51 19.8994G<11.5996 33.7803 606 630.4> 421.28 31.2295<144.85 497.201>
VStem: 11.5996 30.7812<199.71 255.909> 114.631 30.1504<31.0498 199.589 256.678 421.28> 254.701 30.7988<47.8799 404.499> 356.5 30.8008<47.8799 357.507> 497.201 30.1992<31.0498 199.766 256.507 421.28> 599.6 30.8008<199.8 256.01>
LayerCount: 2
Fore
SplineSet
144.85 421.28 m 5
 144.85 304.18 l 6
 144.85 272.04 144.961 252.939 131.301 245.63 c 4
 118.26 238.649 92.6602 242.43 42.3809 255.909 c 5
 42.3809 199.71 l 5
 100.291 215.22 125.471 217.89 136.41 206.05 c 4
 145.211 196.52 144.781 177.59 144.781 148.38 c 6
 144.781 31.0498 l 5
 497.201 31.0498 l 5
 497.201 148.479 l 6
 497.201 178.22 496.801 197.329 506.1 206.68 c 4
 517.301 217.92 542.6 215.1 599.6 199.8 c 5
 599.6 256.01 l 5
 543.301 240.92 517.9 237.97 506.5 248.71 c 4
 497.1 257.59 497.201 275.829 497.201 304.28 c 6
 497.201 421.28 l 5
 144.85 421.28 l 5
114.711 452.51 m 5
 527.301 452.05 l 5
 527.301 319.659 l 6
 527.301 283.38 530.6 263.52 540.9 257.159 c 4
 554.801 248.52 581.6 264.76 630.4 298.51 c 5
 630.4 157.3 l 5
 587.9 186.659 561.5 202.76 546.1 200.78 c 4
 532.5 199.03 527.4 183.18 527.4 149.88 c 6
 527.4 0 l 5
 114.631 -0.120117 l 5
 114.631 149.75 l 6
 114.631 181.43 110.031 197.319 97.8496 200.3 c 4
 82.7305 204.01 55.9102 187.819 11.5996 157.21 c 5
 11.5996 298.409 l 5
 55.9609 267.749 82.1094 251.54 96.9805 255.3 c 4
 110.531 258.739 114.711 278.76 114.711 319.55 c 6
 114.711 452.51 l 5
387.301 47.8799 m 5
 356.5 47.8799 l 5
 356.5 284.92 l 6
 356.5 342.02 347 360.29 334.301 359.6 c 4
 319 358.76 299 330.31 285.5 309.22 c 5
 285.5 47.8799 l 5
 254.701 47.8799 l 5
 254.701 404.499 l 5
 285.5 404.499 l 5
 285.5 324.7 l 5
 310.1 362.55 340.301 403.97 361.801 404.499 c 4
 373.801 404.79 387.301 391.35 387.301 358.8 c 6
 387.301 47.8799 l 5
EndSplineSet
Validated: 33
EndChar

StartChar: uni24C4
Encoding: 9412 9412 135
Width: 642
VWidth: 0
Flags: W
HStem: -0.121094 31.1699<144.699 497.199> 278.51 19.9004G<11.5996 33.75 605.95 630.4> 421.279 31.2305<144.801 497.1>
VStem: 11.5996 30.7012<199.709 255.91> 114.6 30.0996<31.0488 199.588 256.677 421.279> 254.699 30.7012<94.2437 300.355> 356.5 30.8008<154.007 345.291> 497.199 30.1016<31.0488 199.695 256.507 421.279> 599.6 30.8008<199.799 256.01>
LayerCount: 2
Fore
SplineSet
144.801 421.279 m 5
 144.801 304.18 l 6
 144.801 272.039 144.9 252.939 131.301 245.629 c 4
 118.199 238.65 92.5996 242.43 42.3008 255.91 c 5
 42.3008 199.709 l 5
 100.301 215.219 125.4 217.889 136.4 206.049 c 4
 145.199 196.52 144.699 177.59 144.699 148.379 c 6
 144.699 31.0488 l 5
 497.199 31.0488 l 5
 497.199 148.48 l 6
 497.199 178.219 496.699 197.33 506.1 206.68 c 4
 517.301 217.92 542.5 215.1 599.6 199.799 c 5
 599.6 256.01 l 5
 543.301 240.92 517.9 237.969 506.5 248.709 c 4
 497 257.59 497.1 275.83 497.1 304.279 c 6
 497.1 421.279 l 5
 144.801 421.279 l 5
114.699 452.51 m 5
 527.301 452.049 l 5
 527.301 319.66 l 6
 527.301 283.379 530.6 263.52 540.801 257.16 c 4
 554.699 248.52 581.5 264.76 630.4 298.51 c 5
 630.4 157.299 l 5
 587.9 186.66 561.5 202.76 546 200.779 c 4
 532.4 199.029 527.301 183.18 527.301 149.879 c 6
 527.301 0 l 5
 114.6 -0.121094 l 5
 114.6 149.75 l 6
 114.6 181.43 110 197.32 97.8008 200.299 c 4
 82.6992 204.01 55.9004 187.82 11.5996 157.209 c 5
 11.5996 298.41 l 5
 55.9004 267.75 82.0996 251.539 96.9004 255.299 c 4
 110.5 258.74 114.699 278.76 114.699 319.549 c 6
 114.699 452.51 l 5
356.5 285.77 m 6
 356.5 317.77 347.801 349.219 330.4 351.129 c 4
 319.1 352.359 304.199 341.27 285.4 310.07 c 5
 285.4 167.07 l 6
 285.4 119.43 292.1 98.8301 301.6 93.7188 c 4
 317.4 85.2988 341.1 118.799 356.5 142.77 c 5
 356.5 285.77 l 6
254.699 277.49 m 5
 274.6 307.59 335.801 404.039 367.6 405.41 c 4
 379.4 405.91 387.1 393.389 387.301 359.639 c 6
 387.301 175.379 l 5
 362.4 138.32 297.9 37.5488 269 47.6797 c 4
 260.199 50.7793 254.699 64.2793 254.699 93.1992 c 5
 254.699 93.5 l 5
 254.699 277.49 l 5
EndSplineSet
Validated: 33
EndChar

StartChar: uni24C5
Encoding: 9413 9413 136
Width: 642
VWidth: 0
Flags: W
HStem: -0.119141 31.1797<144.775 497.225> 278.5 19.9004G<11.6055 33.7803 605.979 630.395> 421.28 31.2197<144.846 497.145>
VStem: 11.6055 30.7695<199.7 255.9> 114.625 30.1504<31.0605 199.598 256.679 421.28> 254.695 30.7793<80.6807 356.827> 356.525 30.7695<181.685 298.625> 497.225 30.1504<31.0605 199.696 256.503 421.28> 599.625 30.7695<199.811 256>
LayerCount: 2
Fore
SplineSet
144.846 421.28 m 5
 144.846 304.181 l 6
 144.846 272.04 144.955 252.94 131.295 245.631 c 4
 118.256 238.65 92.6543 242.431 42.375 255.9 c 5
 42.375 199.7 l 5
 100.285 215.221 125.465 217.881 136.395 206.061 c 4
 145.215 196.521 144.775 177.58 144.775 148.381 c 6
 144.775 31.0605 l 5
 497.225 31.0605 l 5
 497.225 148.48 l 6
 497.225 178.221 496.775 197.32 506.105 206.681 c 4
 517.295 217.91 542.564 215.09 599.625 199.811 c 5
 599.625 256 l 5
 543.295 240.91 517.926 237.971 506.494 248.7 c 4
 497.045 257.59 497.145 275.83 497.145 304.28 c 6
 497.145 421.28 l 5
 144.846 421.28 l 5
114.695 452.5 m 5
 527.295 452.061 l 5
 527.295 319.65 l 6
 527.295 283.37 530.584 263.511 540.846 257.15 c 4
 554.775 248.511 581.564 264.75 630.395 298.5 c 5
 630.395 157.311 l 5
 587.926 186.66 561.516 202.761 546.074 200.78 c 4
 532.445 199.03 527.375 183.181 527.375 149.881 c 6
 527.375 0 l 5
 114.625 -0.119141 l 5
 114.625 149.75 l 6
 114.625 181.431 110.025 197.32 97.8457 200.311 c 4
 82.7246 204.011 55.8945 187.82 11.6055 157.2 c 5
 11.6055 298.4 l 5
 55.9551 267.75 82.1055 251.54 96.9746 255.311 c 4
 110.525 258.73 114.695 278.75 114.695 319.561 c 6
 114.695 452.5 l 5
306.375 358.86 m 4
 294.336 358.24 285.475 339.311 285.475 284.181 c 6
 285.475 231.54 l 5
 311.715 195.75 329.086 180.681 340.125 181.49 c 4
 350.365 182.24 355.186 196.67 356.525 220.931 c 5
 356.525 308.48 l 5
 342.596 330.17 321.855 359.65 306.375 358.86 c 4
272.746 404.28 m 4
 303.115 405.61 363.445 311.431 387.295 275.881 c 5
 387.295 182.16 l 5
 387.295 181.961 l 5
 387.195 154.471 382.045 141.061 373.775 137.311 c 4
 353.535 128.12 314.635 176.74 285.475 218.311 c 5
 285.475 80.6807 l 5
 254.695 48.0898 l 5
 254.695 357.761 l 5
 254.695 358.061 l 5
 254.695 390.82 261.766 403.811 272.746 404.28 c 4
EndSplineSet
Validated: 33
EndChar

StartChar: uni24C6
Encoding: 9414 9414 137
Width: 642
VWidth: 0
Flags: W
HStem: -0.120117 31.1807<144.771 497.221> 278.5 19.9004G<11.6016 33.7812 605.979 630.398> 421.28 31.2197<144.852 497.148>
VStem: 11.6016 30.7676<199.7 255.9> 114.619 30.1514<31.0605 199.598 256.678 421.28> 254.699 30.8027<182.458 298.624> 356.521 30.7803<80.6797 356.827> 497.221 30.1484<31.0605 199.696 256.503 421.28> 599.619 30.7793<199.811 256>
LayerCount: 2
Fore
SplineSet
144.852 421.28 m 5
 144.852 304.18 l 6
 144.852 272.04 144.961 252.94 131.301 245.63 c 4
 118.252 238.65 92.6484 242.43 42.3691 255.9 c 5
 42.3691 199.7 l 5
 100.291 215.221 125.461 217.88 136.398 206.061 c 4
 145.211 196.521 144.771 177.58 144.771 148.38 c 6
 144.771 31.0605 l 5
 497.221 31.0605 l 5
 497.221 148.48 l 6
 497.221 178.221 496.779 197.32 506.102 206.68 c 4
 517.291 217.91 542.561 215.09 599.619 199.811 c 5
 599.619 256 l 5
 543.301 240.91 517.922 237.971 506.502 248.7 c 4
 497.051 257.59 497.148 275.83 497.148 304.28 c 6
 497.148 421.28 l 5
 144.852 421.28 l 5
114.699 452.5 m 5
 527.301 452.061 l 5
 527.301 319.65 l 6
 527.301 283.37 530.592 263.51 540.852 257.15 c 4
 554.779 248.51 581.561 264.75 630.398 298.5 c 5
 630.398 157.311 l 5
 587.922 186.66 561.512 202.76 546.068 200.78 c 4
 532.439 199.03 527.369 183.18 527.369 149.88 c 6
 527.369 0 l 5
 114.619 -0.120117 l 5
 114.619 149.75 l 6
 114.619 181.43 110.029 197.32 97.8516 200.311 c 4
 82.7207 204.01 55.8984 187.82 11.6016 157.2 c 5
 11.6016 298.4 l 5
 55.9609 267.75 82.1094 251.54 96.9707 255.311 c 4
 110.521 258.73 114.699 278.75 114.699 319.561 c 6
 114.699 452.5 l 5
335.619 358.86 m 4
 320.141 359.65 299.432 330.17 285.502 308.48 c 5
 285.502 220.93 l 5
 286.689 199.471 290.568 185.71 298.541 182.29 c 4
 309.291 177.68 327.471 191.91 356.521 231.54 c 5
 356.521 284.18 l 6
 356.521 339.311 347.658 358.24 335.619 358.86 c 4
369.252 404.28 m 4
 380.229 403.811 387.301 390.82 387.301 358.061 c 5
 387.301 357.76 l 5
 387.301 48.0898 l 5
 356.521 80.6797 l 5
 356.521 218.311 l 5
 328.252 178 290.818 131.07 270.119 136.63 c 4
 260.752 139.141 254.811 152.43 254.699 181.96 c 5
 254.699 182.16 l 5
 254.699 275.88 l 5
 278.551 311.43 338.881 405.61 369.252 404.28 c 4
EndSplineSet
Validated: 33
EndChar

StartChar: uni24C7
Encoding: 9415 9415 138
Width: 642
VWidth: 0
Flags: W
HStem: -0.120117 31.1797<144.779 497.23> 278.5 19.8994G<11.5996 33.7803 605.985 630.4> 358.41 46.25<290.266 306.231> 421.28 31.2197<144.85 497.15>
VStem: 11.5996 30.7715<199.7 255.899> 114.621 30.1582<31.0596 199.597 256.678 421.28> 254.621 30.7793<47.7295 168.433 205.69 355.792> 356.6 30.7715<47.7295 108.097 209.967 300.237> 497.23 30.1406<31.0596 199.696 256.503 421.28> 599.621 30.7793<199.81 256>
LayerCount: 2
Fore
SplineSet
144.85 421.28 m 5
 144.85 304.18 l 6
 144.85 272.04 144.961 252.94 131.301 245.63 c 4
 118.26 238.649 92.6602 242.43 42.3711 255.899 c 5
 42.3711 199.7 l 5
 100.291 215.22 125.461 217.88 136.4 206.06 c 4
 145.211 196.521 144.779 177.58 144.779 148.38 c 6
 144.779 31.0596 l 5
 497.23 31.0596 l 5
 497.23 148.479 l 6
 497.23 178.22 496.779 197.319 506.1 206.68 c 4
 517.291 217.91 542.57 215.09 599.621 199.81 c 5
 599.621 256 l 5
 543.301 240.91 517.93 237.97 506.5 248.7 c 4
 497.051 257.59 497.15 275.83 497.15 304.28 c 6
 497.15 421.28 l 5
 144.85 421.28 l 5
114.699 452.5 m 5
 527.301 452.06 l 5
 527.301 319.649 l 6
 527.301 283.37 530.59 263.51 540.85 257.149 c 4
 554.779 248.51 581.57 264.75 630.4 298.5 c 5
 630.4 157.31 l 5
 587.93 186.66 561.51 202.76 546.08 200.78 c 4
 532.449 199.03 527.371 183.18 527.371 149.88 c 6
 527.371 0 l 5
 114.621 -0.120117 l 5
 114.621 149.75 l 6
 114.621 181.43 110.029 197.319 97.8496 200.31 c 4
 82.7305 204.01 55.9004 187.819 11.5996 157.2 c 5
 11.5996 298.399 l 5
 55.9609 267.75 82.1094 251.54 96.9805 255.31 c 4
 110.529 258.729 114.699 278.75 114.699 319.56 c 6
 114.699 452.5 l 5
308.48 358.41 m 4
 293.961 358.89 285.75 336.069 285.529 286.76 c 6
 285.529 268.5 l 5
 300.23 245.63 322.529 208.44 338.211 208.33 c 4
 348.949 208.26 356.6 225.58 356.6 276.81 c 6
 356.6 311.06 l 5
 333.75 341.33 320.5 358.41 308.48 358.41 c 4
272.9 404.66 m 4
 303.381 404.66 363.881 312.01 387.371 278.479 c 5
 387.371 219.229 l 5
 387.371 218.93 l 5
 383.801 189.92 376.27 176.6 366.439 173.8 c 4
 344.76 167.63 311.891 212.55 285.4 253.26 c 5
 285.4 214 l 5
 317.59 203.79 364.439 120.31 386.68 87.1797 c 5
 386.68 47.7295 l 5
 355.9 47.7295 l 5
 355.9 119.75 l 5
 342.041 141.33 321.43 170.63 305.98 170.12 c 4
 295.59 169.78 287.52 155.97 285.4 117.31 c 5
 285.4 47.7295 l 5
 254.621 47.7295 l 5
 254.779 360.43 l 5
 254.779 360.63 l 5
 254.779 392.31 261.871 404.66 272.9 404.66 c 4
EndSplineSet
Validated: 33
EndChar

StartChar: uni24C8
Encoding: 9416 9416 139
Width: 642
VWidth: 0
Flags: W
HStem: -0.121094 31.1816<144.781 497.201> 278.5 19.9004G<11.5996 33.7803 606 630.4> 359.391 44.8887<327.64 350.167> 421.279 31.2207<144.85 497.201>
VStem: 11.5996 30.7812<199.699 255.9> 114.631 30.1504<31.0605 199.598 256.677 421.279> 253 30.8008<94.8765 110.58 264.641 298.828> 354.801 30.7988<341.801 357.414> 497.201 30.1992<31.0605 199.763 256.502 421.279> 599.6 30.8008<199.811 256>
LayerCount: 2
Fore
SplineSet
144.85 421.279 m 5
 144.85 304.18 l 6
 144.85 272.039 144.961 252.939 131.301 245.629 c 4
 118.26 238.65 92.6602 242.43 42.3809 255.9 c 5
 42.3809 199.699 l 5
 100.301 215.221 125.471 217.879 136.41 206.061 c 4
 145.211 196.52 144.781 177.58 144.781 148.379 c 6
 144.781 31.0605 l 5
 497.201 31.0605 l 5
 497.201 148.48 l 6
 497.201 178.221 496.801 197.32 506.1 206.68 c 4
 517.301 217.91 542.6 215.09 599.6 199.811 c 5
 599.6 256 l 5
 543.301 240.91 517.9 237.971 506.5 248.699 c 4
 497.1 257.59 497.201 275.83 497.201 304.279 c 6
 497.201 421.279 l 5
 144.85 421.279 l 5
114.711 452.5 m 5
 527.301 452.061 l 5
 527.301 319.65 l 6
 527.301 283.369 530.6 263.51 540.9 257.15 c 4
 554.801 248.51 581.6 264.75 630.4 298.5 c 5
 630.4 157.311 l 5
 587.9 186.66 561.5 202.76 546.1 200.779 c 4
 532.5 199.029 527.4 183.18 527.4 149.879 c 6
 527.4 0 l 5
 114.631 -0.121094 l 5
 114.631 149.75 l 6
 114.631 181.43 110.031 197.32 97.8496 200.311 c 4
 82.7305 204.01 55.9102 187.82 11.5996 157.199 c 5
 11.5996 298.4 l 5
 55.9609 267.75 82.1211 251.539 96.9805 255.311 c 4
 110.531 258.73 114.711 278.75 114.711 319.561 c 6
 114.711 452.5 l 5
360.1 404.279 m 4
 372.1 404.279 381.5 391.98 385.6 358.59 c 5
 354.801 284.721 l 5
 354.801 340.029 345.9 358.891 333.801 359.391 c 4
 318.301 360.02 297.701 330.65 283.801 309.02 c 5
 283.801 264.641 l 5
 375.301 289.17 395.5 251.189 387.4 189.439 c 6
 385.6 175.939 l 5
 361.201 139.58 307.1 42.5605 275.4 48.3301 c 4
 264.801 50.2402 256.801 63.4199 253 93.7891 c 5
 283.801 167.67 l 5
 283.801 117.75 291 97.5098 301.4 93.6699 c 4
 317.1 87.8203 339.9 120.061 354.801 143.34 c 5
 356.1 188.68 l 6
 357.301 232.721 343.701 254.84 314 250.891 c 4
 298.301 248.789 278 239.42 253 222.141 c 5
 253 276.42 l 5
 276.6 311.58 328 403.49 360.1 404.279 c 4
EndSplineSet
Validated: 33
EndChar

StartChar: uni24C9
Encoding: 9417 9417 140
Width: 642
VWidth: 0
Flags: W
HStem: 0 31.1807<144.699 497.199> 278.62 19.9014G<11.5996 33.75 605.95 630.4> 421.4 31.2197<144.801 497.1>
VStem: 11.5996 30.7012<199.82 256.021> 114.6 30.0996<31.1807 199.718 256.798 421.4> 305.5 30.9004<48.0107 300.57 309.32 309.32> 407.5 30.8008<342.103 357.646> 497.199 30.1016<31.1807 199.816 256.623 421.4> 599.6 30.8008<199.931 256.12>
LayerCount: 2
Fore
SplineSet
144.801 421.4 m 5
 144.801 304.3 l 6
 144.801 272.16 144.9 253.061 131.301 245.75 c 4
 118.199 238.771 92.5996 242.55 42.3008 256.021 c 5
 42.3008 199.82 l 5
 100.301 215.341 125.4 218 136.4 206.181 c 4
 145.199 196.641 144.699 177.7 144.699 148.5 c 6
 144.699 31.1807 l 5
 497.199 31.1807 l 5
 497.199 148.601 l 6
 497.199 178.341 496.699 197.44 506.1 206.8 c 4
 517.301 218.03 542.5 215.21 599.6 199.931 c 5
 599.6 256.12 l 5
 543.301 241.03 517.9 238.091 506.5 248.82 c 4
 497 257.71 497.1 275.95 497.1 304.4 c 6
 497.1 421.4 l 5
 144.801 421.4 l 5
114.699 452.62 m 5
 527.301 452.181 l 5
 527.301 319.771 l 6
 527.301 283.49 530.6 263.63 540.801 257.271 c 4
 554.699 248.63 581.5 264.87 630.4 298.62 c 5
 630.4 157.431 l 5
 587.9 186.78 561.5 202.88 546 200.9 c 4
 532.4 199.15 527.301 183.3 527.301 150 c 6
 527.301 0.120117 l 5
 114.6 0 l 5
 114.6 149.87 l 6
 114.6 181.55 110 197.44 97.8008 200.431 c 4
 82.6992 204.13 55.9004 187.94 11.5996 157.32 c 5
 11.5996 298.521 l 5
 55.9004 267.87 82.0996 251.66 96.9004 255.431 c 4
 110.5 258.851 114.699 278.87 114.699 319.681 c 6
 114.699 452.62 l 5
203.699 358.891 m 5
 203.699 388.24 209.9 401.351 219.5 403.811 c 4
 245.699 410.48 297.5 338.88 320.9 300.57 c 5
 347.699 343 387.9 406.3 414.199 404.58 c 4
 425.6 403.83 434.301 390.931 438.301 358.891 c 5
 407.5 285.021 l 5
 407.5 338.12 399.301 357.63 387.9 359.54 c 4
 372.301 362.17 350.801 331.63 336.4 309.32 c 5
 336.4 48.0107 l 5
 305.5 48.0107 l 5
 305.5 309.32 l 5
 290.5 332.66 267.6 365.03 251.9 358.98 c 4
 241.699 355.04 234.4 334.75 234.4 285.021 c 5
 203.699 358.891 l 5
EndSplineSet
Validated: 33
EndChar

StartChar: uni24CA
Encoding: 9418 9418 141
Width: 642
VWidth: 0
Flags: W
HStem: -0.119141 31.1699<144.775 497.225> 278.5 19.9004G<11.6055 33.7803 605.979 630.395> 421.28 31.2197<144.846 497.145>
VStem: 11.6055 30.7695<199.7 255.9> 114.625 30.1504<31.0508 199.59 256.679 421.28> 254.695 30.7793<94.6836 404.7> 356.525 30.7695<47.6904 404.7> 497.225 30.1504<31.0508 199.696 256.499 421.28> 599.625 30.7695<199.801 256>
LayerCount: 2
Fore
SplineSet
144.846 421.28 m 5
 144.846 304.181 l 6
 144.846 272.041 144.955 252.94 131.295 245.631 c 4
 118.256 238.65 92.6543 242.431 42.375 255.9 c 5
 42.375 199.7 l 5
 100.285 215.221 125.465 217.881 136.395 206.051 c 4
 145.215 196.521 144.775 177.58 144.775 148.381 c 6
 144.775 31.0508 l 5
 497.225 31.0508 l 5
 497.225 148.48 l 6
 497.225 178.221 496.775 197.32 506.105 206.681 c 4
 517.295 217.91 542.564 215.091 599.625 199.801 c 5
 599.625 256 l 5
 543.295 240.91 517.926 237.971 506.494 248.7 c 4
 497.045 257.58 497.145 275.83 497.145 304.28 c 6
 497.145 421.28 l 5
 144.846 421.28 l 5
114.695 452.5 m 5
 527.295 452.051 l 5
 527.295 319.65 l 6
 527.295 283.371 530.584 263.521 540.846 257.15 c 4
 554.775 248.521 581.564 264.75 630.395 298.5 c 5
 630.395 157.301 l 5
 587.926 186.65 561.516 202.761 546.074 200.78 c 4
 532.445 199.03 527.375 183.181 527.375 149.881 c 6
 527.375 0 l 5
 114.625 -0.119141 l 5
 114.625 149.75 l 6
 114.625 181.431 110.025 197.32 97.8457 200.301 c 4
 82.7246 204.011 55.8945 187.82 11.6055 157.2 c 5
 11.6055 298.4 l 5
 55.9551 267.75 82.1055 251.541 96.9746 255.301 c 4
 110.525 258.73 114.695 278.75 114.695 319.551 c 6
 114.695 452.5 l 5
254.695 404.7 m 5
 285.475 404.7 l 5
 285.475 167.271 l 6
 285.475 110.171 294.975 91.9004 307.666 92.5908 c 4
 322.996 93.4307 342.975 121.881 356.525 142.971 c 5
 356.525 404.7 l 5
 387.295 404.7 l 5
 387.295 47.6904 l 5
 356.525 47.6904 l 5
 356.525 127.49 l 5
 331.875 89.6406 301.746 48.2207 280.246 47.6904 c 4
 268.166 47.3906 258.814 60 254.695 93.3906 c 5
 254.695 93.5908 l 5
 254.695 404.7 l 5
EndSplineSet
Validated: 33
EndChar

StartChar: uni24CB
Encoding: 9419 9419 142
Width: 642
VWidth: 0
Flags: W
HStem: 0 31.1699<144.771 497.221> 278.619 19.9004G<11.6016 33.7812 605.979 630.398> 421.4 31.2188<144.852 497.148>
VStem: 11.6016 30.7676<199.82 256.02> 114.619 30.1514<31.1699 199.709 256.798 421.4> 203.721 30.7812<342.089 357.623> 305.672 30.7773<153.479 299.147> 407.502 30.7686<95.0278 404.24> 497.221 30.1484<31.1699 199.816 256.618 421.4> 599.619 30.7793<199.92 256.119>
LayerCount: 2
Fore
SplineSet
144.852 421.4 m 5
 144.852 304.301 l 6
 144.852 272.16 144.961 253.061 131.301 245.75 c 4
 118.252 238.77 92.6484 242.551 42.3691 256.02 c 5
 42.3691 199.82 l 5
 100.291 215.34 125.461 218 136.398 206.17 c 4
 145.211 196.641 144.771 177.699 144.771 148.5 c 6
 144.771 31.1699 l 5
 497.221 31.1699 l 5
 497.221 148.6 l 6
 497.221 178.34 496.779 197.439 506.102 206.801 c 4
 517.291 218.029 542.561 215.211 599.619 199.92 c 5
 599.619 256.119 l 5
 543.301 241.029 517.922 238.09 506.502 248.82 c 4
 497.051 257.699 497.148 275.949 497.148 304.4 c 6
 497.148 421.4 l 5
 144.852 421.4 l 5
114.699 452.619 m 5
 527.301 452.17 l 5
 527.301 319.77 l 6
 527.301 283.49 530.592 263.641 540.852 257.27 c 4
 554.779 248.641 581.561 264.869 630.398 298.619 c 5
 630.398 157.42 l 5
 587.922 186.77 561.512 202.881 546.068 200.9 c 4
 532.439 199.15 527.369 183.301 527.369 150 c 6
 527.369 0.119141 l 5
 114.619 0 l 5
 114.619 149.869 l 6
 114.619 181.551 110.029 197.439 97.8516 200.42 c 4
 82.7207 204.131 55.8984 187.939 11.6016 157.32 c 5
 11.6016 298.52 l 5
 55.9609 267.869 82.1094 251.66 96.9707 255.42 c 4
 110.521 258.85 114.699 278.869 114.699 319.67 c 6
 114.699 452.619 l 5
229.271 404.58 m 4
 261.369 403.791 312.721 311.9 336.318 276.74 c 5
 336.449 143.311 l 5
 349.988 122.221 369.971 93.7695 385.301 92.9395 c 4
 397.988 92.2402 407.502 110.51 407.502 167.609 c 6
 407.502 404.24 l 5
 438.271 404.24 l 5
 438.271 93.9395 l 5
 438.271 93.7402 l 5
 434.148 60.3398 424.801 47.7402 412.721 48.0293 c 4
 380.631 48.8203 329.279 140.721 305.672 175.891 c 5
 305.551 309.311 l 5
 291.602 331.01 270.852 360.51 255.359 359.67 c 4
 243.342 359.02 234.502 340.08 234.502 285.01 c 5
 203.721 358.891 l 5
 207.842 392.27 217.189 404.58 229.271 404.58 c 4
EndSplineSet
Validated: 33
EndChar

StartChar: uni24CC
Encoding: 9420 9420 143
Width: 642
VWidth: 0
Flags: W
HStem: -0.120117 31.1699<144.779 497.23> 278.499 19.9004G<11.5996 33.7803 605.985 630.4> 421.279 31.2197<144.85 497.15>
VStem: 11.5996 30.7715<199.699 255.899> 114.621 30.1582<31.0498 199.589 256.678 421.279> 203.73 30.7695<106.272 393.1> 305.551 30.7695<163.26 393.1> 407.5 30.7793<106.272 393.1> 497.23 30.1406<31.0498 199.695 256.498 421.279> 599.621 30.7793<199.8 255.999>
LayerCount: 2
Fore
SplineSet
144.85 421.279 m 5
 144.85 304.18 l 6
 144.85 272.04 144.961 252.939 131.301 245.63 c 4
 118.26 238.649 92.6602 242.43 42.3711 255.899 c 5
 42.3711 199.699 l 5
 100.291 215.22 125.461 217.88 136.4 206.05 c 4
 145.211 196.52 144.779 177.579 144.779 148.38 c 6
 144.779 31.0498 l 5
 497.23 31.0498 l 5
 497.23 148.479 l 6
 497.23 178.22 496.779 197.319 506.1 206.68 c 4
 517.291 217.909 542.57 215.09 599.621 199.8 c 5
 599.621 255.999 l 5
 543.301 240.909 517.93 237.97 506.5 248.699 c 4
 497.051 257.579 497.15 275.829 497.15 304.279 c 6
 497.15 421.279 l 5
 144.85 421.279 l 5
114.699 452.499 m 5
 527.301 452.05 l 5
 527.301 319.649 l 6
 527.301 283.37 530.59 263.52 540.85 257.149 c 4
 554.779 248.52 581.57 264.749 630.4 298.499 c 5
 630.4 157.3 l 5
 587.93 186.649 561.51 202.76 546.08 200.779 c 4
 532.449 199.029 527.371 183.18 527.371 149.88 c 6
 527.371 -0.000976562 l 5
 114.621 -0.120117 l 5
 114.621 149.749 l 6
 114.621 181.43 110.029 197.319 97.8496 200.3 c 4
 82.7305 204.01 55.9004 187.819 11.5996 157.199 c 5
 11.5996 298.399 l 5
 55.9609 267.749 82.1094 251.54 96.9805 255.3 c 4
 110.529 258.729 114.699 278.749 114.699 319.55 c 6
 114.699 452.499 l 5
203.73 104.979 m 6
 203.73 393.1 l 5
 234.5 393.1 l 5
 234.5 178.85 l 6
 234.5 121.76 244 103.489 256.699 104.18 c 4
 272.029 105.02 292.01 133.47 305.551 154.55 c 5
 305.551 393.1 l 5
 336.32 393.1 l 5
 336.449 154.55 l 5
 350 133.47 369.98 105.02 385.301 104.18 c 4
 398 103.489 407.5 121.76 407.5 178.85 c 6
 407.5 393.1 l 5
 438.279 393.1 l 5
 438.279 104.979 l 6
 438.279 71.5596 424.801 58.9795 412.73 59.2793 c 4
 386.391 59.9297 347.301 121.6 321 163.26 c 5
 294.74 121.649 255.711 60.0791 229.371 59.2793 c 4
 205.99 59.2793 203.73 91.9199 203.73 104.979 c 6
EndSplineSet
Validated: 33
EndChar

StartChar: uni24CD
Encoding: 9421 9421 144
Width: 642
VWidth: 0
Flags: W
HStem: 0 31.1699<144.781 497.201> 207.18 30.96<254.6 305.6 336.4 387.4> 278.619 19.9004G<11.5996 33.7803 606 630.4> 348.66 44.9199<379.985 402.669> 421.399 31.2197<144.85 497.201>
VStem: 11.5996 30.7812<199.819 256.02> 114.631 30.1504<31.1699 199.709 256.798 421.399> 203.801 30.7988<105.873 121.551 331.068 346.745> 305.6 30.8008<154.33 207.18 238.14 289.68 298.279 298.279> 407.4 30.8008<105.696 121.55> 497.201 30.1992<31.1699 199.883 256.618 421.399> 599.6 30.8008<199.92 256.119>
LayerCount: 2
Fore
SplineSet
144.85 421.399 m 5
 144.85 304.3 l 6
 144.85 272.16 144.961 253.06 131.301 245.75 c 4
 118.26 238.77 92.6602 242.55 42.3809 256.02 c 5
 42.3809 199.819 l 5
 100.291 215.34 125.471 218 136.41 206.17 c 4
 145.211 196.64 144.781 177.699 144.781 148.5 c 6
 144.781 31.1699 l 5
 497.201 31.1699 l 5
 497.201 148.6 l 6
 497.201 178.34 496.801 197.439 506.1 206.8 c 4
 517.301 218.029 542.6 215.21 599.6 199.92 c 5
 599.6 256.119 l 5
 543.301 241.029 517.9 238.09 506.5 248.819 c 4
 497.1 257.699 497.201 275.949 497.201 304.399 c 6
 497.201 421.399 l 5
 144.85 421.399 l 5
114.711 452.619 m 5
 527.301 452.17 l 5
 527.301 319.77 l 6
 527.301 283.49 530.6 263.64 540.9 257.27 c 4
 554.801 248.64 581.6 264.869 630.4 298.619 c 5
 630.4 157.42 l 5
 587.9 186.77 561.5 202.88 546.1 200.899 c 4
 532.5 199.149 527.4 183.3 527.4 150 c 6
 527.4 0.119141 l 5
 114.631 0 l 5
 114.631 149.869 l 6
 114.631 181.55 110.031 197.439 97.8496 200.42 c 4
 82.7305 204.13 55.9102 187.939 11.5996 157.319 c 5
 11.5996 298.52 l 5
 55.9609 267.869 82.1094 251.66 96.9805 255.42 c 4
 110.531 258.85 114.711 278.869 114.711 319.67 c 6
 114.711 452.619 l 5
413.201 393.58 m 4
 430.4 393.58 438.201 363.199 438.201 347.859 c 5
 407.4 273.979 l 5
 407.4 329.99 398.301 348.619 386 348.66 c 4
 370.5 348.71 350.201 319.699 336.4 298.279 c 5
 336.4 238.14 l 5
 396.1 238.14 l 5
 387.4 222.68 l 5
 396.1 207.18 l 5
 336.4 207.18 l 5
 336.4 154.33 l 5
 350.201 132.91 370.5 103.89 386 103.93 c 4
 398.301 103.97 407.4 122.63 407.4 178.64 c 5
 438.201 104.76 l 5
 434.5 74.2402 426.301 61.0693 415.701 59.2598 c 4
 389.6 54.7695 348.4 119.64 321 162.93 c 5
 294.4 120.729 254.6 58.0693 228.301 59.0596 c 4
 216.701 59.4902 207.801 72.3193 203.801 104.76 c 5
 234.6 178.64 l 5
 234.6 128.779 241.801 108.529 252.1 104.66 c 4
 267.801 98.7402 290.6 131.029 305.6 154.33 c 5
 305.6 207.18 l 5
 245.9 207.18 l 5
 254.6 222.68 l 5
 245.9 238.14 l 5
 305.6 238.14 l 5
 305.6 298.279 l 5
 290.6 321.58 267.801 353.88 252.1 347.96 c 4
 241.801 344.08 234.6 323.84 234.6 273.979 c 5
 203.801 347.859 l 5
 207.801 380.29 216.701 393.14 228.301 393.58 c 4
 254.6 394.56 294.4 331.89 321 289.68 c 5
 347.5 331.63 387 393.58 413.201 393.58 c 4
EndSplineSet
Validated: 33
EndChar

StartChar: uni24CE
Encoding: 9422 9422 145
Width: 642
VWidth: 0
Flags: W
HStem: 0 31.1699<144.699 497.199> 278.621 19.9004G<11.5996 33.75 605.95 630.4> 421.4 31.2207<144.801 497.1>
VStem: 11.5996 30.7012<199.82 256.021> 114.6 30.0996<31.1699 199.709 256.798 421.4> 203.801 30.6992<338.244 353.798> 305.6 30.8008<168.572 336.131 342.172 357.678> 407.4 30.7988<47.9512 299.502> 497.199 30.1016<31.1699 199.816 256.619 421.4> 599.6 30.8008<199.92 256.121>
LayerCount: 2
Fore
SplineSet
144.801 421.4 m 5
 144.801 304.301 l 6
 144.801 272.16 144.9 253.061 131.301 245.75 c 4
 118.199 238.771 92.5996 242.551 42.3008 256.021 c 5
 42.3008 199.82 l 5
 100.301 215.34 125.4 218 136.4 206.17 c 4
 145.199 196.641 144.699 177.701 144.699 148.5 c 6
 144.699 31.1699 l 5
 497.199 31.1699 l 5
 497.199 148.602 l 6
 497.199 178.34 496.699 197.441 506.1 206.801 c 4
 517.301 218.031 542.5 215.211 599.6 199.92 c 5
 599.6 256.121 l 5
 543.301 241.031 517.9 238.09 506.5 248.82 c 4
 497 257.701 497.1 275.951 497.1 304.4 c 6
 497.1 421.4 l 5
 144.801 421.4 l 5
114.699 452.621 m 5
 527.301 452.17 l 5
 527.301 319.771 l 6
 527.301 283.49 530.6 263.641 540.801 257.271 c 4
 554.699 248.641 581.5 264.871 630.4 298.621 c 5
 630.4 157.42 l 5
 587.9 186.771 561.5 202.881 546 200.9 c 4
 532.4 199.15 527.301 183.301 527.301 150 c 6
 527.301 0.121094 l 5
 114.6 0 l 5
 114.6 149.871 l 6
 114.6 181.551 110 197.441 97.8008 200.42 c 4
 82.6992 204.131 55.9004 187.941 11.5996 157.32 c 5
 11.5996 298.521 l 5
 55.9004 267.871 82.0996 251.66 96.9004 255.42 c 4
 110.5 258.852 114.699 278.871 114.699 319.67 c 6
 114.699 452.621 l 5
330.1 404.66 m 4
 362.1 405.861 414.301 312.361 438.199 276.811 c 5
 438.199 47.9512 l 5
 407.4 47.9512 l 5
 407.4 201.262 l 5
 382.801 163.41 352.6 122.012 331.1 121.49 c 4
 319.1 121.191 309.699 133.791 305.6 167.191 c 5
 305.6 305.541 l 5
 291.199 327.891 269.6 358.5 254 355.73 c 4
 242.699 353.721 234.5 334.17 234.5 281.211 c 5
 203.801 355.09 l 5
 207.6 386.131 215.9 399.201 226.801 400.66 c 4
 258.699 404.92 312.1 309.041 336.4 272.941 c 5
 336.4 241.061 l 6
 336.4 195.771 342.301 174.91 351.199 168.57 c 4
 366.9 157.271 391.6 192.07 407.4 216.762 c 5
 407.4 309.41 l 5
 393.5 331.15 372.699 360.691 357.199 359.762 c 4
 345.199 359.031 336.4 340.061 336.4 285.09 c 5
 305.6 358.961 l 5
 309.6 391.4 318.5 404.23 330.1 404.66 c 4
EndSplineSet
Validated: 33
EndChar

StartChar: uni24CF
Encoding: 9423 9423 146
Width: 642
VWidth: 0
Flags: W
HStem: 0 31.1699<144.775 497.225> 278.619 19.9004G<11.6055 33.7803 605.979 630.395> 359.51 44.9004<291.806 314.394> 421.4 31.2188<144.846 497.145>
VStem: 11.6055 30.7695<199.82 256.02> 114.625 30.1504<31.1699 199.709 256.794 421.4> 256.395 30.7695<341.905 357.536> 358.225 30.7695<94.996 110.717 264.76 298.948> 497.225 30.1504<31.1699 199.816 256.618 421.4> 599.625 30.7695<199.92 256.119>
LayerCount: 2
Fore
SplineSet
144.846 421.4 m 5
 144.846 304.301 l 6
 144.846 272.16 144.955 253.051 131.295 245.75 c 4
 118.256 238.77 92.6543 242.551 42.375 256.02 c 5
 42.375 199.82 l 5
 100.285 215.34 125.465 218 136.395 206.17 c 4
 145.215 196.641 144.775 177.699 144.775 148.5 c 6
 144.775 31.1699 l 5
 497.225 31.1699 l 5
 497.225 148.6 l 6
 497.225 178.34 496.775 197.439 506.105 206.801 c 4
 517.295 218.029 542.564 215.211 599.625 199.92 c 5
 599.625 256.119 l 5
 543.295 241.029 517.926 238.09 506.494 248.82 c 4
 497.045 257.699 497.145 275.949 497.145 304.4 c 6
 497.145 421.4 l 5
 144.846 421.4 l 5
114.695 452.619 m 5
 527.295 452.17 l 5
 527.295 319.77 l 6
 527.295 283.49 530.584 263.641 540.846 257.27 c 4
 554.775 248.641 581.564 264.869 630.395 298.619 c 5
 630.395 157.42 l 5
 587.926 186.779 561.516 202.881 546.074 200.9 c 4
 532.445 199.15 527.375 183.301 527.375 150 c 6
 527.375 0.119141 l 5
 114.625 0 l 5
 114.625 149.869 l 6
 114.625 181.551 110.025 197.439 97.8457 200.42 c 4
 82.7246 204.131 55.8945 187.939 11.6055 157.32 c 5
 11.6055 298.52 l 5
 55.9551 267.869 82.1055 251.66 96.9746 255.42 c 4
 110.525 258.85 114.695 278.869 114.695 319.67 c 6
 114.695 452.619 l 5
281.945 404.41 m 4
 314.045 403.619 365.395 311.699 388.994 276.539 c 5
 388.994 222.26 l 5
 363.994 239.539 343.744 248.91 328.016 251.01 c 4
 298.256 254.961 284.705 232.84 285.914 188.789 c 6
 287.164 143.461 l 5
 302.125 120.18 324.926 87.9395 340.645 93.7891 c 4
 350.955 97.6309 358.225 117.869 358.225 167.789 c 5
 388.994 93.9102 l 5
 385.244 63.5391 377.176 50.3594 366.654 48.4492 c 4
 334.875 42.6797 280.795 139.699 256.395 176.061 c 5
 254.625 189.561 l 6
 246.545 251.311 266.664 289.289 358.225 264.76 c 5
 358.225 309.141 l 5
 344.324 330.77 323.654 360.141 308.186 359.51 c 4
 296.086 359.02 287.164 340.15 287.164 284.84 c 5
 256.395 358.711 l 5
 260.516 392.109 269.865 404.41 281.945 404.41 c 4
EndSplineSet
Validated: 33
EndChar

StartChar: uni24D0
Encoding: 9424 9424 147
Width: 642
VWidth: 0
Flags: W
HStem: -0.125 47.9492<254.701 285.525 356.525 387.299> 278.5 19.8984G<11.5996 33.7793 605.982 630.4> 404.574 47.4766<329.304 384.126>
VStem: 11.5996 103<157.199 181.43 278.75 298.398> 114.6 140.102<47.8242 200.823 254.782 308.897> 285.525 71<47.8242 130.308 136.398 156.611 212.683 341.789> 387.299 140.078<47.8242 200.935 254.864 404.171> 527.377 103.023<157.301 183.176 283.367 298.5>
LayerCount: 2
Fore
SplineSet
114.701 452.5 m 5xf4
 527.299 452.051 l 5
 527.299 319.648 l 6
 527.303 283.367 530.564 263.512 540.826 257.152 c 4
 554.756 248.512 581.564 264.75 630.4 298.5 c 5
 630.4 157.301 l 5xf5
 587.928 186.652 561.51 202.758 546.076 200.773 c 4
 532.447 199.023 527.377 183.176 527.377 149.875 c 6xe6
 527.377 0 l 5
 114.6 -0.125 l 5
 114.6 149.75 l 6xed
 114.6 181.43 110.006 197.312 97.8262 200.301 c 4
 82.7012 204.008 55.9004 187.816 11.5996 157.199 c 5
 11.5996 298.398 l 5
 55.959 267.746 82.1113 251.539 96.9746 255.301 c 4
 110.525 258.73 114.701 278.75 114.701 319.551 c 6
 114.701 452.5 l 5xf4
361.752 404.574 m 4
 329.654 403.785 278.303 311.891 254.701 276.727 c 5
 254.701 47.8242 l 5
 285.525 47.8242 l 5
 285.525 96.4766 l 6
 285.525 222.324 331.736 159.492 356.525 120.926 c 5
 356.525 47.8242 l 5
 387.299 47.8242 l 5
 387.299 358.875 l 6xee
 387.299 391.422 373.83 404.871 361.752 404.574 c 4
335.502 359.699 m 4
 347.604 359.203 356.525 340.312 356.525 285 c 6
 356.525 136.398 l 5
 333.799 171.289 306.49 209.129 285.525 215.199 c 5
 285.525 309.301 l 5
 297.334 329.754 315.131 359.543 335.502 359.699 c 4
335.502 359.699 m 4
EndSplineSet
Validated: 33
EndChar

StartChar: uni24D1
Encoding: 9425 9425 148
Width: 642
VWidth: 0
Flags: W
HStem: -0.125 47.5742<256.603 306.472> 278.5 19.8984G<11.6016 33.7793 605.98 630.398> 322.176 21G<285.426 298.959>
VStem: 11.6016 103.023<157.199 181.43 278.75 298.398> 114.625 140.148<47.6818 93.6758 93.9766 169.827 182.144 200.823 254.782 372.324> 285.852 70.75<112.964 199.128 246.881 337.493> 527.375 103.023<157.301 183.176 283.367 298.5>
LayerCount: 2
Fore
SplineSet
114.699 452.5 m 5xf6
 527.301 452.051 l 5
 527.301 319.648 l 6
 527.301 283.367 530.59 263.512 540.852 257.152 c 4
 554.781 248.512 581.562 264.75 630.398 298.5 c 5
 630.398 157.301 l 5
 587.926 186.652 561.512 202.758 546.074 200.773 c 4
 532.445 199.023 527.375 183.176 527.375 149.875 c 6
 527.375 0 l 5
 114.625 -0.125 l 5
 114.625 149.75 l 6xee
 114.625 181.43 110.027 197.312 97.8516 200.301 c 4
 82.7227 204.008 55.8984 187.816 11.6016 157.199 c 5
 11.6016 298.398 l 5
 55.957 267.746 82.1094 251.539 96.9766 255.301 c 4
 110.523 258.73 114.699 278.75 114.699 319.551 c 6
 114.699 452.5 l 5xf6
285.426 404.926 m 5
 254.648 372.324 l 5
 254.773 228.375 l 5
 254.898 228.375 l 5
 254.773 228.074 l 5
 254.773 181.559 269.02 174.941 288.5 187.324 c 5
 274.176 167.133 261.855 148.062 254.773 137.375 c 5
 254.773 93.9766 l 5
 254.898 93.9766 l 5
 254.773 93.6758 l 5
 254.773 60.4688 262.012 47.5977 273.25 47.4492 c 4
 303.758 47.0469 363.633 140.477 387.375 175.848 c 5
 387.375 219.324 l 5
 387.324 219.324 l 5
 387.375 219.523 l 5
 387.207 265.969 372.609 272.199 352.926 259.602 c 5
 366.891 279.227 379.246 298.141 387.375 310.25 c 5
 387.375 358.523 l 5
 387.324 358.523 l 5
 387.375 358.727 l 5
 387.258 391.078 380.133 403.938 369.176 404.5 c 4
 348 405.586 312.492 360.781 285.426 322.176 c 5
 285.426 404.926 l 5
340.574 363.152 m 4
 352.195 363.508 356.426 346.262 356.602 319.102 c 6
 356.602 277.648 l 5
 349.449 266.52 340.508 252.418 331.398 241 c 4
 327.863 237.32 324.293 233.336 320.699 229.152 c 4
 302.094 211.703 285.551 215.395 285.551 290.75 c 6
 285.551 309.152 l 5
 312.215 346.949 329.656 362.812 340.574 363.152 c 4
344.477 232.449 m 4
 353.16 232.707 356.449 219.77 356.602 195.898 c 6
 356.602 143.25 l 5
 341.305 119.434 317.656 86.2578 301.824 94.0508 c 4
 293.77 98.0156 287.73 112.586 285.852 144.426 c 5
 285.852 169.949 l 5
 315.957 212.625 333.992 232.141 344.477 232.449 c 4
344.477 232.449 m 4
EndSplineSet
Validated: 33
EndChar

StartChar: uni24D2
Encoding: 9426 9426 149
Width: 642
VWidth: 0
Flags: W
HStem: -0.125 21G<114.627 527.373> 278.5 19.8984G<11.5996 33.7793 605.982 630.4> 404.574 47.4766<329.304 382.314>
VStem: 11.5996 103.027<157.199 181.43 278.75 298.398> 285.475 71.0508<112.718 167.375 285 339.716> 527.373 103.027<157.301 183.176 283.367 298.5>
CounterMasks: 1 1c
LayerCount: 2
Fore
SplineSet
114.701 452.5 m 5
 527.299 452.051 l 5
 527.299 319.648 l 6
 527.299 283.367 530.592 263.512 540.85 257.152 c 4
 554.783 248.512 581.564 264.75 630.4 298.5 c 5
 630.4 157.301 l 5
 587.928 186.652 561.51 202.758 546.076 200.773 c 4
 532.447 199.023 527.373 183.176 527.373 149.875 c 6
 527.373 0 l 5
 114.627 -0.125 l 5
 114.627 149.75 l 6
 114.627 181.43 110.029 197.312 97.8496 200.301 c 4
 82.7246 204.008 55.9004 187.816 11.5996 157.199 c 5
 11.5996 298.398 l 5
 55.959 267.746 82.1113 251.539 96.9746 255.301 c 4
 110.525 258.73 114.701 278.75 114.701 319.551 c 6
 114.701 452.5 l 5
361.752 404.574 m 4
 329.654 403.785 278.303 311.891 254.701 276.727 c 5
 254.701 175.648 l 5
 278.682 139.918 331.307 45.6367 363.275 47.8477 c 4
 374.611 48.6367 383.357 61.5352 387.299 93.5 c 5
 356.525 167.375 l 5
 356.525 111.688 347.479 92.9531 335.252 92.6992 c 4
 319.811 92.3789 299.295 121.531 285.475 143.051 c 5
 285.475 309.301 l 5
 299.283 330.793 319.768 359.953 335.201 359.699 c 4
 347.451 359.5 356.525 340.762 356.525 285 c 5
 387.299 358.875 l 5
 383.182 392.266 373.83 404.871 361.752 404.574 c 4
361.752 404.574 m 4
EndSplineSet
Validated: 33
EndChar

StartChar: uni24D3
Encoding: 9427 9427 150
Width: 642
VWidth: 0
Flags: W
HStem: 0 47.75<356.549 387.502> 278.5 19.8984G<11.5996 33.7793 605.982 630.4> 404.648 47.4023<356.549 387.502>
VStem: 11.5996 103.027<157.199 181.43 278.75 298.398> 114.627 139.875<49.3495 95.2734 95.5742 200.823 254.782 277.987> 285.275 71.0508<114.248 306.834> 387.502 139.875<47.75 200.935 254.864 404.648> 527.377 103.023<157.301 183.176 283.367 298.5>
LayerCount: 2
Fore
SplineSet
114.701 452.5 m 5xf4
 527.303 452.051 l 5
 527.303 319.648 l 6
 527.303 283.367 530.592 263.512 540.85 257.152 c 4
 554.783 248.512 581.564 264.75 630.4 298.5 c 5
 630.4 157.301 l 5xf5
 587.928 186.652 561.51 202.758 546.076 200.773 c 4
 532.447 199.023 527.377 183.176 527.377 149.875 c 6xe6
 527.377 0 l 5
 114.627 -0.125 l 5
 114.627 149.75 l 6xed
 114.627 181.43 110.029 197.312 97.8496 200.301 c 4
 82.7246 204.008 55.9004 187.816 11.5996 157.199 c 5
 11.5996 298.398 l 5
 55.959 267.746 82.1113 251.539 96.9746 255.301 c 4
 110.525 258.73 114.701 278.75 114.701 319.551 c 6
 114.701 452.5 l 5xf4
356.549 404.648 m 5
 356.549 369.727 l 5
 323.256 352.223 272.342 272.164 254.502 245.227 c 5
 254.502 95.5742 l 5
 254.627 95.5742 l 5
 254.502 95.2734 l 5
 254.502 62.7109 261.482 49.6836 272.35 49.0508 c 4
 293.322 47.8281 328.775 92.7266 356.549 132.301 c 5
 356.549 47.75 l 5
 387.502 47.75 l 5
 387.502 404.648 l 5xee
 356.549 404.648 l 5
328.701 318.949 m 4
 347.111 318.75 356.115 286.422 356.326 253.5 c 6
 356.326 144.848 l 5
 341.545 121.844 319.123 90.0781 303.428 94.9766 c 4
 292.818 98.2852 285.275 118.332 285.275 169.152 c 6
 285.275 277.801 l 5
 303.221 307.621 317.654 319.07 328.701 318.949 c 4
328.701 318.949 m 4
EndSplineSet
Validated: 33
EndChar

StartChar: uni24D4
Encoding: 9428 9428 151
Width: 642
VWidth: 0
Flags: W
HStem: -0.125 21G<114.623 527.373> 278.5 19.8984G<11.5996 33.7773 605.982 630.4> 404.574 47.4766<329.303 382.313>
VStem: 11.5996 103.023<157.199 181.43 278.75 298.398> 285.475 70.9727<113.334 167.375 175.5 229.37 291.618 339.47> 527.373 103.027<157.301 183.176 283.367 298.5>
LayerCount: 2
Fore
SplineSet
114.697 452.5 m 5
 527.299 452.051 l 5
 527.299 319.648 l 6
 527.299 283.367 530.588 263.512 540.85 257.152 c 4
 554.779 248.512 581.564 264.75 630.4 298.5 c 5
 630.4 157.301 l 5
 587.924 186.652 561.51 202.758 546.072 200.773 c 4
 532.447 199.023 527.373 183.176 527.373 149.875 c 6
 527.373 0 l 5
 114.623 -0.125 l 5
 114.623 149.75 l 6
 114.623 181.43 110.029 197.312 97.8496 200.301 c 4
 82.7246 204.008 55.9004 187.816 11.5996 157.199 c 5
 11.5996 298.398 l 5
 55.9551 267.746 82.1074 251.539 96.9746 255.301 c 4
 110.525 258.73 114.697 278.75 114.697 319.551 c 6
 114.697 452.5 l 5
361.748 404.574 m 4
 329.654 403.785 278.303 311.891 254.697 276.727 c 5
 254.697 175.648 l 5
 278.686 139.91 331.33 45.5938 363.299 47.8477 c 4
 374.623 48.6484 383.357 61.5547 387.299 93.5 c 5
 356.525 167.375 l 5
 356.525 116.188 348.881 96.2109 338.15 93.125 c 4
 322.463 88.6094 300.182 120.18 285.475 143.074 c 5
 285.475 199.824 l 5
 299.537 221.723 320.549 251.547 336.072 250.152 c 4
 347.885 249.086 356.525 229.949 356.525 175.5 c 5
 387.299 249.375 l 5
 383.061 283.754 373.271 296.082 360.674 295 c 5
 387.299 358.875 l 5
 383.182 392.266 373.826 404.871 361.748 404.574 c 4
334.9 359.727 m 4
 335.143 359.727 335.381 359.711 335.623 359.699 c 4
 346.967 359.113 355.502 342.234 356.447 294.176 c 5
 335.486 287.941 308.154 250.129 285.475 215.301 c 5
 285.475 309.324 l 5
 299.186 330.672 319.502 359.59 334.9 359.727 c 4
334.9 359.727 m 4
EndSplineSet
Validated: 33
EndChar

StartChar: uni24D5
Encoding: 9429 9429 152
Width: 642
VWidth: 0
Flags: W
HStem: -0.130859 47.9316<254.699 285.469> 278.5 19.9004G<11.5996 33.7744 605.98 630.4> 404.57 47.4805<329.281 382.303>
VStem: 11.5996 103<157.199 181.43 278.75 298.4> 114.6 140.1<47.8008 200.824 254.782 308.893> 285.469 71.0312<136.199 190.825 285 339.239> 527.369 103.031<157.301 183.17 283.359 298.5>
LayerCount: 2
Fore
SplineSet
114.699 452.5 m 5xf6
 527.289 452.051 l 5
 527.289 319.65 l 6
 527.299 283.359 530.561 263.51 540.82 257.15 c 4
 554.75 248.51 581.561 264.75 630.4 298.5 c 5
 630.4 157.301 l 5
 587.92 186.65 561.5 202.76 546.07 200.77 c 4
 532.439 199.02 527.369 183.17 527.369 149.869 c 6
 527.369 0 l 5
 114.6 -0.130859 l 5
 114.6 149.75 l 6xee
 114.6 181.43 110 197.311 97.8203 200.301 c 4
 82.6992 204.01 55.8887 187.811 11.5996 157.199 c 5
 11.5996 298.4 l 5
 55.9492 267.74 82.1094 251.539 96.9688 255.301 c 4
 110.52 258.721 114.699 278.75 114.699 319.551 c 6
 114.699 452.5 l 5xf6
361.719 404.57 m 4
 329.629 403.779 278.299 311.891 254.699 276.721 c 5
 254.699 47.8008 l 5
 285.469 47.8008 l 5
 285.469 160.52 l 5
 300.01 183.15 321.939 214.25 337.6 210.6 c 4
 348.609 208.02 356.5 188.24 356.5 136.199 c 5
 387.289 210.07 l 5
 383.51 240.811 375.27 253.939 364.57 255.6 c 4
 342.949 258.949 311.219 215.539 285.469 176 c 5
 285.469 309.32 l 5
 299.01 330.391 318.949 358.801 334.27 359.67 c 4
 346.99 360.4 356.5 342.15 356.5 285 c 5
 387.289 358.869 l 5
 383.18 392.26 373.799 404.869 361.719 404.57 c 4
361.719 404.57 m 4
EndSplineSet
Validated: 33
EndChar

StartChar: uni24D6
Encoding: 9430 9430 153
Width: 642
VWidth: 0
Flags: W
HStem: -0.130859 21G<114.625 527.375> 278.5 19.9004G<11.6055 33.7803 605.979 630.395> 404.971 47.0801<329.307 382.317>
VStem: 11.6055 103.02<157.199 181.43 278.75 298.4> 285.475 71.0508<134.064 196.5 285.4 339.886> 527.375 103.02<157.301 183.17 283.359 298.5>
CounterMasks: 1 1c
LayerCount: 2
Fore
SplineSet
114.705 452.5 m 5
 527.305 452.051 l 5
 527.305 319.65 l 6
 527.305 283.359 530.596 263.51 540.854 257.15 c 4
 554.785 248.51 581.564 264.75 630.395 298.5 c 5
 630.395 157.301 l 5
 587.926 186.65 561.516 202.76 546.076 200.77 c 4
 532.445 199.02 527.375 183.17 527.375 149.869 c 6
 527.375 0 l 5
 114.625 -0.130859 l 5
 114.625 149.75 l 6
 114.625 181.43 110.025 197.311 97.8555 200.301 c 4
 82.7246 204.01 55.8945 187.811 11.6055 157.199 c 5
 11.6055 298.4 l 5
 55.9551 267.74 82.1152 251.539 96.9746 255.301 c 4
 110.525 258.721 114.705 278.75 114.705 319.551 c 6
 114.705 452.5 l 5
361.756 404.971 m 4
 329.656 404.18 278.305 312.289 254.705 277.119 c 5
 254.705 172.1 l 5
 287.186 123.699 387.305 -28.3906 387.305 93.9004 c 6
 387.305 252.699 l 5
 314.656 202.49 290.814 191.08 285.475 242.619 c 5
 285.475 309.699 l 5
 310.246 348.25 356.525 411.41 356.525 285.4 c 5
 387.305 359.27 l 5
 383.186 392.67 373.826 405.27 361.756 404.971 c 4
356.525 210.199 m 5
 356.525 167.77 l 6
 356.525 41.7598 310.246 104.891 285.475 143.449 c 5
 285.475 196.5 l 5
 300.645 196.59 323.145 201.26 356.525 210.199 c 5
356.525 210.199 m 4
EndSplineSet
Validated: 33
EndChar

StartChar: uni24D7
Encoding: 9431 9431 154
Width: 642
VWidth: 0
Flags: W
HStem: 0 47.7998<254.7 285.6 356.6 387.3> 278.62 19.9014G<11.5996 33.7998 606 630.4> 404.82 47.3496<254.7 285.3 356.5 387.3>
VStem: 11.5996 103<157.32 181.55 278.87 298.521> 114.6 140.101<47.7998 200.943 254.902 404.82> 285.6 71<47.7998 152.037 213.234 404.82> 387.3 140.101<47.7998 201.061 254.983 404.82> 527.4 103<157.42 183.3 283.49 298.62>
LayerCount: 2
Fore
SplineSet
114.7 452.62 m 5xf4
 527.3 452.17 l 5
 527.3 319.771 l 6
 527.3 283.49 530.6 263.63 540.9 257.271 c 4
 554.8 248.63 581.6 264.87 630.4 298.62 c 5
 630.4 157.42 l 5xf5
 587.9 186.771 561.5 202.88 546.1 200.9 c 4
 532.5 199.14 527.4 183.3 527.4 150 c 6xe6
 527.4 0.120117 l 5
 114.6 0 l 5
 114.6 149.87 l 6xed
 114.6 181.55 110.1 197.44 97.9004 200.42 c 4
 82.7998 204.13 55.9004 187.94 11.5996 157.32 c 5
 11.5996 298.521 l 5
 56 267.87 82.0996 251.66 97 255.42 c 4
 110.6 258.851 114.7 278.87 114.7 319.67 c 6
 114.7 452.62 l 5xf4
254.7 404.82 m 5xee
 254.7 47.7998 l 5
 285.6 47.7998 l 5
 285.6 97.0205 l 6
 285.6 148.01 293.1 168.01 303.8 171.22 c 4
 319.5 175.93 341.8 144.41 356.6 121.47 c 5
 356.6 47.7998 l 5
 387.3 47.7998 l 5
 387.3 404.82 l 5
 356.5 404.82 l 5
 356.6 136.95 l 5
 333.8 171.84 306.5 209.68 285.6 215.75 c 5
 285.3 404.82 l 5
 254.7 404.82 l 5xee
254.7 404.82 m 4
EndSplineSet
Validated: 33
EndChar

StartChar: uni24D8
Encoding: 9432 9432 155
Width: 642
VWidth: 0
Flags: W
HStem: -0.130859 452.631<114.704 305.604 336.405 527.304> -0.130859 47.4004<305.604 336.405> 278.5 19.9004G<11.5947 33.7744 606.005 630.405>
VStem: 11.5947 103.029<157.199 181.43 278.75 298.4> 114.624 190.98<47.2695 200.824 254.782 372.52> 336.405 191<47.2695 200.932 254.863 405.119> 527.405 103<157.301 183.17 283.359 298.5>
LayerCount: 2
Fore
SplineSet
114.704 452.5 m 5x90
 527.304 452.051 l 5
 527.304 319.65 l 6
 527.304 283.359 530.604 263.51 540.804 257.15 c 4
 554.804 248.51 581.604 264.75 630.405 298.5 c 5
 630.405 157.301 l 5x92
 587.905 186.65 561.505 202.76 546.104 200.77 c 4
 532.405 199.02 527.405 183.17 527.405 149.869 c 6x84
 527.405 0 l 5
 114.624 -0.130859 l 5
 114.624 149.75 l 6x4a
 114.624 181.43 110.024 197.311 97.8447 200.301 c 4
 82.7236 204.01 55.9053 187.811 11.5947 157.199 c 5
 11.5947 298.4 l 5x70
 55.9541 267.74 82.1143 251.539 96.9736 255.301 c 4
 110.524 258.721 114.704 278.75 114.704 319.551 c 6
 114.704 452.5 l 5x90
336.405 405.119 m 5x4c
 305.604 372.52 l 5
 305.604 47.2695 l 5
 336.405 47.2695 l 5
 336.405 405.119 l 5x4c
336.405 405.119 m 4
EndSplineSet
Validated: 33
EndChar

StartChar: uni24D9
Encoding: 9433 9433 156
Width: 642
VWidth: 0
Flags: W
HStem: -0.130859 48.4805<259.521 311.851> 278.5 19.9004G<11.5996 33.75 605.95 630.4> 404.051 48<356.5 387.301>
VStem: 11.5996 103<157.199 181.43 278.75 298.4> 285.4 71.0996<113.143 167.92> 387.301 140<143.649 200.932 254.863 404.051> 527.301 103.1<157.301 183.17 283.359 298.5>
LayerCount: 2
Fore
SplineSet
114.699 452.5 m 5xfa
 527.301 452.051 l 5xfa
 527.301 319.65 l 6xfc
 527.301 283.359 530.6 263.51 540.801 257.15 c 4
 554.801 248.51 581.5 264.75 630.4 298.5 c 5
 630.4 157.301 l 5xfa
 587.9 186.65 561.5 202.76 546 200.77 c 4
 532.4 199.02 527.301 183.17 527.301 149.869 c 6xfc
 527.301 0 l 5
 114.6 -0.130859 l 5
 114.6 149.75 l 6
 114.6 181.43 110 197.311 97.8008 200.301 c 4
 82.6992 204.01 55.9004 187.811 11.5996 157.199 c 5
 11.5996 298.4 l 5
 55.9004 267.74 82.0996 251.539 96.9004 255.301 c 4
 110.5 258.721 114.699 278.75 114.699 319.551 c 6
 114.699 452.5 l 5xfa
356.5 404.051 m 5
 356.5 143.619 l 5
 343.1 122.77 323.4 94.7305 308.199 93.3008 c 4
 295.199 92.0801 285.4 110.051 285.4 167.92 c 5
 254.699 94.0508 l 5
 258.699 61.5391 267.699 48.7305 279.301 48.3496 c 4
 311.301 47.2891 363.4 140.68 387.301 176.199 c 5
 387.301 404.051 l 5xfc
 356.5 404.051 l 5
356.5 404.051 m 4
EndSplineSet
Validated: 33
EndChar

StartChar: uni24DA
Encoding: 9434 9434 157
Width: 642
VWidth: 0
Flags: W
HStem: 0.129883 47.5195<254.9 285.6 356.1 387.199> 278.63 19.9004G<11.5996 33.7998 285.6 304.85 606 630.4> 404.999 47.6309<254.9 285.4 356.799 387.199>
VStem: 11.5996 103<157.329 181.56 278.88 298.53> 114.6 140.301<47.6494 200.95 254.91 404.999> 285.6 70.5<47.6494 177.232 281.108 404.999> 387.199 140.201<47.6494 147.056 256.957 404.999> 527.4 103<157.429 183.3 283.499 298.63>
LayerCount: 2
Fore
SplineSet
114.699 452.63 m 5xf4
 527.299 452.179 l 5
 527.299 319.78 l 6
 527.299 283.499 530.6 263.64 540.9 257.28 c 4
 554.799 248.64 581.6 264.88 630.4 298.63 c 5
 630.4 157.429 l 5
 588 186.78 561.5 202.88 546.1 200.899 c 4
 532.5 199.149 527.4 183.3 527.4 149.999 c 6
 527.4 0.129883 l 5
 114.6 -0.000976562 l 5
 114.6 149.88 l 6xed
 114.6 181.56 110.1 197.44 97.9004 200.429 c 4
 82.7988 204.13 55.9004 187.94 11.5996 157.329 c 5
 11.5996 298.53 l 5
 56 267.87 82.0996 251.669 97 255.429 c 4
 110.6 258.849 114.699 278.88 114.699 319.679 c 6
 114.699 452.63 l 5xf4
254.9 404.999 m 5
 254.9 47.6494 l 5
 285.6 47.6494 l 5
 285.6 144.829 l 5
 287.5 180.14 294.4 194.71 303.5 197.229 c 4
 319.199 201.569 341.4 170.12 356.1 147.28 c 5
 356.1 47.6494 l 5
 387.199 47.6494 l 5
 387.199 114.7 l 5
 365 147.829 317.799 231.31 285.6 241.53 c 5
 285.6 295.53 l 5
 324.1 236.349 387.199 168.169 387.199 261.2 c 6
 387.199 404.999 l 5xee
 356.799 404.999 l 5
 356.799 335.079 l 6
 356.799 283.989 349.1 263.999 338.4 260.849 c 4
 322.799 256.229 300.4 287.849 285.699 310.78 c 5
 285.4 404.999 l 5
 254.9 404.999 l 5
254.9 404.999 m 4
EndSplineSet
Validated: 33
EndChar

StartChar: uni24DB
Encoding: 9435 9435 158
Width: 642
VWidth: 0
Flags: W
HStem: 0 48.3496<329.135 382.284> 278.5 19.8994G<11.6055 33.7803 605.979 630.395> 404.05 48.4502<254.705 285.475>
VStem: 11.6055 103.02<157.199 181.43 278.75 298.399> 114.625 140.08<144.102 200.822 254.781 404.05> 285.475 71.0508<113.659 167.92> 527.375 103.02<157.299 183.18 283.369 298.5>
LayerCount: 2
Fore
SplineSet
114.705 452.5 m 5xf6
 527.305 452.05 l 5
 527.305 319.649 l 6
 527.305 283.369 530.596 263.52 540.854 257.149 c 4
 554.785 248.51 581.564 264.75 630.395 298.5 c 5
 630.395 157.299 l 5
 587.926 186.66 561.516 202.76 546.076 200.779 c 4
 532.445 199.029 527.375 183.18 527.375 149.879 c 6
 527.375 0 l 5
 114.625 -0.121094 l 5
 114.625 149.75 l 6xee
 114.625 181.43 110.025 197.319 97.8555 200.299 c 4
 82.7246 204.01 55.8945 187.819 11.6055 157.199 c 5
 11.6055 298.399 l 5
 55.9551 267.75 82.1152 251.539 96.9746 255.3 c 4
 110.525 258.729 114.705 278.75 114.705 319.55 c 6
 114.705 452.5 l 5xf6
254.705 404.05 m 5
 254.705 176.199 l 5
 278.256 141.1 329.445 49.5098 361.555 48.3496 c 4
 373.725 47.9102 383.166 60.4795 387.305 94.0488 c 5
 356.525 167.92 l 5
 356.525 114.68 348.266 95.2295 336.855 93.3994 c 4
 321.256 90.9102 299.775 121.359 285.475 143.629 c 5
 285.475 404.05 l 5
 254.705 404.05 l 5
254.705 404.05 m 4
EndSplineSet
Validated: 33
EndChar

StartChar: uni24DC
Encoding: 9436 9436 159
Width: 642
VWidth: 0
Flags: W
HStem: 0 47.6309<203.779 234.549 305.6 336.369 407.42 438.199> 278.501 19.8994G<11.5996 33.7793 605.985 630.4> 325.681 21G<336.369 349.685> 404.78 47.7207<272.476 334.101>
VStem: 114.629 89.1504<47.6309 200.824 254.783 327.021> 234.549 71.0508<47.6309 339.451> 336.369 71.0508<47.6309 337.841> 438.199 89.1699<47.6309 200.941 254.863 404.755>
LayerCount: 2
Fore
SplineSet
114.699 452.501 m 5
 527.299 452.051 l 5
 527.299 319.65 l 6
 527.299 283.37 530.59 263.521 540.85 257.15 c 4
 554.779 248.511 581.57 264.751 630.4 298.501 c 5
 630.4 157.301 l 5
 587.93 186.66 561.51 202.761 546.08 200.78 c 4
 532.449 199.03 527.369 183.181 527.369 149.881 c 6
 527.369 0 l 5
 114.629 -0.119141 l 5
 114.629 149.75 l 6
 114.629 181.431 110.029 197.32 97.8496 200.301 c 4
 82.7305 204.011 55.9004 187.82 11.5996 157.201 c 5
 11.5996 298.4 l 5
 55.959 267.751 82.1094 251.541 96.9805 255.301 c 4
 110.529 258.73 114.699 278.751 114.699 319.551 c 6
 114.699 452.501 l 5
312.33 404.78 m 4
 274.1 403.78 203.779 311.15 203.779 277.601 c 6
 203.779 47.6309 l 5
 234.549 47.6309 l 5
 234.549 310.181 l 5
 254.119 340.461 272.359 360.891 285.449 359.351 c 4
 297.82 357.891 305.6 336.82 305.6 285.881 c 6
 305.6 47.6309 l 5
 336.369 47.6309 l 5
 336.369 310.181 l 5
 355.57 339.891 374.311 356.461 387.75 353.98 c 4
 400.959 351.53 409.049 330.7 407.42 285.881 c 5
 407.42 47.6309 l 5
 438.199 47.6309 l 5
 438.199 359.551 l 5
 438.15 359.551 l 5
 438.199 359.751 l 5
 438.199 392.921 428.33 406.23 413.48 404.631 c 4
 392.98 402.41 363 371.79 336.369 325.681 c 5
 336.369 359.551 l 5
 336.299 359.551 l 5
 336.369 359.751 l 5
 336.379 389.9 328.189 402.851 315.9 404.58 c 4
 314.74 404.74 313.561 404.811 312.33 404.78 c 4
312.33 404.78 m 4
EndSplineSet
Validated: 33
EndChar

StartChar: uni24DD
Encoding: 9437 9437 160
Width: 642
VWidth: 0
Flags: W
HStem: -0.120117 48.0195<254.705 285.505 356.505 387.305> 278.5 19.8994G<11.5947 33.7749 606.005 630.405> 324.699 21G<285.505 297.805> 404.5 48<254.705 285.505 328.493 384.125>
VStem: 11.5947 103.03<157.2 181.43 278.75 298.399> 114.625 140.08<47.8994 200.823 254.782 404.5> 285.505 71<47.8994 339.236> 387.305 140.101<47.8994 200.94 254.862 404.098> 527.405 103<157.3 183.18 283.369 298.5>
LayerCount: 2
Fore
SplineSet
114.705 452.5 m 5xfa
 527.305 452.05 l 5
 527.305 319.649 l 6
 527.305 283.369 530.604 263.52 540.805 257.149 c 4
 554.805 248.51 581.604 264.75 630.405 298.5 c 5
 630.405 157.3 l 5xfa80
 587.905 186.659 561.505 202.76 546.104 200.779 c 4
 532.405 199.029 527.405 183.18 527.405 149.88 c 6xf3
 527.405 -0.000976562 l 5
 114.625 -0.120117 l 5
 114.625 149.749 l 6xf680
 114.625 181.43 110.025 197.319 97.8447 200.3 c 4
 82.7246 204.01 55.9053 187.819 11.5947 157.2 c 5
 11.5947 298.399 l 5
 55.9551 267.75 82.1152 251.54 96.9746 255.3 c 4
 110.525 258.729 114.705 278.75 114.705 319.55 c 6
 114.705 452.5 l 5xfa
254.705 404.5 m 5xf7
 254.705 47.8994 l 5
 285.505 47.8994 l 5
 285.505 309.229 l 5
 299.005 330.31 319.005 358.77 334.305 359.6 c 4
 347.005 360.289 356.505 342.029 356.505 284.93 c 6
 356.505 47.8994 l 5
 387.305 47.8994 l 5
 387.305 358.8 l 6
 387.305 391.35 373.805 404.8 361.705 404.5 c 4
 340.205 403.97 310.105 362.55 285.505 324.699 c 5
 285.505 404.5 l 5
 254.705 404.5 l 5xf7
254.705 404.5 m 4
EndSplineSet
Validated: 33
EndChar

StartChar: uni24DE
Encoding: 9438 9438 161
Width: 642
VWidth: 0
Flags: W
HStem: 0 21G<114.601 527.3> 278.621 19.9004G<11.6006 33.75 605.949 630.399> 405.521 46.6504<335.365 385.393>
VStem: 11.6006 103<157.32 181.551 278.871 298.521> 114.601 140.1<47.9444 93.3203 93.6211 200.943 254.903 310.111> 285.399 71.0996<112.434 339.095> 387.3 140<143.862 201.061 254.984 405.522> 527.3 103.1<157.42 183.301 283.49 298.621>
LayerCount: 2
Fore
SplineSet
114.7 452.621 m 5xf4
 527.3 452.172 l 5xf5
 527.3 319.771 l 6xe6
 527.3 283.49 530.601 263.641 540.8 257.271 c 4
 554.8 248.631 581.499 264.871 630.399 298.621 c 5
 630.399 157.42 l 5xe5
 587.899 186.781 561.499 202.881 545.999 200.9 c 4
 532.399 199.15 527.3 183.301 527.3 150 c 6xe6
 527.3 0.121094 l 5
 114.601 0 l 5
 114.601 149.871 l 6xed
 114.601 181.551 109.999 197.441 97.7998 200.42 c 4
 82.7002 204.131 55.8994 187.941 11.6006 157.32 c 5
 11.6006 298.521 l 5
 55.8994 267.871 82.1006 251.66 96.8994 255.422 c 4
 110.499 258.852 114.7 278.871 114.7 319.672 c 6
 114.7 452.621 l 5xf4
368.7 405.551 m 4
 368.399 405.561 367.999 405.541 367.601 405.521 c 4
 335.8 404.15 274.601 307.721 254.7 277.621 c 5
 254.7 93.6211 l 5
 254.8 93.6211 l 5
 254.7 93.3203 l 5
 254.7 64.4102 260.2 50.9004 268.999 47.791 c 4
 297.899 37.6699 362.399 138.441 387.3 175.5 c 5
 387.3 359.771 l 6xee
 387.2 392.461 379.899 405.24 368.7 405.551 c 4
328.2 351.352 m 4
 328.999 351.371 329.7 351.32 330.399 351.252 c 4
 347.8 349.342 356.3 317.9 356.499 285.9 c 6
 356.499 142.9 l 5
 341.101 118.92 317.399 85.4414 301.601 93.8516 c 4
 292.101 98.9609 285.399 119.551 285.399 167.201 c 6
 285.399 310.201 l 5
 302.999 339.451 317.3 351.031 328.2 351.352 c 4
328.2 351.352 m 4
EndSplineSet
Validated: 33
EndChar

